<mxfile host="Electron" agent="Mozilla/5.0 (Windows NT 10.0; Win64; x64) AppleWebKit/537.36 (KHTML, like Gecko) draw.io/24.7.17 Chrome/128.0.6613.36 Electron/32.0.1 Safari/537.36" version="24.7.17">
  <diagram name="Страница — 1" id="6VW3OwPkAr3VF3JZWy2a">
    <mxGraphModel dx="941" dy="644" grid="1" gridSize="10" guides="1" tooltips="1" connect="1" arrows="1" fold="1" page="1" pageScale="1" pageWidth="827" pageHeight="1169" math="0" shadow="0">
      <root>
        <mxCell id="0" />
        <mxCell id="1" parent="0" />
        <mxCell id="oPY1Iat3rdZq_LcWUMkm-1" value="" style="shape=image;verticalLabelPosition=bottom;labelBackgroundColor=default;verticalAlign=top;aspect=fixed;imageAspect=0;image=data:image/png,iVBORw0KGgoAAAANSUhEUgAAAsEAAAK8CAYAAAAODWJrAAAAAXNSR0IArs4c6QAAAARnQU1BAACxjwv8YQUAAAAJcEhZcwAAHYcAAB2HAY/l8WUAAP+lSURBVHhe7N0HfBRFGwfg/9XcXUIa6UBCCC2hI70KCEhHuiBSBBUVUOm9946AND+KAkqRDlIEKUrvNfRAEkJIL1dzl292by8FEpIcARLyPj9XbufmNnuz7d25mVmRt7d3MnKsHqZsnoy6Lgm4seZrDPw1VEgnhBBCCCEk7xML/+ZMhRooas/+1Ufi4RUKgAkhhBBCSP5iVRBcoWkFeMpZDPzsJo5eFRIJIYQQQgjJJ6wIgv1Qp7QrWAyMhODzuGROJIQQQgghJN+wIghOQIzGAK4hsdKrNpoXlZmTCSGEEEIIySckDg4OE4XX2ZSIwLsm+FUqjaLFAtCwfVd80vxDVHV7hEPnnwl5CCGEEEIIybusCIIBU/QDhIlc4GorhcTWGS6FC0MRdw6bjzwSchBCCCGEEJJ3WTFEmhQ1R6/B5I+KQJLwECc2r8Gv+87gQZRBeJ8QQgghhJC8zYo2wT6o7O0EriVwzLXfMOm3kxQAE0IIIYSQfMWKIDgIt5+rzR3jXP1R2pxICCGEEEJIvmFFEJyEf/dfQ5iRBcGe5VHPW0gmhBBCCCEkn7AiCGZh8Nl/ERTLXth6oVw1B3MiIYQQQggh+YRVQTDsnaCQcC9kKOThzicRQgghhBCSX+RgdAgp6o9ahF7eMsjcvFHUSQ6RPgh7hvfBfHp0MiGEEEIIyUdyUBPsgwAfH5QoUxLFWACcrA7BqbXT8BMFwIQQQgghJJ/J2TjBCk/4l3WHNO4xbj+IAg2MRgghhBBC8iMrHpZBCCGEEEJI/mZdxzhCCCGEEELyMQqCCSGEEEJIgUNBMCGEEEIIKXAoCCaEEEIIIQUOBcGEEEIIIaTAoSCYEEIIIYQUOBQEE0IIIYSQAoeCYEIIIYQQUuBQEEwIIYQQQgocCoIJIYQQQkiBQ0EwIYQQQggpcCgIJoQQQgghBQ4FwYQQQgghpMChIJgQQgghhBQ4FAQTQgghhJACh4JgQgghhBBS4FAQTAghhBBCChwKggkhhBBCSIFDQTAhhBBCCClwKAgmhBBCCCEFDgXBhBBCCCGkwKEgmBBCCCGEFDgUBBNCCCGEkAKHgmBCCCGEEFLgUBBMCCGEEEIKHAqCCSGEEEJIgUNBMCGEEEIIKXAoCCaEEEIIIQUOBcGEEEIIIaTAoSCYEEIIIYQUOBQEE0IIIYSQAoeCYEIIIYQQUuBQEEwIIYQQQgocCoIJIYQQQkiBQ0EwIYQQQggpcETe3t7JwutsK95yAHpUcRbmBDGX8fvSvbgvzBYU7vV7omc1PY6t+QPnYoREQgghhBCSp+UsCHauhe69m8BX90LAy6V/UhhnfikoQbA76vfsiQbeNuZZ9T0cpCCYEEIIISTfyH5zCCEAdgr8HdNerPGNOo2NBSYAZtxLo7h7PM6vnYbVxx9DJyQTQgghhJD8Ids1wXwTCN/H2W/yUKYtBnaqAHthNrW2tAzaDuwEzztrseJAiPBmWpm9b06vkLJAIOL8C3nc66NnzwawVNCyP4p7B9fgj5QqWnMNbjX9Maz54xz4VMt6CusX12AgOlXQswB3BTJcvRdQcwhCCCGEkPwnmzXBxRHg44yYR7ezFQBzgeHQTn4IP7gU06ZN46et1xOFd63k7gYHmwi+9nXatK24FiekC/i/2a8a9MdS/+bq4xEo1qwPulZ3FHK9gAua27AAOOI81i6gIJYQQgghpKDIXhDs7AFHpRYx0bFCwiuwwLJZTW/En9+cpgYWCDy05/WCTEcnOKbU8L6oDGpW9obx3kkcSPNHnp34FbuvJaFk1ZooIqSlKoO2XRrAO54FwCsOwFLpG7jrJxZAZ68WmBBCCCGE5E+5P0QaH6xG4NH1NxBFqmMQlVGFcpky8LFXI/TBXXMThzRiomOgcymO8umiYDtU79kGFaT3cPCP1ACYEEIIIYQUDDkIghUsvnUQXmfO3c0BNpkFq2m4VOuNMWPGpEw/dK2OTBot8CzLDc20NlmNmAzefBYe+1LHNVXJOqjhbcS9kweoCQQhhBBCSAGUvSA46g4ehGngWLws/ISk18V1arO03Z22+jgiijVD1+YvN1owc0fp4u4wxkQh89haBUevl8NoPngWXluo7x3Efq6ZRLOuyPRPEkIIIYSQ91Y2a4KjcPq/24hyLItadVyEtIw9u/MIzyReKFHqVfW6L3h2B4+e6aBy9MqkNtgRTo7GDJs78AIDERTHgmBnWyEhlaOTI2wiHuHF1hkPdm3G8ceFUK33VxQIE0IIIYQUMNlvDvFoH/74+yncG32FIT3qIF0ozI0h/EUrcy3xsxM4e+flWtYyTVsjs0EazOPu2kAdE5phkOtevwZKS0Px4G5mbRcCcebyYxSq1iXdSBDciBFtuOHO9mTU7vcZTvy6G9fiXFCtS9eUdSvTdiDGjKHAmBBCCCHkfZbzxyZbnhqnFOYFMZd/x9K9qQOo8ePnNvBObYrADUPGj8Lw8ni/HK6Jgnns3rTjBNsJebmh0dKO2JDJWMKZjk0szGc0TnDK+pjHFL7s2ZPGCSaEEEIIec/lPAgmhBBCCCEkn8v9IdIIIYQQQgjJ4ygIJoQQQgghBQ4FwYQQQgghpMChIJgQQgghhBQ4FAQTQgghhJACh4JgQgghhBBS4FAQTAghhBBCChwKggkhhBBCSIFDQTAhhBBCCClw6IlxhOSICPZVOuHLrh/hgzJesBM/x8lpfTHrrPA2IYSQ7Ks0Emum1oWzNhohd05j28rV+DtIL7xJyJuVZ4JgeZ3FqPBRaeDRn7i+fiV0QnqGfMehQs+6sBVmeTGncX3xRCQIs68mhaxEJzg6hyDm0gkYjELy+0paBg416kP0YANiwjRCYjYU7otSfbugsOge7q/5Ds+fC+kFlcgRTUYvxI+NvKG0/IZifIZjEz/FpH+F+RfJWNlXrwfRfVb2z7RCIikIlC3WoVJ1d2ivzcfl7QeF1HfDsi5p5YX1shA5fIiKn34I/dHZuBWoFlKtZzfkBH5sVQz6mysw87sZQirJk6pNwO+zG8JNmE02ROPWrmn4celFUChM3rT82RzCqENSYiL03KTRI6dRvCRgAvx79IZfyxEo3bQ2REL6+6ks3D+bDf+POqFM96ko7Cgkvy1V22Ddgbk4coSbRmJKXZk53aY2Fu6xpE/Eou725vQ8S4bKP8zH0CYsABbpEXF9O2b2/QSNm74iAObKvgdX9p1Rpse0XCx7KSTO5aD0Kge5SihPkkLmUQ1elRvAvYj9e35s54BBYz5fcpPeJCTmEbI6aLpkDdp16Y1OszagkkJIf9tEDnAo1wBelT5AoXe1Dq9DWZydEypC+dZP8q/p/CR0a9wC3YetxOF7sUiWOSGgPbtWdLSExYS8OfkzCH48G7fmdcRFbtp6DtbXG4ggEkuE1++/d/9dC8O3oTv4tWjsi2L56EIjcu+Lr5sWhw2SEHZ8Fj4f9BMOPooV3s2aSJybh5o3nFtNRaV+U+FTxUdIIxbFBixH3/nr0W1wB/O+RqA5/LX5fMmmW1fy8E867Dh5Zxcl2674aOp69Jv7M+pWFdLyk6pD2TlhNiq16poPb/50CLvwO6Z/Mxj/uxKDZIkLqn46BO2dhLcJeUPyZxD8mow3p+HO9i14sG8mAg+czHFNcv5yG+F/zsado1tx+7dRiIwRkt82bQSexhjhVrICC+GAD2sWg70+EuGx+aEtihQBfeuhpA1gijqHtZOOInsNG1jZb5/Dyn4Lbv/6DsuekLzM8B8ODR+NAzvXYuuwT3GJWg0VXEmPsXHmZlyPB/9rV7MOxYQ3CHkzCmQQzCIyaK//gvDzBaA9MJMc9y+iTqzOWXvg3GYIx92H8RC7FkF9DzeUK2IPccQT3I/LYz/NZkTkjlZli7CDxYin5zcjJ60ok2NPsrL/hdoDE/IKyU834cyiibnSHpjkc8/2YO+tKPZChaIV64Iqg8mblP2OcUJnNJugnbh1yg5FW9aHo70cIpMe2me38PTobDy7FylkBmxb/4YKVV2gvjwdV3cdF1JTO8DJXujIltoxbi8ehgXAu6oPFHIxkg0JSHx0Ao/3LUNcrEHInYalk1xWHeMy6kyHKIRs7I4n94TZF0nLwKnpAHiVLg5bewXEIq7RfgLUoVcQcmAuoqwKKsvCvfcs+HrLWdnMxrVdR9PXRBcdhoBeTWCPMDz5rTdCgoR0diqwqz8cxT4oB3uu3GGCMf4pIi5tQvCJwy8E875w/Wwe/EqohHkzQ6adDqWQ+X+P4k3qwMlJxYK9JOgjb+LJkTtwbNPp9TrGcW2CZzREMe1NrNlpQuceRXBrxRnY9foYLhd34rJ3SzQtpsO11fMxeGOc8CHApkJDTBpSDxWLOEIhEfHl/vzBFfw+axd2PEr9svXGDcP4Ru6QhJ7E4F47cD1dOVTC9G09UMvJhEe75qHvQssXkMKvfUv80LkK/NzsYMOWb9TFI/LRFfw6aRf2hr0QmNv3xE8b+6Cc4jlOTO2KCf8I6RkqAdeerOx9lcK8meHRNlb2q14qe5s6P6H8R6WQdOVnPIhtAJ8a/rBTsP0+SY3Ee/vxYPsqqIXd3pL3la2AtbnQiVFRDVWGTUX1ysXh4qRgpQWY9BrEhFzA2SUDce5SdLp9VlZ9BtoNagU/T3vYsNtqkz4BEXf/wZEpg3AnPG1ZTkD3g31QUhqEY+0b4ljK5m6Hln8sQDVXMZ7sqoo1C7kLIEfIr76EnXNuw39QB5R0teFvRnQRd/DfrO44eUFYl/rr8c2EBnB55W19LK7Nq43te99OoJXSMe76BjxBE/iUdYecFaaJ7Wvxd3axU91v0LzQ80fk2AZebbrAvZgLy8tOOEaNcL6ZjcjQl9c7p/k5ud9hzxHl5x5Hh6pCu35jOM5ObImbH2xA+1al4ShjZyttBO7sGoY/lx9lZxdOUTRaexL1uZ+F0si8I5sYipqz0Pb7FvBztYNMbIIu+jGu/TYRmnZrUb8I+5sTauCv/8y5UzvG/YL1t+qiQ+tScLaRsONKg/Ar6/HnuBl4zt+XvrDumTCGHcGG7n3xSJjPCa9uYzG2gZcwlxkDgo/+hOlbMrsYZaYfSo3jztHCbCaijrbCnRPmk6Nrz/3s/GT5wH08mDoGuo9noURlH9hw+2fCY4T9MwuPL943Z6m7BLWalGTX5u04s35F6rFfcgIqdq/NQlVuGd8i3aEu84dz0+9QJKAYVCruepWEpNgIRF1ejkfHTrOr16sV+fwn/Ny7HJTPj2Nq14k4JqQTkttyXBMsda6CYs0bw1GZBEOiml2O5FB4VkLx9pPg5pkLnXRsK6JI1eKQm7iOHGqYJHawK9UC/n2mw/l12vun7UzHrXdWR6GqGYp+MQelq5dFIQc5krXsc2otkqV2sPWpi1KfzbHy+95G9J0gdsoTQenTEHYvNFpUBbAgiKUlPb2AqDQBsH3rhfBvVAUO9jLzumiSIC5UBO4NvkeZVi35QCWVkQUi6tSOMNqkVzb5kPiPQplPPkJhZxVERi37njp2ca0An8bV2dbNPcb/HuKJ1gklWrNlK6Lx6FQ4W9OX2dRuixWzW6OGtxMU0EPNtpdebAu3MnUxcGEv9PRO3W1P7r2NpyxIFHn6oa3/C7tzi3Io48DSNA/x7+bUqNCr+2eY/W0DBHgWgpRdFBPZ8pPYdnUrUw8/Lu+FT1/sjyFzhR13P2GMQvBpc1LmWNnrhHLPRtlbyDyao1j1AHZBYfs9FxlJVbAr2wFlOvZICXq5C7hluYYkbqnJLLhI87e4Sa1Bclb79qsouqDFL5vQplFZeDix/V7NgvFEHUxyJZx96+HjadvRoELqfi9rsh79pn2KgCIsAE7WsW2lMZdludbo8vNmlHfK4uqcHfZuqNKnE0o7sxifLV9vksDGxR+NpvyBmi7C8g0a9h63rmqodeYC4AJ3bj51Yp/VZ2dr5C6xcwMUKc9u1AxsP+bOIXJ7OFTogfJ9R6NQmuNf5NILJfp+g2K+rpBLuPMr287JCqiK1WLnm3lwL5r+fJPT/G8OuyHXmstaY2DlK3GAU8P5aNW2NOy4oFxnhFjhgrKd5uHjj4SPsM8kaVK3DZfnVSRVF+LTiZ1R1p0FwMncOUELk50PPvhiCl64109HpGiEjz8pA3u2byayu8lkqRLuH3yJz6Z+J5wzU9ed2z8M/K5jYtspdd349dNoMjxXZYdJr2XLSMxy0urNtwc5o4dRLRz7OuHz3Dmcm08zJXHbRWDSC2l8dkfYNBmDktWKQcql600Q23nDq+UIeDhae+yWgGu36ShdzQ+2KnbLyq2D2sR2Cw+4NRyP8m0aCfkyF3Izgu/rI7GxBbv8EvLG5DgIBgu8ZMErcXF2B1yc1wHnFy9ByHMW0qn84Fm7+Wt3RJG5FIbu1Gicn8114mDLX/YrwuOTIbIPgGetGkIuK6TtTDdvDsJe2T6zEAo1/gxe7uzoUz9E0B/9cX4O+9zc9ji/dAmehCRAExoIdVwGNdPZoL9xGjGJXC1OKTj6pb1QVYFjcXe2UfRIeHiUhUMC90/hWY7rUKZB9HGhbOZ0wdWjd6FPlsKuQle4l0i7nMeI3PyZ8F074vrJB0LtS0Z84fxBFdixK4Ih+BBuLGrPf+bC7BF4HOcCu/QVmq8n6hZuhupQuGgRqBKe4sr5jAbCK4Ru3auhmI0ISaGnMe3TcWjdZjzaf70LV6KN/H7wyaAqqT+RXTyPi8EsaBR5IKCtV7r9r0V9X/AxcFAg9ocKiTZVMahTAJwkegQf+R8+bT0ebdjyW3zyCw4/YevDlt+qX9FM9mMTDFm2aghKV/Y3Tj58Rdmnkrq5I+msZdt2wJUj9/gbJZtiNeFQ2JxHf3Y4rvHLHYbHT7gV0SL63xEpf4uflgxDROoPMjlWYtRwfMDd3GlDcHZWQ8xsHYB5bcpgTvepOPM4EfHBVxH82PKNfFGrW224cvtO0F6s6VAWc9v4Y97AjbifmAyxUzV8OKR9LnROYzd7ov34n7D8mf034oGGXdQVJVHmU+HO+PRX+F87bl0D8OfZKLalgPirs7CIzXNp5qkW9h56+02C5O4qxO7+SjiHfIKLGw8iRiuCxK0a3KsXFXLZwq5OU7jYiZAccwl3lnTABW57/rQAwc/YeUbhi6KNPk9zU5rT/G9SHG6NrcnKtw72X4tn81K4VimNuG0dMbtlAOa2+xJnn7LtJXZAkZqWKDgUJwakbpvlhy0HaEYc4d/9Q3ZOYPFd+Dls71ea7QcBmNOyKfbcsYeni5AtAzJfN2g2m9djHrv5XnsgmD+uCgV8jEp8Dsu6s/c/XYA73OobI3B5euq6cdOCL77FEz5/zoX9ORfDhg3LYhqN+TutqWdejweWY/+k8Pkn+3HJkiZMD06n3hlH/tGJTwt6wgXGheDs74jIPz/Dublc3uUI48pAXBSFyuU8POCIawyED/dLmPY+Hq7qgvPcOsxti/NbzyDRJIaqUie4ZXfHtHGGbynhNSFvQM73ckMonp/dnvLze3LcHoSduwMdO7EovKrgdWMm0/MzCDl2ib+IcZKjNiD08mN2Fy6Bwq0y2HnwzRNXgqOPKyscFnSeno+ngSEptXmmqD0I+aUTrm78CQkskLVK7GFEPWFnGpEznMrWYyVnJireDE6uLGRQP8DzS9eFVHYeKBUAO/bFk6OvIPSEpWy00Pz7G56Fsw0hcYFj6Sp8ao4VqoZCblxVShwiz61K/U5JV/H85FkkWFv9kaFwnLobwS5CbO2fBuF4uDk1HZvyqOKrYmWSgFv7DuLvCPO31d0/gRXHg/nmBI6+/qid8uvlU+y+GMLvf54B1eBvibhYsNuwrAPbhrG4deAcu+QKGpdFKXsxkp9dwvK5NxFh+X4JtzF9eyASkkVw9i4DTyH5bUmOvoqnJy3bNgnaW5cQx8VrIjH331vSDmXLOrMyM+HJwa44cOBJyn5vCFuNA73LYcGXg3A/VkhVfAEfH+7mKxa3tw7DE3azyjHcGo1/Tj3jv4tzyQ54/QrJWNz5cySCheXj4WjcC+I2nBhiSS7UNL9hhkcHEXrpcUpZGu+vQEiguc2jnWeAOVFcDg5FXdherEPMlV8RFW2+wU6OP4iws7f4jpgyj4qwt/waltP8b5UEhTQXceTni+YbQP0FBD/lIitud7biDK5oCF9v7oBPwpMTQ3HN8guZ8R4uz/sLj81fPUPG5xdwdqWwHqxUgtdcxDPupVhixcXvfSSHPPIkHl8XmiAZdiExgttTrT/vOJYowW6DTIg5PxPPnqY2yTHenICnXFM2sQdsX/zVjpB3JOd7YmIIEkKE1wJDZAx/khEp3aAUaq2sZVRHCyesVCadTggO3hKn0lCouIurBpqwu+a0XBWOuOu3oWYBV2qTCClUZcvClr3Wh15AfJqaaqmjI/+TeFJsKPRpg1JTOPSJXFgogURu5Xhj8kKQcH9fG47EsNQ2uZzk+OfQ5/Jo5RdnL0DzxkPR8uu/ESykpVPOBU580BSPZ+fTr8/t4HjzviGVwzHN133wx1XcS0xO1yTCpnkASrNgFzFBOHE89W6lRAknqFiyyL0mpu6zjFMsTIMqohDb7Aq7Qiw8yYgYsjc0rFtS3Avb9p2oDEcnrvziEXM3KutmHNW9wRUxK2REnUjf/jTkWaz5mJUrobLcmFjt5eXnJ0b1U/7GL1UikvQvRG72ZWDD73Radije5JMsksKFcyILICWW/S+n+d8qE+KDT7PbU4sYXB9aEZMb+2H5lL1CWg5I3SHnzgnGKIRfSmkjxkuOvY/EV+waxojbEFq2kkwkhB1Jd319/msLnJ78cUob4pwpBwXffkEMx3qrUGv8X+mmkiW4k4EtZPbZvHnVReHhm7gEEyIwRwx5nNTOzvyTqil77SvzA+P9fxEbwwI3x7Io7G/PtsQHcPRxYxskDlHXdtKTcnIi4jLOP9IgWeSBCp38wHXlal6nOB+gPb9xGgeihXxMnNrAn/C5ToX3Au8hMIPpRmAIu2ynYXiOBO5CK3FG0VrmJEKs5wwbWy46TUay6a3e3r8lydBrXqNNznuG6xi3bNmyLKZFGN25pPCJt8uof1VTlJyK5i7TTBI0IYGIuJ/RdB1xL3Y+fkGRABe+IiLZaICWLobkDcp5EGxbBHZFhNcCWWFHcycDXSSyOveJbbje3TkgrgknX3M7WfXTC5kHhzaFX7sWOkX0HWjVXLhtBzvf6inNFXKV7jAi7obBxD2lqHQDSL0/hKOLBMmxdxF9N30NaFJMDF+TJHXwgjxtrZrYDXJb7udFIzuRZdlYNWMmI5K5r2rjBIW5CjaFqJAr5G+nUWGqGxEw/7JbCO7V0vfYLlu0kHk/S9IjJt3Xjcfvh+4g1iSCW5nKqOpQEXVK20OcHI5b+x/yPw1bRIQlQMvOvxLjc+wdvRwDBrw8DZxyDulaaqgv4hn3XAyxM4pXL2tOyxMkkCoyrrO2zmXERHMXJwe4V62a9XF67jHMI9w5wrl++vUo4s41RWH0GqizrFBygY08948ymYJrLpAH2TWCUzEH9iIR8U8umNPiAqHjazQVULgJTSQEUjcn835v0nF9nsxymj8DUvsSb6d52etK1sPEnaMkDnAslX4/Ezlwna+EmdwiksOG2zy55M12jMuAXPXqEWRyi1JhrpxKJxT6RO4qLYUx7Dfc2zA4g2kowu6+qjrLDuUCPNn/Ac2z+7hlTiTkjch5ECzzgmuNTyAT9n6RfWt4VC/Nn0x14ezEbE5mR34yX2ur8P4IDsK4ZFxe17LpOy+9isi+ETx6DEVRdxYcJtxF+IUrwjtpJDyDjjvRK9xg51Mk9aIndYTE2jOB6TSi7rMAFXI4VP8ePrUqm5sM5KokqG/fRqJRBEWxOnApzzWFSIbm4WHEvXDh0t29iQRWsCKnSvCqX0XYaAoo634Gdze2YsYIxNy5xKfmWPQZxEdwCy8Mt3qDYGcZQ05aEa71arw0esUbp7uOSw/VbN+xg3/LZmgijHll41cfXzUoyu9nMQ9v4VT6+wToDtzEHRaRidx88XHf8nxTiOSnd7D1zAs/O+8/j8vh7GLjWAH95ndEpzLKrPfHpHs4+oAbXUICr4rthQ4179Jz4UIjR6EyHeHokFuXvJ24ciWcryl3a7gEnb78GLavOkNof0FQEFe+DijbaQ6KcW1JGJn/dHxYm7txBaLu/YnglE1gEEau8ILfl3WE/dgWbgO6okR2fx7NhoioRP7coyrZGvWrOeWpQFjk0hnen30Ot0LsNBNxGc+vCD9TmG4gNjiCrbcNHCv1hLNwQyoq1AweNfzZ0c5KL+wq4iw/UeQ0fxrGaOGmunBJ2KW58RUpHa24ILwFibsR9ISL+G3g12IdKlgekigpicpDPoZ3bu3+uhvmphViB/i1mgzXXGpK8mY7xqURF2++/npUg2d5Zz4pV5iM5uYSXpXh5iocTTJ/uFUuy5+PXxR17Tpf8WBXZRhKNWoCWU63j0MDNPbjuj5rEHzlqNUdEgnJjhyPE2wbex9RSSXgZK+BgV2HJUoVJNyZM+kpnmz6EiEPzVc8kfcw+H/WBPZSdiOfpIVBZ2J5pYi/fR/yAH+ouPGFn99GyK7heP6UXc6FcYKlfF6u8bwMMiU3viD7vC4YwTtHIOR2RtXMacbETU5CkoZrPyyBVKnG002WMYCrwavfKHik3N2LhPU2wcgNfcMf4eyafnMubu4/ZZ5RNYbXpwNRrIjSvA6W9WJEMiW74d2RyZi7OVEOHn1noHgRCUwm7nGh4awM+yHkwQuBmzBEWpmq3AgR3LBYaiQlW8onCQmXl+H2rn3mdoCMvPpslGngl1obILGBTME2RJrvAN1DPN40lB9JQOI/Dv6f1OVHiLB8T5GNCqLoR1Db+sJenDvjBK/u/z9sTFfFWhzD132Fj18YJ5gfIm18fXjbsJI36qDWGiFRKPnxfJPjbmLtoLX49bGw0dL4cOIIjGngwr5nMsRSEx7vXYR+856+NLRRuuWz8jRo1NDzi5NCIQ/D3q9/wsKH3Hwqqf+PWLmwNYpL1Qjc/B0GrMj4giWvwcq+flZl/4CVvXkUB8vYv3hxHOHCX6BU386ZjtEs8mHHVw/z8QV2LBk0LMDk0tlVKe7oENw9ZeUFVdEFTZdPQi1v835vKX9+2VIFVE93YHbfH1Nq1/kh0kY04EeIMOc1sWNPCTk7J5iiz2NHv864Hm05xdiiyoKzaF3Jli3bBINaC71YDtukQNx8VhYBfhK2iCg8O/0/rJu0hAVqmY0rDNRadg/NykpfGFdYoPgBnTcPgr8d9w2M0CXq+GODW3/9lbFYNnJjyrGSov44bBzHbrqlT3FkYA9MvSGkvwbLeLzJBu5cyXYwiZztCzK+XE2xt9gmH47w1DsE85Bnn3eDK7feyQZWPuwEy45DGTf+r/YhHm4chGevkT+FY0/49esBV64GlRtOi21fft30V3Br4Vi8cH+ZNdvP0WblSHbjyU7bciWU3LjAOg003DB++ts40rEDXrxFt/3uIL5ubhkZg9s2NlDx4/hqU4a4S/tZSdXF+HxaW36ECBj1bD9Lgoj9LZvEYISJisHLLrNxgl8Yd9htMfr+3hZF9bew/+MWOCckm4lh//VBDOhSkg/uUtdFBLk8FhfG1sLB9B/IY6rC66up8HbnLsjs2qZm1zbu0GNlK2PXq7O/rmbH8ecoMaQduP6SYhtbSNlxyw3pyA+XFnced1bPQILlcLWQfYoS3/eCG9frnZ1r9Oxcw33WePcyEstWhrOIXXcjnyL02FcIvc6VlxL2bVbBv4rwS4zwGR67dkqCNuDcpg3m+Zc44KMJyzCsoSekcZexos+P2JymORshuS3nN/7Jz/Hs0CFExYshs2WBJFgw+/QKHm4emhIAc5IfL8C9vf8iJo6dmNnFR2ZjQsKV9Xh4Sehwwy5+CveiUFhqHg0sSGAXCu5CJbe1hZydhZJinyLi/Hpc/WlAJgEw5yEi9v2KkOBYdsBLIVWxzyrEMCZoIbL1EPLIWBDF0rnl8pMQuLOvL1GmpkvT3rKqjyB0zTe4+c8FREcmwCQW1ovLJ9Yj2cbZ/JPja7mBmPshSBJJ+F7upsibiHkpAOZEI27P97h19BJi4wwQcd+F3VCY4kPw7PhCBO5NDYB5stR15ScWhHEno5Sy5SaVIqX3r/HWDNzZexxRUWokS1gelQ2SY64haMcGxL/i59Q3RXdqF74avgdnH0ezYEsOFdteclMiwgP/xU/fr8swAOb8c/guniexGxypGKKkEFz58+UAmMMv/7v12HnhCaLUSSxos4UtKxNbWymSDCIonV/eskm3fsKSE09hEqlQptMirJnUFWUzqCkSSVkAaCljbsqw7FmAmfMjL53koAW4u3UXwkJjYDCxGyJh2dJkdgwpX+O3XO1mHOpdH79tP4/gcHZzwKJqrvxt2aSSGqCWu7KbByEvY/j7c6weswk3Q+Kg4/Mq2Y1sAsJv7MHmAV3SBMCcRFwaNRhHbzxnARI7f7B9UK55hBPzPkewMI6phB1XXj4lsq6dfxXtAuwYsRhn7z5Hok4EmzTrD3nRjE96zg78TSASohD0QkxtNe6cxgJB7qaZ3+4yI/RRj/Hs36W48vMP6QJgTnLEOjz43zI8efgceqOU36YyEQvEnpzG3d+GvBTQ5jR/ipiNeHzgOKJj2XmMO965z0mSWDAs4n5AyzkRd84wlzEXAHPENkp+3pbbH/iU9EQp7wvbhgXAfDo7TlLTUz9rvPg9/pi7B3efJcAg4s4JCogTHuLUyj/Y2TG3mBC3ohs2/vYfnkRqkMTO+eb1YOdKgxjyF8cPz3MuInT9dDy8/RQadjMq4a6F/H7HbjgldkKtrTwlnQuAOVxAy+dTsu9pTkrPsAmPNu9ERISWXQflLJ8M+qDduLPzvvlazraStHAx2KWMCa5B3O7+7Px7COHPYpBkYp/hls9NEj2MYrsM9wmpYwV8OnkxfmjgCVmyBg/+/oUCYPLG5bwmOKsnsxHyvhJ7oeusRej3QWFzkJacBG1CMI5N64tZZ/kcJJ+qPGQtZrbyhiz0EAZ+NgPpx1sgeZWk4i/ot7AJ3A0PcKRXY5wME94g+UelkVgztT68VEp2E8fmWQAcdGQRRkw7mL5vBiFvwGvWRxFSgJhC8cewrug5ez+uBEdCbRBDwU7citxqk0jeGVcnW752KiHyESLMSSRPE0Pu2x/Nh9aDO5vTPzqFKxQA508yGyi52nZdAiIfnsXW6d/gKwqAyVtCNcGEkAJOjs7zt2JAZVuEHhqIz2ZQPXBeI2+5EX0GVOZHDOBwo6IILSiQnHAPR8d8hJPXzPOEEJJdVBNMCCngAuDtzI0FmIDIR1QPnBcZgzXgxkJLaaOrUyMx+inunlyD9Z9RAEwIsU72a4IJIeS91ABj1v2IWs4RODasH+beFpIJIYS81ygIJoQQQgghBQ41hyCEEEIIIQUOBcGEEEIIIaTAoSCYEEIIIYQUOBQEE0IIIYSQAsfqjnFSrwbo821PNC3nAaUE0D7aiZEDV+O+8D4hhBBCCCF5lXU1wfYfYezcMfi0th9c7G1ha2sLley1nvZPCCGEEELIW2NVEGzfsDkqesiApHCcWfo5mjdujFZfr6BaYEIIIYQQki+8Xpvg+Ef4Z1cwDMIsIYQQQggh+YFVQXDcxWsISWAv7L1Ro5o5jRBCCCGEkPzCuprgkL9xLohFwRJXBDRrCJmQTAghhBBCSH5gZXOIEFx6GAk9JLAvUg6+QiohhBBCCCH5gVVBsNSpJpr4u0LOXht18eBaRhBCCCGEEJJf5Gic4IAvZ+HHhqVR1N0BclESEoLPYeOUifj9HnWNI4QQQggh+UeOaoKdi/mihCcLgJMi8ej2VZw6sA0HgygAJoQQQggh+UvOnxin8ETNDn3Qu0NDlHEW4dm/8/H1uL8QK7xNCCGEEEJIXpfzNsHapzizcToWH38CHaSwdy8Bd+EtQgghhBBC8gMrR4dwR2U/V9ggGbrYUDwTUgkhhBBCCMkPrAuC3RujVvFCQHIs7v97lJpCEEIIIYSQfMW6IdLKVUARFgMj/iFOHaUQmBBCCCGE5C9WBcGF3W3NT4mTKOHowCcRQgghhBCSb0gcHBwmCq+zLTHaBbU/qgz3Qi4I+OhjNGzQHB/XUODSPzcRL+QhhBBCCCEkr7KuTXDI75i16igexRshsfNAiTIlUaJ4cRolghBCCCGE5As5Hyc4HSmcfP3h45CE8MBbCNUIyYQQQgghhORhrxkEE0IIIYQQkv9YOU4wIYQQQggh+RcFwYQQQgghpMChIJgQQgghhBQ4FAQTQgghhJACh4JgQgghhBBS4FAQTAghhBBCChwKggkhhBBCSIFj1TjBJUuWRKlSpbB//34hhbwuZUBbfNnjY9TwLwp7WRwuLOiNiUeShHcJEXgOwvKVTeGli8XTexex85el2HdXJ7xJCCGEkOyyqibY1tYWKpVKmMufHEp8jm9rN4WbSEh4JSXKfDABSwb+hX2Tj+EgN008hHVtGsFGyGE9JWoOWYXNi79Hu9pl4elox8pXCYVMeBsfYsrmv3HkyJE00zbMbC4V3n//fLn8MP89Vw9SCCkkhcQGSnb82Tl7oVSN1hi69A+sGtogF/ZDQgghpGApmM0h/GdhZa8v0K7FaMxv2whyITljSnzYZh0WtGuM0q5KiHSJSExkkyYJcfEX8bp1cCW+XoBxLf1gK05CzJ19WPBlJzRp3BEjD1hqgfXQaoS/maiG3iQk5ztKePpXRuXKAfBSZevOowCRoWTPnhi7dgqW7JiNn/+chnm/fI2ujRxfPkCD56BX46boMnAJ9tyOglFqD7+Pf8ScXsWEDIQQQgjJjgLeJlgMcVYlYN8fXSq7QwotHp4Yhi7TW+KTWdzUAgP/iRUyWUnZA4Nbl4JKZELU2cXoNWAudt+LQvr2Kf9hWq+2aNOmDZvm4lxUfn3KdU18M2ke5s+fgkH1JUIa4QLgij8MxKCOFVDEUQaTOhFqgxiqwiXw4cBv8GWrQnj5lsGIiBt/Yv53X2PBmQiYxPYo13EYPncX3iaEEEJIlqwKgg0Gg/Aqn7o1EeO3bMKu/VPx/Y6j0AvJGfH4oCp8uaYJUZew4ehZxOdiDFrky8bw52pFE65g07g9ubpskk/4NUHL2h4sFNYh6OAqjOoxCUO6zsWv55/DKHZEpQ6tUCmzViGmCOyb9j+cjwJEdmXwYffSwhuEEEIIyYpVQXBMTAyCgoKEufxIg8Dry7Hk1CGEZxF4+tnZ8jVxcaHncC5X+6kp0b6cD7iWvc8v/4kd+fy+glinaNPSKCJn8WzIefy+8j4S+f0xEv/NOYW7WvaycEnUaviKFr8JR7Dl2jP2Qgavso1BlcGEEEJI9lg1OkS+5DcFv/VsALd0YX8Mzm/uhtHXNcL8y+q22YJx1d0Qd20ePt+yC1xckjvaY87OgfigUBzOL+iC4buzEwVzneTGoa5LDM7O6pqm3XBGHNFg8ER82bA03BwVLNg2Qa+OQvDFnZgzcQMC07Yt/nI5DncrjfjzP2HO44/wfasycLFhBZWkRUTgbkwfuRyXzdGZQImAfpMwulUFeDjYQGzSIy7kErZMD0L9pV1QOvYsZnUdCW71PpyyGePqumTwk34a0an5OVzHuG6lxXiw41uc8J2ALuXcoGR3C0naCATuno6Ryy8LwWLONfx2PrqWy6rDXRyubZyKn096odu479DAM6tOiME4OmE6tjwXZnPgo+lT0TFAjohTqzF51h2k7gUOaDNvOFr6yRD2z2JMXRgMo/DOi+zbzsXa76vCIe48fmo/HDuEdEIIIYRkzqqa4HzJqIVGndrBTPfOO5i5oZAtFxpGI+xkrlYxM0o0nbIC49pVhJejnG9nmpioh1jlghL1vsCC5d/AN4Mt7+DWGn3b+sMxWYNEtR4mqQIu5Tpj+uw+cEgTxXKd+WZ/Wg1eLABmkTXfSVBRpCZ6jq4FeyGPhV7LlpWuUx8XjFu2gzBptGmCv1Ti8j+gRyVnvjOimn1YqnBBuc7TMbuPw6uD6ldIsnRsfOWkgc7ARdlG6FM6Jb5qYutv1f5UEh7O5vbR6pinMNh4oEb35vikcxnYiWLxNCKBlRbbmvZuSBksJANxF58hnv0rslHBkYaJIIQQQrLFqppgbng0boqIiBBS8psGGDtoEhq4xGVQE1wbw/qPQR1nc5QokimhkothMqih0acpqtB96PXrEsQJszn3JZYf7obS4gfY0bIfFmerijmbNcEfjMPG2Y3gkRyF80sHYMT253xnO2XAd1gw+xOUVr3weaEmWAwtHuwejcELzTWtJb5diSUdS0Jhuoetrb/EMn4dLesgQvT1/2H097+Za5UdW2Haiu9R25UFdS/U7JplvxbbUhMM7QPsHj0YCy8nsvUvgW9XLkHHkgqY7m1F6y+X5WKt/LtSEp8t/wJ1PRJx5ec5OBYwEN82dIMEOtz5Yyb+8hjAz5vu/oUxw47wgW6Gig7DuvUtUCzpKf4e1wPTzgjphBBCCMmUVTXBxYsXR8OGDYW5940MNkpbfixkfjxkFgBzxDJVSho/KWysro1808o3L8OPf5xwZRPGCAEwR3NzCdafj2DzTihSxfvljR99FVt+Sm1q8GDpeTzmAlyxmG+7zCtfB77O3DcPwbmFG1ObVcTsxdR9t3M1MI29vhNL+ACY8wBLzz/ma0bF4vdzjGSFXCrsU2Kk/YoSqbwA/WRDCCGEvB1WXVtlslf9OJvfHcfUxY3QbHxDfpp0LpwPvGKuzUNbIY2fVs3Daw6QJmABpjJ3w+lK7s78hrWr8i0OpHvIxhFMbeDKB1oqx1Ivb/zoUBzLqmWGixJybgHRIbjER8ipNEExSLBE3LkgMvhQhs0k3j92cCgmx6WFv2P7yas4v/t3rNmQCKnYvF/ER4dnbzxqYzRCLguvCSGEEPJKVMH0zoQjnq9ydYJHvdyt2UzUG/jaU/Wz+wgMDMxwus2m9CFswcB1jFu2bFkW00wMqGfHcpdGt3GLM3j/xWk0Orual58z9xAWxXV3E0Nh5wCJ7hEOz/0Nv/xyDVEmGbxcHcG1GDboEjLtFMexr+qOQtwLowFaeoIyIYQQki0UBL8z5/CUf/CFA4p9UIkPdrLPAc5+mQfO96Lj+SBYGnMWo74ZgAEDXp7GrHlkXRCsN5qbJzi4oIxd+hpspY8jXkjKgBwKx3e32+WtjnHA7cfh4Crf3Up9gGJpN6lNVfgV5RIS8SzwyStqxOUoVaUIHNkrQ/hjXDQnEkIIISQLFAS/MyE4eDeMD0Td/duiVrai4DMIi+GCMzE8ynbi2/2aKeHkpEppo3x93TkEschKXuYTLJ3xBWoUzjIyzb7/zuFRHFsHcQk0nNwDZSx7kGMrjG1ZFpkPPnYX0XzNty1KN/0WlfmRMd6+f1ePw7Bhw7KYJuF/ZxJZ7vv4c+6oDN5/cZqPHZHm5edU8LH7eKpnxVmkGrp9YR43mtueVQfXRwB3RxH7ABcOZT6EHxRV0boMVw1twNObh3DHnEoIIYSQLFgVBHO1X2q1WpjLD7gRH/Zg+4h9wjQKNfnRH+xRsc22lPS17T7G2xxh6vq6E7jH9SRzrYEvBvtnY2NosOPCPb7zmV35vvht727s3r0b+w7uxeoR9VNrk0MWYdqfd6BOVsCzRg/M3HIA+1g+Lu/ufQdxZNNEVMtZ1XMae7HiwF22bMCJrcPSfXvYcvfgr61DUEETjMyf6hyCnw/f4D+nKNEG87fvNa8P99nDWzG9ce42Cck3bh3EnlNhLIS1gU+LAZi/cQLm/TEe/eu4QWKKwZXNO3Cai8czpED1gV+jlgfbc7QP8O+v14V0QgghhGTFqiD43r172L9/vzCXH6Qf8cHWVgXuWRDc15enGwlC/nZHfAhZgdmHg2CEHMVbzsG6Gb1QKYsa0pAVs7H2vyDE6rhxc7n1VkKsT4RRZJdu3R8s/xqfTfoD/90LR6JeDIXlu8tNUIvk8LRqy5s9WP4Dpmy/itBYHSBXwVYphTbkGFb+HvzKJhaaDSMx/Jd/cC88EXqxQih3FVt/EeTur7FC+ZoBVxf8jJ93XENIjAFiFdsP2Z2YLvIB/vlpGVbuNTdteZG4kB/aj16Kcc29WfisR8iJtVjFPTiOEEIIIdlScJ4Yl2c5otWUnzGorrvwQIQkaBPDcXZBb0w8ktVQDXlLkR/XYF1rH4hDDqJfr5l4UBB73r1pnoOwfGVz+CqVkPH3DXo8PfUzRo7ZiSd8BkIIIYRkR0GtfstDYrB33KfoOnEnLjx+LtTaKqHIV6PQKeHZZAQmN+bGHjbhydXNeEQB8JshsYGSq/03JCLqySXsmTsQfSkAJoQQQnLMqprggIAA+Pv7Y9u2bUIKKUjqjFmHkbWcheYXEtjYKlIepqF9vB+Tv5iD068a04sQQggh5B2zqib4/X5YBslKkMYElaWNsVIMfWIiYsICcWbbNHzehwJgQgghhOR9VtUEV6pUCSVLlqSaYEIIIYQQki9Rm2BCCCGEEFLgUBBMCCGEEEIKHKuCYIMh84e4EkIIIYQQktdZ1SZYpVLxU0REhJBCCCGEEEJI/mFVTTD3yGQKgAkhhBBCSH5FbYIJIYQQQkiBY1UQ7OXlhWrVqglzhBBCCCGE5C9WBcGOjo7w8fER5sj7QQJ7pwqoWKQSStrZCGmEEEIIIe8nq4JgemLc+8gVrVrOxNyv5mJk7XJCGiGEEELI+4naBBNCCCGEkAKHgmBCCCGEEFLgWDVOcEBAAPz9/bFt2zYhhbw5Hvi0xy/oU8bOPGt4gv1rf8BF/xn4rmZJOMgAozoMl/+Zhgmnr0FvzgVISqBd81HoXM4HhQvZQJJshC4hHPeu/IbZB/fgqZDNvfpS/NymPISlZ4z7m2s+w4JgbsayPnI8PjEC/Q5d5LNwyrb8HYtreUIfsg9jVszCFS7RYzzWfdMEnnwOIOHGYnQ96oBJnTujiruKrZceUQ+PYe32qfgrlsthWb4IV/ZMx50S36FVWU+oxMkwaqNw7+wijDp8DAn80l4gLYP+C2ehq78Cz08twYCxexAjvEUIIYQQkpZVNcExMTEICgoS5sibZYJOp0ZiYiI0Bna/InWAV/nh+LpuSaiS1FDrTZCoPPFBszH40Vf4iLg4Puu6CN/UKg03OymS1IlI1CRBWsgT5er9iAWdu6CwkNWYpIWaLTtl+WDBps48nzKpNdAZzflzzKSFhl+GDtwi5PaVMaLNp/jARQItW64BcjiX+Ahfte6Vsk5mcnhV+Bot/N0g0Saav6eiMMrUH4XZDcsIeV5QtD6qFreHWCSHW9na+EBIJoQQQgh5kVVBcGhoKM6fPy/MkTcrHH9u7YxPZvXF7w8SAZECxcoUQcj+L/DJjJZoP2c6/ovgguPC8CtRkf+Ec4Xv0a6sPaB7jEPr26LNzJb4ZGYL9NxwFMF6CZzLtsXnRfmsiLg0BJ/NYu9bls/C0pCzY9k8lyZM8/pjmaXqOKfCZ+NrbhlrT7JvwlbTpQL8TccxeWYztk6tMOjwXWgggsqrImqbPyGQwcUjGaeE9W8/vS9+vZPAvr8S3qXbIMOue4+2YsvJB4iODcGlA1twXEgmhBBCCHkRtQnOd+SwjT+LFafvm5s+6K4jMJILXll8KJay/zuiZunicEASwi4tx5z7loYDRkQELsO++/EsvnSBT1EXIf3tEtsAD8/Nxr86bs6I+3cf800WRGIJJFxSimQk3NuFRZb1Nz3CwcBH5mYQLC/3TV8WgyMz+6HjJz0xdNVlFs4TQgghhGTMqiBYpVLBxeXdBFEkCTHPLuGuMAeEYdOGVmg2vqnQPtcFpRwLsX+l8Kw1HQcnH0szbcGX/tx7EtgV8uY+/PbpnuL2Qz4CNgubjF7jG6LZrO+xU0gyMyA6Sgj0CSGEEEJymVVBcPHixdGwYUNhjrxdXBvheOF1RgzQJCWxf42IfXoXgfcDM5zuPH1szv62mXSIN1dcE0IIIYS8M1YFwfSwjLwsFsEJGvavCKZnuzBk3ZcY+NL0HWZfjzBnf4kYNjZcbXFOKeEip/2CEEIIIfkDtQl+78Tgn4vXEZ4shlOF/ljUsgvKZuspyLF4kqhl/0rhUroDehTO7EMmGEzcKBJyeJT4GDWExrkyt8/QsVT68R0IIYQQQvIqq8YJrlSpEkqWLEnjBL8Ndl0xvU8v+KvYHYtcBSU3LrBODS3X4kFzFSsXj8R+c8407FCv5UqMrFWEhapMsgEatZ6Fr2yDyxQQh/yJQWuW4BH3XhoS96H4uX8bFOc+lOYzYrkU4f8NRf+/r/L5nCvOw7KO1eAs4rJpoDawkFhhQtDtUHgGlILKqEFM6CVs+3MULlVdg9lV3dkflkKh4sYrtizXgJAz4/DdP+Zlpsp8HGLLmMbytOMQp+OP7/83H22L2yDmzEx0GHVQSCeEEEIISY9qgvM6kQ0USlvY2tqyAJhFnRBBYmOet1UqzEHuSxJwcl9vfLdlDy4FR0OTJIWSy88tQ5IEvdgWGXVrND5bgNGbNuPcC59RIAlim9Ra3qirEzD38GU8TWTRr0wJlVSDh6eX4ef7OnB3VCKJEk4exVBEyQJr9j6/rlwAzH1YJBOWq4JClvEYD9azh5MtV4OtRVToE3MSIYQQQkgG6Ilx5P1RvB9+XtIdZZRRODW9E8b8LaQTQgghhLzAqprgmzdvUgBM8h4HF9hxVePaKIS8o8EvCCGEEJI/UHMI8t6Q2tvBRgoka54jMHUgZUIIIYSQl1AQTN4bRcsUhor9q40KAVUEE0IIIeRVrAqCuZEhWrRoIcwRkjeobMUwJCYiOvRmmifqEUIIIYS8jIZII4QQQgghBQ41hyCEEEIIIQUOBcGEEEIIIaTAoSCYEEIIIYQUOFYFwQaDQXhFCCGEEEJI/mNVEBwSEoLz588Lc4QQQgghhOQvVo0OQQghhBBCSH5GQTAh76uPpmPb6FpwEmZ5EScxpst4nBJm3ytlv8Oq+R3gZwrEpoEDsOqhkE4IIYRkwKrmEC4uLggICBDmyNsi8/gAXpUbwL2IPURCGnk7pK6V4cnK3sPbOVfL3q1OTwybsQhLly3DkkXTMKRzJdjl1h8w6KBJTEQiN2n0MAnJ+Y3M2Q8VKldGeV8nSIU0Qggh5HVZFQS7ubnB399fmCNvS9GvV6Dv/PXoNrgTBQNvmXufpejNyr77kD6wFdJeW/FO+KJrbfgW0iHs3kNEGBzh16g3vmyRS4H2sUn4rE0btOGmBRcRKyTnN37dR2LW/PmYObwTiglphBBCyOuyKgiWyWTCK0KItZzKF4cHO5TCz6zCjPlzMH3rJUSbbOBTthbshDyEEEIIeTOsCoIJIa/Pw8GWPwC16nAksX/1sRrok9lNplwpHJgqVOk2AD3rUPMXQgghJLdZ1TGuUqVKKFmyJLZt2yak5BOKaqgybAqqV/aFi6MCUhZZmPQaxIRcxNml3+HcxWikLQxZ9RloN6gV/DztYcOiEpM+ARF3/8HRqYMQ+CxtC8tx6H7wC5SUPsbxDg3wT4yQjLZo+ftCVHMT48nualizIEJIF/KrL2Hn3NvwH9gBJV1tWOBjhC7yDv6b2R0nLwjrUn8dvpnQEC6vvF2Jw7X5tbF9T6IwnwOiNhi6tAVKCLOZijqHFWPX4Iowm2M2FVD+++moVb0kXJ2UkLGyTzZoERN6FRdWf49T/4amK3tphXFoPaQjShdxgEIiYnkTEfngPxyf9S2uP9ILuTjfotPuYQiwDcPpr2vh4B0hGY3QZN1K1C0mQ9jhT7By+iUhXciPm/hr7ikU+7I7ynooIRGZoI9+gLOLP8fRY8K6VF2KfjNaweuVP3wkIHD1x/hjY7AwnwN1v8Ls7pWgir2KHWuPQ/FxL7QoWwiRZ5di1iFndOjZFrW8baF/fATL5m3F3dcZntvSSS4bHeNU5Xti9PdtUKmoM2zlYiQnaREbdgtHVk/FkuPRQi5OWXy3aj46+CXi1MJViGrWD03KukAhTkZSYjhu7JmJUSuuQCvk5qmq4+spg/BxOU/Ys2Wb9LF4cnYDfo1ojqHt/ZBwcgy6jGdrZ+nkphA+lyE1AjcNxABLD7g0HeM2L7kC/z6t4e+igpTdYiSG38CemaOw4kq6tUkhq/QdfprSHqVkT3Fs7jeY/He88A4hhJD3VcGpCVZ0RotfNqFNI394OMmRrFEjMVELk0wJZ9+6+HjqDjSsKBcys4ti43XoN+1TBBRhAXCyDupEDZKkdnAr1xqdl21GBadcqJuzd0OV3p1Q2hnQsuXrTRLYFPZHoymbUctVWD4L0rWJ3LqqodaZA28ucOfm0056rgrRKga2fKHz1KsmjZ6vrbSKTQs0+XkLPmleAV7OLKrRmss+SaqAk08NfDRuC5rWsxcyswC49s/oNbsvKno7QsHWT819P7EKLmWa4pOFf6Kat0TI+RpsXRHQsxsC3CTQqdXQGUWQO5VEvVGb0KCMsPyktGVv5ANjLnDn1ie17DXQsfes8u92HL4Vh2THiujw/XdoyQJgU9RlnH5eD8OHdUPtomKEnd+EqbNfMwDOAVmlQVg4szfqlHCBSqxn3y8RWpMcjkWroMOYJZjQpJCQMy0VfNr2QhN/R0CTCA3bF6W27qjUZRJmdvcS8jCyShi0cAI6VynCAmC2a6tZXqMSxep9ht5VnZHuXiNJl7pfapPMZc+C8XT7JCt/bYZlb4uqn7VFeScx27Zc7boUtu6V0GXSTKRdnbT86leCt50YIhsvBNSjTr+EEFIQWBUEx8TEICLCUquZP/iOHIEPPNllVhuCs7MbYmbrAMxrUxZzekzBmceJiA+5iidBlkijOGp9WgeuUhYiBu3Dmg5lMbeNP+Z9txH3EpIhdqqGhkM/yYXOaUXgLvorZfkz+23AAw273Cv8ULobi4w5Z77G/9px6xqAbWei+B7+8VfnYDGb59LMUy3sPag258+p5L+wZNgwDMtqmrYBN4SP5FSRwWNRo7gCIv0zXFraErNbCWXfbSRO3otDwtNbeHLPUovthSrdG8LLRoSk0H+w6VN/VjYs/9crcSvaBJF9edQd9AWUQm7rucJDfjpl+bN6LcftOFa6cm+Ual/enOXqUPzWwVzGm46G8TcBibdXYXlKuXNTdezY9tScP8fCcXDJeIxjNwgHDh7E3j+34b+oEmjRqhIK6x/h6KoJmPq/E4hM+6PDG+WDXl81Q0kVkHBnG35s25LvVNeqTR/8fPY5kmSeqN6pG3yF3KmU8HSLx94f26Iln38Idj7Qgm0s+NVtDm8hl6xxVzTwU0FkjMTF1f3QunUbtGnVBn1+vg0bLyeku7W5twoDO5s79Q3bFwQdS9Lc345Blo5+/NQFP6x/bM6flqoIPBL2CuvfCm2G7IR5dfxQt7llbdK7/cd2nH4Ug+jgc9i/+YKQSggh5H1mVRAcFBSEY8eOCXP5QVv4l3VmX9aEJ4c+xYG/nqT89G4I+wUHepfDgv4DcT9WSFV8AR8frl4qDre3DcOTeHO64fZo/HM6DFzdk7PfJyiSWnFspTjc2T4yZfl4NAZ3g7iliyHm2mq8FxqhbDk3yFiJhx0fjD3bbvHlx0l6/juOfFkR8/v0w60wIdWmK3x9WaCEBNzfNxZ3I8zpSfdn4Njxx+AaQjj4NkPx1IpjKyXg4V8TcE9YPkJn4TYXKbG/LJa8zR9I9Ii5dhSnwguhfNP2qF/SFol3j2LL3uvQ+zZEg3KuULytXaHIh6hcjEXAuoc4tHApUloOGJ5gy+qjeKhh8aV7KQS8VBmcjIjLG1KbGhiu4MDlEL4ZhEgsTQlua9T0hQP7Lvon/2HNxkfCLwsGPNnyMw7ds/ImLkNRuLZpRcr6G64cwOUQYdtKM/kV4fk+TO7bAR0/H4l1t6z+zYMQQkg+UkCaQ1SCozP3VRMQczcyJQDOVHVv2PMlE4Pok+nb2YaGxZk/L1fB9rV/lX95+e+fADg5czcUiYh9FJx12ZcrCXv+d/EERJ9P3842PDjWHDhJFVC+sq1odry8/HdCXgT1+4zDqB614SOPwOWdf+JGoXro2rUNmjdrha7fTsDkwS1R9LX3tWwo7oPCXLnalMAny47gyJE008ouKMVVv8sLwcuFz52GBlFPgrNsLqNUyPmAOC749Au/KgThUQxX15tL1BF49JgCWUIIIa9mVRDMDZGmUqmEOZKvcR3jli3DsqymqX3YrQTJXRXx2egR+LS6O0xh57Fp6hSccGmAGh4SxNzai5XLtuDiMyPsStdHq+qvHfVnTauDgWt6oY9C0J1ABAZmNN1BYP5qCUUIIYRkyKoguFSpUmjRooUwlx9cQUwUd3W3h3vVD7L+0uceg2seCjjCqV76RyN4eQjDVenVSLT8rp8pF8jluf9btkxROBeHzHrTHeNuIjqKa2ttB9fytZFlC5Ib9xDHN822g1O1onyShVtRB3M77CQtNJaf6jPlBBtuSI9cJrVxTN929bVcxcmrd3Hn6CpMmPo/nIg0wasw1zY2HNd3/4XL149i24UnbAs5wKmIjfCZ16QsjLIZN4sFwsIQx7U3kehwb+1ADBgw4OVpyAIct3LgBKPJxP8SoHIt/0K7Yh8Ud8z6+0lt7EC33oQQQnKL1TXB+csuXL76jG+L6tZgMTp/2QK2r/rm2l8QxHeSs0fZjnNQrJA55JSVnY4Pa3nwQVDU/e0ISRmpKwns+s54okS/ekKh2sJtQFf4cY0gc0lkVII5iCjZGvWqO+VOIPzGO8YdxbWLIXxbXuea49F5cCc4vGr30f2Bhw/V7Hvawa/lVJRyMYecUr9RaNjAmw+iYx8exKM4Ppnhyp4rFRcU79pOCLKVKNyrN0oVzr1wNeZ5Ar//KIo3Ru3GXrl2E/Loz5+wcMsVJAjtREz8jqREIe4pGox5LGETTMYsG5K8Wtgz8C0OVB4oV8MrtVOnyglOlkrmkJ04EhiLZIknGgxdgCEtfJGb9c+XLgYhjn0NVclm+LZ7cWEdZCjWeQCacr3xMhEWFs9uBLiWI9Xxads0604IIYS8htyvKsujQufPx9nHLLgSO6JMt58x5EAghu6+iSFsGrr/Acb/b0GaC/4jnN70H54nsUu0T0v0+fM2y3sLQ5Z0R0k7EUzR53Fs7vY0NaOLcftmIgvcZCjacj1G7GHL3XcFX7dIQtADcy6vZgfRb+LArGtCXyFu5Q7c4aIlhQ/qzTqP4WnWf9DMHnk2OAhfPgun78bDJCoEv3ZzMXjfnTRlfx/jflsJVyEv21K4tPEYQnXJkHp9iE833TLnXf4l/J3ESI67jn8X/wKNkBtYj1s3YliYKIVHo4UYspfl3XsV33RRIuS+OZdr/TXoP2MEu6WxXuLGTbjNDdMgL4IaY0+at7Gw/t8vGJhrj1K+fOsB4pMdUKHzKIwYPh59arlDonuMOxdfs+349QO4FKwFRE6oOmAtdu3ejd279+Hg7hX4oYqQBzH4c9ZanGE7vsy5HFoN+wV7/trD8nF59+KvwzuwsKubkDfnYnb/iqP32TEoKYyq/VZjzx623L27sebrklCHZl69HLNzBy6EcQejB+p8v978OW6d9h3ErqV9UkafeC0fjMD6A1z7582YXFtII4QQ8l4rMEEwtFtwqHcD/Lb9PJ6Eq6EX2UBlq4Itm1RSA9RyF3inqfYyHOmF1WM24WZIHHR8XiWkSQkIv7EHW77pgmvRaWvmEnF59GAcvfEcmiQxZCoF5JpHODm/F54Io65JbJzh5V3i9QpcuxA7hi/C2TvPkagTwSbN+kNeNO9uTN1+/PNVfazddAqPniVAx24WUsveCI3ECZ5pOlslnRqAdcP/h6uPY6AV8spNakQEHsL27zvg/OO07VA0uDXpWxy6+BSJrBhkSiXk+hCcXdYPd9XmbSSxcYRnMT+8VoMC3VrsGzkL/918hgQWoMtUqesPGTf6Re6I/nslfvvnAeLEzvAp7gYbdQjObFmOnem+szVuY8XsX3H6SRw/bq7C1ha2SjH08TqI3dMEts93YnSfH7Hy8HWExHLjaHPfk+W1VUCsN0Lq6CBktILhChaPWYDdV0L4ZhdylS2UEg0eHf4ZO0Jf0djGcBwzRsznPxerNbGy59aHTXITkqUOr3Vzk8LJAbbcRlRH4kmYOYkQQsj7rWA9MY4Qkgd9gBHrp6N50WQ82j0EfRdYOyK19cp+twrzO7AbpfBjGN1tEs4I6YQQQt5fVlUeGgxC9SYhhLwOVSm0HfMt6heRAbpgXNr/9gNgTmFnO742Xx35GNY++oQQQkj+YlVNMNcxjpvU6twc4J4Q8n5riAm/DUU1S4sKiQ1UCqm5k2FyAu7umoahi87AysEnXoMMLWf9gaHVHRB+bDS6TaJ6YEIIKQisrgmmAPj90qhRI0ycOBHt27cXUgjJbQnQmuRCG2NbKMV6qBOjEXrrJDZO/BrfvpMAmOOHEs5chwA1Ih9TPTAhhBQUVtUEk/fPmDFjYGdnx78eN24ckpJe0VGJkPdKdQz7ZQwauMXg1OTemH5OSCaEEPJesyoI9vHxQfHixXHs2DEhheR3XE1ww4YNcfnyZezYsUNIJYQQQgh5P9HoEIQQQgghpMApOOMEE0IIIYQQIqAgmBBCCCGEFDgUBBNCCCGEkALHqjbBAQEB8Pf3pzbBr+1LLD/cDaVfuhWJxtlZXTHygGWEhg8xZfM41HXhR1RN58GOlui3WCvMEUJyrN1c7BpcFeaxUdJIuIE1Xw3ErzRqGnlRj8XY90V5pHnSvlncZSzt9SO2xQrzhJA8zaqa4PDwcNy6dUuYy58kvt3gXqMRpC/Hle9AErSJiUhMmTTQpnsonx5aTdr31dCbhLcKNBFKTb+M8UcepZsGTussvE/yNJEjVJW+gIt/SfMDM941ow7qtMehWgOdUXgvA3LfpujzdTfUdpUIKSS/qjVmAw4eOYId8zvC8iyXV9Jr0+8rGgNorFFC8h+rguCIiAjcvHlTmMuHykxE+c96w/fjYSjbsl7uXYBl7rDxqgiluxfEOVroY/zVuQ3atLFMn2HikbTj9P6Hab3apnl/Ls5F0SmXY9Rq+JsCblLn5M5A5Qv3yg3g5e/LPy6XvG1yKJvPR4V2nVGy41R4V7AR0l+fyNYPSnYcKpwKCSnZFP4vRqQcY2zqNhybw4X3XlT4M8xZNBI9u3yJCbMGo1yuxcF2KFquMipXLgN3uZD0LtQagw0Hj+DIkXUYVkRIy3cUcCtTiZVlORQrlMst/7YMR6e0+8rGQOiEtwgh+UcBbxMshihn0eqrFf0CpfrORqVu36CQVEgjb1AyHkyujXltAthUDjsvxgnpWRPVmYGu89ej35Tp8BHSyDsikrDjUHidC6S1RqJSv9ko36ylkPJmicVs/YXXr68Jvp8xH/Pnj0f/UkISsVJl9B8/h5XlNPzQLIc3RISQAsGqS4+DgwP/wIx8K3Ambm/7Aw//moVbe07Qz1iEvHV6aA6Oxc0DO3Fv6ygEXcln9WiRv2HMxBXYtm0lJgybj+uvaDZBCCEkb7IqCC5SpAiqVasmzOVHWuhursGzs0eRRBEwIe+GKRTxZ35GxK17+fJGNOHiZixd+jtOPacImBBC8qOC88Q439Eo36MB7NKF/TF4urU3gm6+OLpCHRT9ZiyKugTj0Zp9kDbpDk9ve0hggjEhFGF/j8WTK2Ev5H31/YTm2kJc2/4XW0JaltEhHmBHy37I/iAPqaNFvPboEKKuaLt1Fio7CfNRp7Dx88Vwm7kMDQKcIBeboI+8h//md8DxUwlCJsa5IxpNHI6KJV3goJCwgEYPdWQIbm4fjH2/XxUypZKV/wof9u6J0mVc4Whrw8rSgi3/xlrMHDjZPJuyPtG4PLUKdh0xJ3P3a/VXPUAjPyD61DD8NGaLkG7BdZK7hE9rOWbyPvPid81Epp/PUjn0nvItahQWZjOjuY998+ZhT6gwnwOyJqvwQV0vxJ9bhMeGdihR3RdKGdv3khIRd2sL7u/+Hbq0zckZkcPH8Gj1KdyLuUBhw0reqIMu8iGenZyL0OvBQi4V7NquRPnKjiwwnYQbB24I84WhvbYUl7fvgbTGAlT62B+Sp4dwbdU8aIRP5oR5/YsJcwLdddyZNRRRwmwKRTsUHzAAHvKbuLfxMuxatIObhy3bE4xIinmIkP2j8PRuvDmvw/fwH/xxFp2atAjf2x4PLgizFpbRIZ4ewcAeU3FDSH5ZO8zdNRhVXxhG4umRgegx9eVPVR7C9utW3og+NgO/6TqiT8NScLYRIdmQgLCrf2LymLUI1Jvztpu7C4NfXPCLXlo/OXybfoX+nWvDv0hh2Ctlqc0ykg0I+msw+sy5LSTkENcmeHITeEqfYH/PXpgTIqS/kj1qDRiHAU0C4OGkhExkgkETjZAr+7B48hpcTnuasiz/2SGM/1OGXj3roISjHCKTAfFPL+L3sWOxKSj9zYV9kx8x44vGKOmuYss2Qhf1EP+s2AJZ72Fo7Pk0ZT25Tm6Tm3jilS3SXhjFwfIZ9eUVWB7aGP0bl4ATO6+ZDPF4evF3jB27CS+sTnqW0SKyHB2iGHotXIQeFQsh7twyfDFiO2ggCULeHatqgvMlduFPUidCn8hNaiRlqw+VIxyadEaRogqY2OcMSWJI7IqiSJvZKOpn6bVigFErLFetM9dosYDQwP+d1Mmgz6u9h3UwqLmOZRrziBOOLijxwwI0Lm+PZI2aBVRiyAuXxocj17EQT6D6HG1XzEH98u5wkBuh5jqm6SVQufqi2peb8dmXJYWMglKL0XP+KNSuWhSFbWUw8n/PMmmhNQiRwBtn+a5sUuvNNyRc8J6yLtyUCK3W2p/mjdCnG8Ujk4ntJ683uocESo/2KFq7BORGtt24nulSW9hX+Bxl27RJ3z61UEf49B4En5LuUEiTzPtjkhQ2bmXh3X4efD9wEzKybc32AbDQQWHPNXVSwsbOlv0rgsyxOLhua6JCdnwnQlNcsFUBMM/A1pdbB25i5ZCtYpC6oXDT1vBwlbJYPxFJRgmkjiXh03EO3D2EPMns+LYs1zKkQ1Kav8VPahhfuEHIGQO07Bxi2Y4aQ/aOaDu/rvjsw1IoZGL7F9tWkNnB84OemD7tE1julwxa877HHYfmxbIgL83f4ieNlqWm8vx8DhaO/AS1SnqwG1EW4qfNq9ZCb3ibNdQKNBi7DJM6f4BizmxvYefExER2HCkKo3itnpix7EdUzKijn30Z9O5WD7623HmEfXeRDIWK1MQXc6ageZp7AkWDsVg2vDX8PVgAbNKxZWthKuSH5v0/Q0n79L0SDXxnWe7vs32aLwIuGE9TNnz5aKDLaPM5NkGfZn6wS9by20okK4QiNb/AnCnNXx5CzyoN8EFpR3aUSeBcqg4a2gvJhJB3ouAEwY/n4fb8jrg4j5vmIiwqO5dfezjaB+HOova4wD53Yc4MBEewz4nZRblCAyHYOIen/+tsXu62M0jkFht/FfcWW/6Webq59++8GQQn78D+ngGY13YibnJVEmJXlC2nxcmBlTCrTQBmfbsXodx3KuQL33rcB0TwHjEIlQuLYYo4i62dS2Mu1zGtZWWs3PkAWnYxLNFsClLDYBG8Pq2Foly1TNQFbO1YAjNbs/x8ZzbztPDHmeasb5rlu7K/OX/hRfDd6GIuYEeadeE62K2asovPnnO3sXH6MAwblsU0bgkOWn5IsJK0iAt0hwbi/Gy2f83phGunglmAJIayZH1262bBAuMmHeHhIIYx7BhuzG1n3h9n92D5HyNJ7ADXar2gEnKbnkey7ce2mJgFFSIHyG3l0MTEQmTrDDkKQeXAdS5KYmkP+PzWMBwflHpcrDoKoR731SQusJdeSln/84tX4xn3QTm7qapQ2Zwn7mfcFZZ77by5ij3p/u+pf4ufuiPoCv+WlfZhbLfUEQFWXksU0l/Nlm2ryK3foE0r9jk2jfrrMfTsuHAq/SGaCfcg+8Z2E5a7EubFhuPfEal/i5/6zWV7mEVxtKvLAmt2Ekq4vQkDWjRHq7R527TDVwvvCnnfgvLfoW99LxagxuDKL1+gJfdd27RCuwEbcT3OBJviDdC7TQb19IWKwjl0Hb5o2cqcf9I/eMpuVMQuZfFRY0uEqECnTrXhxe7ADE9PYPanXN42aNVuADaGOaCobfpuiRfm9cMnfBlMxclw7q4nATf+9xn/mZSp+xjsyaAfrb23C0LXCevfqh0m/fOU7fFiuJT9CCmr81q2YeuRu4iMeYZrf2/Cwez35SWEvAEFJwi2igkxVxciOl4ImA3HEP0owhzMiqRCEPy+cYQhcCr+uSE0fbh3HOH873UiiLmaHFE9BJRyYS8ScPO3LrgZzb3HiUfY4sW4FcleOheDd1FzajpKVxSpUx32SmGeWM30/BzCTlva0uqgPnudbRFGLE7dL2XV4FjUGTA+x9MjMxBvqeBOjkHiiZ2IYNtV7OQNW6GKyxQVC254arGjN1SKqlAUMiDx4X3obR0hl0ogZhMfBEec4/O/PRpEXpifuv7xhxD9xBw9iMR5f4C75LDzWL0mkAW+HD3OHryGMG5GJAZfpK9J7uiL6pV84JALy7JW6aYB8GSbIvHWdkzZEJRSY629sxrrTnOBpD08yvuxm6kXmEJw6qfUpgba4wdx8zkXuIohkVn25I9R0Zt7LIUG9w7/hL+4igiO9g5WrzyJ4HRjqr+mp+ewZJNl/bU4fvAmzKsjQcrqvBa2zLlfoXOHTzF46UX+ppMQ8u5YFQTHxMTwYwW//+KgDS9ot+qJeH79sPCaSf4DuzoWx+TGlva59eHE4ipuPNPy36d/SMX4vxeiCv/7ri3sSnP/cpIRumY7bsWwy4rSG7WHbMH3e+9j+J9n0HvuWlRvaPk5nuSEKeYx1MLrTCnKsECW/StxRdHuf6HW+DTT8IHw4CrmxHaQ8duTbam4BBi5qJobskxeFApFNNT3w6GTOkNRTAUbe7YwYwx0LzXefcOSYqB9ns9Gj0gjMSoIzyxRYa55hC27zyJEmwy5Ry30nbUG2//aj52/r8Giqd+iVYm3O8hwgKcz3wbXtlwfbD3CjS+cOs1pVoR/T+Xgi5fufxMi8SBSCGozZQuFnItAI/Do4AvXnetPEZeLZRv3/A4sMTYh5P1nVRAcFBSEY8eOCXPk/aKHPqV2NyNxSOJrXtQIv3cX9wMzmm4i9A6f2ezJDGzpUAkLZ67E+YuPEB6TBJmjO7yrfogWE/7DN1M+e08eWMF1jFuGZcuymOYNQWsv4SNvkkkDE1eLZYpH3MNARNzPYHoQCLUlqNU/hjaBnRQcXKD08YCNMRq6xw+hUTvCxrUU5FxlnDEe+ufm7OTditwzET3bd8XoFX/hbGAwIrVi2Ln5oEKdjhiy4ncs7OWbpgPqm6UW+jxonj/AncBABGYw3Q68bX1bckIIeQOoOcSbIFNA8n62lWCuIJ5vyClF3KlPsGFA0wymHjhvGXQgRQLiDk7HvqEfYnmHMpjWuhHW7X/EQm4pXGr3QtYD7pWEPJuVWw6FKwivskGuTGkT+/reVse4bGJBrZ6LOti+qL46HPc2DH55+n0mYiyDfuiuQce9FtlA6ukEWWw4C4rPQRsvhdK1PLiWB8m6WOgt+fM4kdyOr4HMn2SszLOxZ+ojcPqP2Rg54HN0btMcLbr8gI1XY2CSOKJC024oI2R70x5FxvNNCKTxVzHj2wEYMODlaeSKG0KTkJwywsS3+3GAZ60X2hWX98QL/eIyIION/ftxm00IyV1WBcEymQwqVe6FDu+NyGhzz25VSbjWq5rDRyfnE8kncPrCE5ggR8lOh9C2d6OXf+LMDvVDPA9T821QubaRqdcxHZL5ANEJPk1Ta4hVbafB/5WPb01G0LMY/pXYswqqpBkGTebk9lJNc3JgpLk5gV1ZVB5UK5dqot9ex7hsMZzC83uhSBYVgvtHi1CkSrlX1wwmJ8CoY1tEbA9bF1skxz5hZZQIbUwiFE5loSzENcMIy/PtGJPjE/j9SlK0LtxL5bcnhUUhNoGrvi+Mcp26o0wOWzXoI+7jSbx55BMR16zFnPwCO1TqOgzTZ4zFVx/75sqNwp2Np/CA7RiyEi0wc/YA1PfIzTroo7jxmNvr7FGuw4/42DIcpaI0+n1ZD0UzPXgfIjKBKwklSjToh3pOVOdDCEnPqrNCqVKl0KJFC2EuP6gOz75bUHXINmEaCg9n7qvbw63VhpT0gFZNXq+zW9wahN9JYOGYAk71pqPacOHvDd2JmoMm581HKTdYg/67b2LIrokI4CtZHBDwI5vn0haN57O8KGbeQBy7zy5KSk9U/nwNhh0MNOdn04iDj/DV2LpCTg43fu9ljD/yACP3CMtl09C/HmBonwBwg3Bp7/6Ha+bMLILZiSvXwvmLuFPNqRi2j+Xfcwc/DvJA2A1z+2yHD8bjqwVT4cnPpdL/eQaPuKqmQhXQ5g9hnfbdx6hVi15+NPKTUbjCjw+tQPH2v5v/Dpef/a2xm3+DrzlXPqeH5vBSBAXrILItjmJt5qH66O0p+3u1MbtR5sO0w9npoFdrWPToAHuPQtAnhLF9OR6a2ARIvYrx28rE0qxunWs/AKWEv81P/RuBD1HlZeCbkr4RPpX43FZLurwXz7nRX2ReKPbp76g2VFj2iL34oHMnIVfOtZz6O3bv3p0yfVmBKxHAre6s1PTVQ1GWT7XWCfx+8iHUySLYB3THst17hWXvxYFDv2FUgJANlTFk7V848vcB7LX8bTbtP7QTI+q6scBWj+Drf7MwMAPu9dC4ui8cHbxQsd6HqUMfZsgLjZenLj/9tBHTWgtDJjxbhel/XEecyQbuVTtj0sa/sN+Sb+8B/L15OhpZXW/yDL9u+g+h7M5G5lkfwzeZy2Tvzp/RzTkaIZlWLz/D2r+uIpbtCjY+zTB5s6Us97By+hNz2r6L8cnc8fUKtt2OHMGO+R2zGNeaEPKmWV0TnL/IIFHYQm5rmVSQ8t9cDIkyNV0mTzPYvFW0iN4xGnfO3kVCIgs8bIRlq6QwQg7umQZ5jUiuhJKVh62tEnKhTOQqbl4FlTKzOt7LONG/ITZsPY2g5xroxTZ8fm6SmTQQKUoI+Tgi2MqSoWYXKsty+WWLDUiMeYbAg9Ox/odxaQaMT8bjyf2x93Qw4vUmSBUq2Bif4erq73CFH3+OraG8ENyL+fFBWTpPRmLfutMIidPDJDWvk1KsR6JRxI9zm14czg3vg33HHyKSrZyY/R1+3VQS9n0U7PboPZF0AWFrB+DmsQuIjtbAKGHbWdjfxUlatv3TdkyMRWI02xIiBWxsRdBEcrcmJiRFREKvULDAKgnauCBzVmtwzSyEv20+LmzMJyCRDLKUdBUkr3uzqD+MJ78uRtC9Z+CGfJaqhGVLk2CUOrw8QkE2yfh9xDZlUgrDBUhs0qQrFa/dDvfusiEYv/EMgiITkSRVCstWcPc0UBax7Jn2UIh00Jmk7PhNXSdpkgZx4XdwYt0kDJl9KuPOkxHXcftxHEwmLcLuXMc9ITljErYvpC4//cSOL5vUM+aTdYPw+djfcCIwDAms3FM+xw0bnCyD28sHYbZpj0/FqGWHcJv79Yg/3yggjg/Ezvn/8EFuZrTbx2PE8sPscwns5o37nHm92a4Aucvb7Txo5ovCwhObYp+epgdlEPKOFZwnxuVJlifGseCCBc2pnZxjcWFBb0w8wv0syqmDMetGopaz5YIjgkyp4oPW135iHCEFneWJcUYd1NokvoMXL/EWfh00HJvDhXmS9zSbii3D66Cwjm2rXt9izdsatKjzbGz93D/15losh4p7Yl+WT4zrgcX7vkB5RQwuLOyNYbtooGBC3qU8WDdZEEmhSKld4SYlFOkq2+VQKNO+bw6ACSG5SGIDVdrjUKUE95RpkjfZV/gU03tVR2F2Lkx8cBo73+aonXJF+n0l7SOrX6W0G+y4fcoUi6fnKQAm5F2jmmBCCCF5W7qaV5G5mZRwg2KKuY7fRg/F2tvWjT3xVtUbj00TPoR7/AUs7D0MVBFMyLtlVX2iwcD36SeEEELevFg9klN+DeMaGSciMTIYV4+uwsgvvs8fATDHx4V/sp8p9imoIpiQd8+qmmCuYxw3qdVZPrOKEEIIIUzxr5difitvaK+uwNdj9oDiYELeLauCYEIIIYQQQvIz6l5FCCGEEEIKHKuCYB8fHzRs2FCYI4QQQgghJH+xKgjmOie4uLgIc4QQQgghhOQvVgXB+e+JcYQQQgghhKSiNsGEEEIIIaTAoSCYEEIIIYQUOFYFwe/DwzIkvt3gXqMRpNl61uW7VajHXvx45BHG79qBCkIaIYQQQgixnlVBcHh4OG7duiXM5UNlJqL8Z73h+/EwlG1ZL3vPfM8OmTtsvCpC6e4FcT4Irt8qeVE0GzMQ0zfNwLIds7FsyyRMm/8JahcVnn1KCCGEEPIWWRUER0RE4ObNm8JcfiaGKDej1aJfoFTf2ajU7RsUkgpphAXAfug69yu0r14MTgoTtIlq6MUKOJeojZ7TeqKJF7XKIYQQQsjbVTCjj8CZuL3tDzz8axZu7TkBemTem+XR7SPULGYDkT4EJ+fOwNAeE/H9txtxJtQAkUMAPupfGXZCXkIIIYSQt8GqINjBwYF/YEb+pYXu5ho8O3sUSRQBv2GuqF6pKJSiZFbee7Hl3wSYuOSwK9iwLxAJrPwdS1ZCtcJ8ZkIIIYSQt0Lk7e2d4zAwICAA/v7+2LZtm5CSD/iORvkeDWCXLuyPwdOtvRF0UyvMW9RB0W/GoqhLMB6t2Qdpk+7w9LaHhIVvxoRQhP09Fk+uhL2Q99X3E5prC3Ft+1/mADCHuI5x/b8oB7uEy9jetj2uCemACwJmH0anao7Q3FyJZd9NR6LwTraJ2mDo0hYoIcxmKuocVoxdgyvCbPZVw4ANXVDRNhqXFi/EyiMaIZ1xboDvl7ZGGWUEzkxbgLXnXuhwKXJA2+mrMLCmE9Q3fseAgb8gVHiLEEIIIeR1WFUTnC8flmHUIUmdCH0iN6mRlK1o1BEOTTqjSFEFTOxzhiQxJHZFUaTNbBT1kwt5DDBqheWqdeamFSY9DPzfSZ0MekPuN7uQlEUxLwf2woCoR//mPADmGaBl65eY1aTRI0n4RI5U8IAzX1RaxD/SQOZTHs36foxm9RwgjgpHVLyRvaeAXREFlyk9WR3ULePCbj4kKFS6KpoLyYQQQgghr8uqmuBKlSqhZMmS+asmOB1L7W1cFjXBYiTHXMSdNWMRHc+iZllDFO0/gk/XXJ2LqzsOpw9sLbXN8edxa9lYxObSSHKZ1QTLG29A/zF1Udj4DGcm1sSB/4Q38pIKrTFmfAMU1d7CH98fgdvEL9GoGLuJ0j/C/h/2QjGSmxfh0Z75mLU6QviQhQQBXy7ExNauiD6+Gt/PPYw09ciEEEIIIVYrmB3jss2EmKsLzQEwx3AM0Y8izIGvSJp7Q6vlmBS29eag86A6KCxKhvrObpzKiwHwS+SQyYRSE4kgSdn7JJDZZDRUmhE3Vw5El7bd8BUFwIQQQgjJRRQEv1IctOFxwus8wLYcWuy+iaH772DI5M7wsweSIi/h7+lT2ZrmcXb2cLO/i80Ld+PfC5dweOUf2P1EAjG/ByYiJkTNZyOEEEIIeRusCoK5NqJqNQUtb51IBoWtCiobEUwmc0MM/bOLuP86vcW4jnHLlmFZVtPUPqgkfCRHroUhSs/+FdlA5SKD4fYp/DZlE7YdikCS3A0uTlz7cgP0cVa1OCaEEEIIsYpVQfC9e/ewf/9+YY68RKaA5E20leDaBDcujsmNfTF/yUXEJIugKtsFzT/zFTJY4w13jEMQgsN07N/CKN7QB5buhBxZwxLg+8OpIxB0gxo7EEIIIeTtoeYQuSkyGgauglZVEq71qr7RRyerd0/ChXtatgXtUbrddJRNG13mRPJfWDJsGIZlNU3bgBvCR3LmOS5dD4WGBezuNVqhY3Ubc7JtGXRpXw6ObA+Mv38dp5+ZkwkhhBBC3garRofIf6rDs+9weDpZYn4RxEoVpGITjBoNjEK/N+3tZbi1928kv2L0CNuW61G+mhu0GY77q4BT599Q2t+O7zRn0iUiias+FUkh01/BzWXjEW9FdWpmo0OI/Reg14JPUEyehPB/hmP15D+trK19w/jHJvdGQ28biJIN0KgNECuUsJGIkBx7E9tGrcffoRmNWafAp4u2on8FFYyBm9B0wCohnRBCCCHk9VhVE8w9LKNjx47CXH4gg0RhC7mtZeICYC5dDIkyNV0ml73miA9aRO8YjTtn7yIhUQeRjbBslRRGbmSEXK53N92aiBPnI1nQLoVbnR/RoIrwRl6jv48/Rv2C3eeeIFor5ts120CP6Aen8OuYXzMJgDkSuNmp2L8mRD0PNCcRQgghhOSCAjpOMMkX5C0w6/dhqO5owK1fm+PbNUI6IYQQQshryuW6SUJykdQLhfiK4GiE3zYnEUIIIYTkBgqCSZ4lUjlCyXX4M0bi8SlzGiGEEEJIbqAgmORZsupucGD/mqLDQRXBhBBCCMlNVgXBBoNBeEXImyN2liI5MREJTx+CKoIJIYQQkpus6hinUqn4KSIiQkghhBBCCCEk/7CqJph7ZDIFwIQQQgghJL8SVahQoQA8LCPvMMicYBBzzwrOHoUhCmIT99jh959RooJOyrUCzh5ZUgJkxnhhjhBCCCEk+0TNmjXLcRBcqFAh2NvbIyQkREgh2RWc7INoOAtzWSshugtbJAhz7zeuXLjyyS53PIWbKEyYI4QQQgjJPquaQyiVSjg6OgpzhBBCCCGE5C+i+vXr57gmuFixYnB3d8f58+eFFJJdYVI/xIldhblUyhIB+KZFGdTydYS9VIvzG/7AmHMmFEu6CaUpTsj1fuPKhSsf207t8Wc9JxgS43Hvzk2s+v0mbmTQIqSwMZifCCGEEEJyqsA+NtmhxOf4zP0ptpw+hPAsS0CJMh8Mx8A6tVHCVQkpl2TS4+mF6fhy91HkpMWutvAHMNh5C3McGer27oSp9V1gl1Ivr8Z/v6zB4JMmqJ6dgET7ep0Qxa4fo1LHakg8OBd3HmiFVOu5jTmNr5t4IPHSTMwbslxIfX1cuXDlY9ezO442LiykAkZ1FA7+thnjT6Ufms8m5hbksTSCMCGEEEJyrmA+LMN/Flb2+gLtWozG/LaNwD2ULHNKfNhmHRa0a4zSLAAW6RKRmMgmTRLi4i/mKADOSKmuHTCtARcAmxD96AZmTvgFNfr8wgfAuULZFi1++hltuvRD51lrUPbVX/bNkRSGU/kG8KpYCbZZrEPCrxtRve//0HP9FVyNNkGicsbHPTtgYFEhAyGEEELIayrgD8sQQ5xVCdj3R5fK7pBCi4cnhqHL9Jb4ZBY3tcDAf2KFTFayqYbhDd1gK0pG5LVj6DTpCLY9VuNNDdchYl/2nd31uPRFs+nr0W/2UtQsJ6S9SnIibh89jn7jDuJYZDJESjd07lsHFAcTQgghJDdYFRPFxMQgKChImMuHbk3E+C2bsGv/VHy/4yj0QnJGPD6oCl8ZexF1CRuOnkV8LkaoRbuURnkle6EOwdrF1/FGWv5qduGvUZNwcMdqbB7WCzdf9WXzoOTEuxi16SHC2Wuljx/6lzSnE0IIIYS8DquC4NDQ0HzeKU6DwOvLseRU1u2B/exsIWL/xoWew7kkc1rukKFLSWe+fXH47SvYmqvLTs/4cC1OL56aK+2B3wXDpbM4z0XBYgeUrZP9cYQJIYQQQjJjVce4fMlvCn7r2QBu6cL+GJzf3A2jr2uE+ZfVbbMF46q7Ie7aPHy+ZRdeN4xM7RhXEUuXNEQNWw3OrFuD7/4xmjO8QPXsAWrM3ohW5W3NCfpgnBzTFUGN16PNRyVgL+M6jj3Dra3fY9fa0zDH0tXRfMMW1PTkZ1Jk3pFNCttG89H26yYo7mLLwnMjtFEPcWnNTxD3WISahdnfHFUPRy6Zc6d2jFuEbSGt0LZpCTjaiJFsSMTT8yvx56RFiOJrnL3xweL9qeueCcOTPVjf6zs8EjrGvUyCFj/0xuSKKqgD/0PDmRf4VOoYRwghhBBrWVUTrFKp4OLiIszlE0YtNGqhU1uiGrpc6ndmvUIoxDWFgAYhFzMOgM1MSNKq+XXWGtj9iswBhZsvQIuPS0CZpIFalwyJygPluy9CkzrCR1gobNCYP8NN6iy+rLzBz+g+oi1KudpCatJBrdYB9n6o+eVQFHvFw+1EDm3QrJUfbE1aqDUs/JbZwqv2YHSf8Ll5BA0WTFvWPTFRC271kWyETlivlPXTaFjOVzHiRIT5RsVGoQRfbIQQQgghr8GqILh48eJo2LChMJdPPJqG/rMtndpm4ExUZoFhbQzrvwfbR+zjp2GVXPhCsi87AJuENH7q+R3szR94TclIeuUQE09xZXh1zGvzMf4OVLPIUwHPysUQvr4N5rQKwNzOI3DpOYsupU4oUqu28JlLONIvgH3GPK0/ybUlyIw3KnSqA085YAg9jq29ymAu+8zs1h1w6IkjPJ2EbBlQ+Tgjaq2wHq0+wMZ/wlj4LYZTuXYow+cIEdadrUe/X/AgkSUZnuLc+NR146ZFXw9Ddp/7JrK3R0qsTwghhBBiJauCYJmM6yn2vpLBRmkLW1vzpJKbi0gsU6Wk8ZPChm8r/PbJoIw7iaPrrpubPiScQegzFhyztRGJrRj/zKEJvItwzRU0eHRoBG6FmpNhuIRzP/+D0Fe0VTY8PYUzvwrrgVjc33INkeyVSCyxbscihBBCCHlLKFZ5yXFMXdwIzcY35KdJ58LB1RnHXJuHtkIaP62ax8K+3CCC1EZ4mS1GxD3+F8+FOeAxLgwqh8mNS+GXuceEtBxQuEDO3dPoI/Hs6lNzmsAU+RgJr2gErX9+BU+E129Lclwc/hNeE0IIIYRYi4LgdyYe8XwzVyWKVJXwKdljgl4dLbwuKCSo72JuCWxKSkLm3RgJIYQQQrKHguB3JgjBsVxPMSV8yhVhYd47YjIgmVsNmSOcSqTvBScu7A27V3SMs4rYBjaFhNfZJXZGLQ8Ve5GMsGePzGmEEEIIIa/BqiD4/Xli3LsUi31BcXxTCw+/Cqj3rqLg53vwOFQLiOxQ+pOV8PcS0mVVUH3Ah/AyD/Pw+uLuQs01rZAWRqn2I+Ccg+bLEr/KqMANRmKKx82T2e1CRwghhBCSuQIyTjA34sMY1HG2xPwiSJUq2IhN0Gs0MAgDRcTeXoyvdv6FtIM1vLlxghm3ulg/uSr8bYx48M+f+HRdGB8Up6Uylkanub1QwpYFg3IlFNy4wDoNtFxvtMQr2N/tU9w0Z03hOvQoPm/oLsyxbytVQMWP46uFWi/8hTSflTdYhV6jm/IjRCQbddBojRCzvyWNC8Zzm2IsPbNxgl8Yd9h/Fb5a2hTuCZexvW17XBOSzaRw++Fv9G3jAy7+TV0XMeTScJwa1gCHHmUwTrDEEyMmtkOnojIYnlxFl/HHECy8ReMEE0IIIcRaBaQ5RPoRH2xtuQCYS2cBWLqRIORvd8SH8H8x5VQUkiBBiQbtsPWHGqjK/eqfltgGchU3MoWKBcDc2okgsTHP26qUGTajENkoze8LExcA8+kyRWp6ms/qjw/AH0sO4sHzRCSxv6dS2QBxd/DvL/ty8VHOSQhf3B1/bD6H4Cgtklhgbl4X9reSJLDJYNhpW88AjBvfGh1YAAxjPI7vSg2ACSGEEEJeR8F5Ylweka4mmKdE+0FdMbxKIRaqc0zQauLx37rfMOKMCapnJyDRRvDvvG2yBhvw5cS6KKy5jf29Psa5N7waXLlw5WPbtTP2fOgKlUIYas2YgDNbduG7A9wAbKmoJpgQQggh1rKqJrhkyZJo0aKFMEdejwY7Fq9Fq6XXcCY0AQkGERRKGd/s4d2RQlH2e7T4ugYKIxmJ94/i5luMw0VyGewUYv6pd8GBtzBzxm8vBcCEEEIIIa/DqprgSpUq8YHwtm3bhBSSXS/XBL/a26gJtu28FZ9/HgBzSwwRZAol5EJbCWPMDRwe2Qpn7pjn3yRLTXB2UU0wIYQQQqwlqlmzZo6DYF9fX3h6euK//+ixBTn13KY0EqSpnday4qm9CoUxdx7LkRlpjZ/QYXA1OHAzyUbotXok6WLx/PZhXP5lKcK5B9K9BVy5cOWTXU76IDgaHgtzhBBCCCHZJ2rWrFmOg2APDw8ULlwYN27cEFJIdgUn+yAazsJc1kqI7sIWCcLc+40rF658sssdT+EmoiHTCCGEEJJzBWR0CEIIIYQQQlKJqlatmuOa4OLFi8PHxwfHjh0TUkh2RSn9kSj3EOay5pZ4CTZJMcLc+40rF658sstB+xD2OnqCHCGEEEJyzqqOcQ4ODnB0dERQUJCQQrIrL3aMyyuoYxwhhBBC3hYaJ/gtSxbL2ZT9ZxGLjFqIkl98jtx7ipWLiZVPdomMBlY29AhvQgghhOQcBcGEEEIIIaTAsapjnIuLCwICAoQ5QgghhBBC8hergmA3Nzf4+2e/A1Peo0DZNsOw4Ndt2LV7N3bv3oApzRXCe4QQQggh5H1nVRAsk73TZ/q+Ns8+czD7+xaoVMQJdra2sLVVIH9/I0IIIYQQkhMFcJxgT3SuVxZ2IkD7cB9GtGuCxo07YuQBrfA+IYQQQgh53xXoh2WE3/oN5+OpXyAhhBBCSEFjVRBsMOTnYame4vj9ZzCyV55+bWBnTiSEEEIIIQWIVUFwYmIiIiLy7wMcLu+7iWcsCpaVqIbP3ERCKiGEEEIIKSisCoK5J8Xl60cmX76KEK4ZhMwVvjVoVAhCCCGEkIKmALYJVsCjTR0Ut+dqgPXQRnINIwghhBBCSEFi1RPjVCoVP+WvJhEfY8SSbqji6wVXpRTJ+mjcP/wThs/7B7HUN44QQgghpECxqia4ePHiaNiwoTCXX3jBp7Q33FgAnBh2Fzcv/YOdW84hjgJgQgghhJACx6ogOH8+LON/+KZZY3zSdxb2PFagRI1PMPTnhfiutER4nxBCCCGEFBQFrk1w7KMDWDlyI65EmwBFYRQrLRfeIYQQQgghBUUB7BjH+FdCMQf21U0JiLqnFxIJIYQQQkhBUSCDYP825eEpYTFw6E3suEujQxBCCCGEFDRWBcH5+4lxCjQo4QGuJXBY4E5QDEwIIYQQUvBYFQTfvHkT27ZtE+byG184qMxPiZOr3CHlXxFCCCGEkILEqnGC87vKI9ZjVvOikJn0iA59hHC9DvdXDcPcM9Q+mBBCCCGkICiQbYIvL5qO3y89hxZyOBUtjTIl/OBdMj8O+0YIIYQQQqxhVU1wyZIlUapUKezfv19IyacUHihbxgOKhCe4ej8SJiGZEEIIIYS836yqCba1teUfm5zvacNw+8plXKYAmBBCCCGkQCmQzSEIIYQQQkjBRkEwIYQQQggpcCgIJoQQQgghBY5VQXD+flgGIYQQQggp6KwKgkNCQnD+/HlhjhBCCCGEkPylQD4sgxBCCCGEFGwUBJO3z8YPzfv0RKva5eHjbAP1zbUYOGIbIoS3CSGEEJJTPTBvezeURjzCH97AgfU/YcvlOFCQlzmrgmAXFxe4ubnh5s2bQkr+ku8f9iEpgXbNR6FLBV+42MogYknJhnD8u7UzJt8yZ8mrbCp8hTkTO6Kck5Rfb078tdXoP3gjwoX59ESQluqBwg4PEHH+PxiF1HxDUR3le7eH6MQMXLuRICTmUV8sw8EeZSEVZnmPdqF934WIE2bfK/Un4Y8J9eEadx7zug/HXq2QTgo8WcVvUKO2HnfWrsZznZCYRw1Y8Tc6l7KcTc3u/9kU/Zfku7NltjSethVjazsj+sx0dB51OI+N8e8Mn+6j4BHxM84dfPAO1q0vlh74DP6WB+CaNAj9bxUGTdiBKIqEM2RVm2AuAPb39xfm8p98/bAPm4YY0X8Fvq1VGq4qMfTqRCQmJkKtjkN0vJAnr/LqjhkTO6E8C4BN8Q9xdMUP6Na8MdplGgCzELjSDFT49DP4thyNMk0rCam5QO4FhVdFKN3c3+AQKTXRcOkGdOjSA+2nb0b1YkJyXqXT8vsSP2mThMT8R+FRFpUqV0ZAEduUGy2SF4kgL1IDXpXrw83DVkjLA6osweezh6NJ1zHoMfNHFBKS8yqdVjhm2ZR/D1slPP0ro3LlAHjl4+dwlZp8CD37dUbz4VvQupm9kPo2/Q/fsmvqJ31n4fdLYdCLlPCq9xXmfF8RlriYpGfV9V8mo+J8V4pU64E6XnIk6x7j0Pq2aDOzJT6ZxaZ5X+CnYCFTnmSDVt99ggpOEiTHXcP6gV9iyh9XEJ7tgUbEEOVitCoqMQBl+s1Gxc798TbOuSIxW3/hdZ7124/4pE0btOGmbfeQX6+n1QdMwrz58zF18IdsryN5lwJ+g1ah3/x16DzgIyEtLxFBLHlzt8i55X+D2XVAOG53P8yv1X218d2U+Zg/fwoG1sn7ZZ4ldr7P8luwANXFuwRK+BaBY3ZCKrE9PEuw/MXdsrxmxT46gJVD+mLs4ScwsLOg78ff47uyEuFdktZ7sLcVJD5oWdqH3TObEHNrCxbdz+M/r6fl0g0fV3CGBBoE7p6FXx9n76e65CtTcXv7Vjzcx/49cEVIzS/O4MT44dj75wZsH9kJZ58IyYSQvOvSEGybvRxH/5iKX4fNxRv9gU1SGOWa9sT3I3qhppBE8q+70/th28ZtODCzI3YdzKIRmaIyOg4YiqE/foGWfkLaq9g3Re+hLP/grqglJL2aFudnLMA/oexaKyuOWt1rQi68Q1IVyCA4/45zbAtnlYL9q8FjdqenNyfmCzYfVYGvrQgseseBP0OF1OxIgObaajzLj+2BGVPIDlxYMibvtwcmhAh0iDkyEydWvLn2wJLC5dC05/eYNGsivv2kNkq7qOjn6veB9hJurR6CM++kPXBGLmPtmSD+Vz3XEo1QkiqDX2JVx7hKlSrxncu2bdsmpOQv+bdjXwBGfPszmrgn4NK2VhjxqopRsRdaNp+EHhWFznPJRmhig3Ht9GLM/O88Cy0tLMsUZhMvYencn1GowyR0KucJlTgZ+ui7OH5wAmbfyEnwmt6HE3/HmAZu0N5Yi/4D1yNMSM+IqOwUVOxSHUphnpf8HMEbeiL4gTBvIWkGn+9+hKfdXTxY8y8ULTvBw8uO3d2ZkBT3GE8PjEDIrdj0eR3MsxkzIfHCNFzb+68wn1MVUWfFZnxUirtZSaW9txFrvhyN58K8VQp3xugpjVBUmM1M0tMTWDplEwKFeatYOsllo2OcQ72BmPDVhyjj7gSllJWgXo2okEvYPW8Sfr2ZtlFFfUz6YwLquwZj3/A9sP/mM9Qsbs8u/ibo40Nxbv1wTNgWlv7i4dACw2f1QsMSbvyyjboI3D+8FNvtv8Gw+q54vKs9+i5ka2fp5PbK2/oYnJ/XHcMtPeDSdIxbvDIabb5sAB9HG4hNesSHnsP64ROwLSxvdbt5SaGGqDFsLKpW8EZhBxtw1zi+/INO49TCgbh0K9GcjyeCouFCtP+qCXzd7CBjZWXSxSH89gEcmjQMD2OEbJxC89F7Zwd4J93BwWbNcFpIhk1vfLJpIio4GnF/ox82rBbShfzFIv/FtiWRqDqoBYo7ydhxmATNsxs4Prk7zgjrIm25Fd8OrYZXH4YRuDC5GvYeF+bTUDQah9UjPoSH8QF2Dx2ARbdyoeGO/xz0mtcZPukOWw37jh3Yd8yt3sYSFC7XGC2b1kMlP1eo+ICEnV9jQnDv+gls33gCIXw+61k6yWXdMc4JDX+YiC/rl4KrowJS7hhURyL4wg7MmrgJd9NGBY2nYevY2nB+uAuDD7liyKfV4V2IP9ARF3wGa36cgJ1RQl6BU5tRmP1Zffi4cstOgvb5fRxctBOuPw5Hbef7+LNpf3CrZ+nk9krRZzC98ygcFg7F1I5xc7EqsTO+rlcM9nJ2xtfHIfjMGvw4YSdeWB2BEs2nrMGQui7QB27FN98sx+NcaD3iM/YMPmvszh97KeIuY/vn7XHtVSdOZW18Nb4nKtmF4eTSydh4W0jPjGNHjJreBMV0t7D1h59wREjOUs1x2DitETte7uD3zl9j5XvZy9l6VtUEx8TEICIi/w5oxa17fh3ZIlvExfFZtxUYXLs0XG3ZKUjDdXQyQeHogxrNp2NBs9ppfhYxCh0r1NBxJxmZMyq0HIlu5d0gYekaAyB3Ko0mrceg+2v0XSlsb8ufJOLCL2cdCBq1MCQmQs9PahizE4eIXeDUvD28PORIYp9LMoohtS+OYp/Mh2cRIQ/0MLKy4Jer0ZuHjWEncvPfSZ1e75eCJFbear48uUmtTcq94WmS9dCy9UvpvJbJpNay7yl85E1TNJmE5eM/QeUiTrAxcd+ZlaFYBRffuujDbqYGlsqo6sERAV93RR1vBb+dtUliyAsVRd0BCzGhQZof7BRNMGn5D/i4NBcAs/2Uy5vsiNKtBuBTH7v0bawNWqgt35/fkc3BYNpy4baHVp/R1nBGyy+awEfFbhQTtUgSy1GoaF0MWDgBaVcnz3Hsj3a//A8f1ysFNwcZjGru++qQLGflX6oxWs/ejtq+Ql5WWsp2W/DluHYo7cECYJOO5dXAKLOHR6XO6L78V7xw32YVkWMx1OjdGiUKmVhZamAwSaF0r4RmszahirD8ZL2GvWc+PjR6y7bS8POpkwb6TH7q+qB+ANzlIoiVvqjY7JWhdPYZNdDx5WeedEm5dtSmNnmYNAsTv/0EtUu7QmmMwZMr/+CPn0Zj2OjpWJILAXD2sWBw2gqMa1MBno5ymPjO1XqIVa4oUb8/Fi3/Gt4ZdWBwqoDBnWqjqI2e5TcfJ/be9TFwyXjUTJNf2XwaVgxuCj8uAE7iOtvq2GfLoO133VDkhWuIXqtGgnBsmncFLhhPe8yySc2uBxltDpf26Ne4GBRJbN9h51mx3B7e9QdiyfiamfS/qI0G/m4sKBdDVaoKWubS7+BGrYade4R9R/32zr3ZdiYE0dxKyRRw4H6NJenQOMF5ndtwLO/zIcwVtSJIlSrYiJNhYIGWcP1gDAg5Mw7f/XOVn1P6TcWqz+vDLTkWV//6AaNP32eBiSsat1iEH2sWgVz3ADtW9cGydEMyCDXCrmpERYXi0t7BmHU/ARKXb7G4fxd2gYzDha1tMOqakD2HOs7fjW8r2yL08Nf4bPodITUbLLW39lnUBLNroSniFG6vmYQ4DUtXtILPVwNZugkJ5ybi+v6z5vwCS22zIvIkbiydmqZmPHcV/vow+nYpCVFu1AS/TdmqCa6C0b/NwUdeQPSFFfh2xBbwFacKfwyYPxudytoi9vw8dB++F+a6V0tNsBim6AtY8e0IbOE+wILdKetGoS5Ljz47E91HHgT3K7Si3zLs6F4Wcn0Ijs76DlOPxrIbCgX8B8zH7E5lwZ3PH1lqgtOoP+kPTKjvirh0fzsDKbXHpnTrr2gyBetG1WXp0Tg7sztGHrTiN3G/zzBxSB24CbOZ0QUdxMJZOxAkzGefEv6zTqNzdQckJz7Ev7M648hJrmJCBHnxwSzI+RIlYnbhzyEj8YQrAEkVfLRmG+oUFUF7dwvWDh6OcK0INh8swqdT2sJbYcKzv/tgxbRj/NKtrQn2ZltIHfg71v8wii2f3ZtWWIzec9qiqNyAu+tLYdNaIT/P8h0KIfLED1g6YaeQngWfHpgzowuKa85jw4ip2BGR25ew6miw+jd8WMKUKzXBXt3GYmwDdpCwm9iY4Fu4/N9xHPjvFmLfQKu8bNUEV5uATbMawj05Eud++gojhGpcZblBWDi7PUopo3FmemeMSq16NdcEswA18txP+GqEuaZV2XwGfh1Rk6VH4r9JXTD2GLcdlGwddrF1kEAffBhTvp6Of9VccjkMWjgb7Utxv++l1gSnaoxpW8eitvMLfzsDKbXHprTrzwL7Gb9iRE2WHvkfJnUZC351XuDXZxGmf+KB+P/WYvDM/Uj7O0muqLUaX035CO6JGdUEO6LjqOloktUoQUahZjhIqCnO6j4vy5phy7BpMTi/oAeG7+YukMSiQLYJdnBwgI+PjzCXx4kVUNra8sO62dpyATCXKIJMaUkzpytkltFdJSjtXwpuLEDQP/0Xv3IBMJdseo4jR7fhBtcywMYL5cuW4FJfxv6eKHgnFgid7owRR/GYO5BFYq7Dax5mQNSlWeYAmKM9hOgg8++7IjG1tnsjApqhrDvbKRKu4Y/xQgDM0d7Cz+vPIZzNO3pVgs9LlcEmBJ2Yg62WD2j/xsHbkXwzCG5bWeoq2pXz5ttJqu/sxzw+AOZocevnVTj1NPOLZM4F49TcrSnrr/37IG5H8msDsczKmhOjHpq0tVmZTGqtwbqaI5uuKFuKuzoa8GBnayEA5iRD/2ghdvcIwKJvhQCYU7gPvIuybcUChxsbuACYS0yG7sIwHL8YyV6L4Vqmm3Cz/RrY8m9tMgfA/Oy1CbjPV3Gy80e6AahfQ9AGDOveDp2/mPIGAuA3J1kfi2fBIXj08NEbCYCzq8LHpfnrQ/zlDRiVph2D5sZi/Hohgu0VTihStWjKcZjC9BDHpqQ2NdAcOIRAfkYMScpx0gkB3twBn4hbu2eaA2CO5gYWrzqLZ7m5uYL+xZSU9dfgwKFA87qJJcjssL2/ZjC6tu2Kfm8iAM5SMgxphrPjfu0w8OccI3Tpar+10HMnheQk6LlfcVPSdeZzBUtP94ugWpdvR/LJC6wKa7gh0vLtOLtMkSJFUK1aNWEujwubjF7jG6IZPw3A38+4RK5NsCWNm5qi36GLfHbAFQEOdvwrfcw9pGs2rL6FKP7iJIbcxpFPepkOT0P/S9Pp7iZmLeX+RhZtkLNJJFGkbzuVW5JjoH1mueKTt6KCB5y5M4hdJXy99wiOHEkzTf8QXHwMlSNKvnQPEofIu1k/xcjORs5fiMMf7IHlWmp2Cc/icjEIjgnHrdhcDqYebcasYcMwLItpzKK9LAS3grwiHLhD2BSLmDtZX86l1bzM492aohCZrp2tDiERwu8gNuyG2vzKei8tnzw7tAv7Lj5BnNgFZWq3RO8RszF3wmD0bF0D3uk6Prwdld2d+eOqUNVBOJz2mGXT5Hou/Hu2TqVfDoJjI3A7/YGYATvI+SZEYbj/5wvH6PnwXH3oTnT49RfOC3ldLHYtSHP8j9+Km9zQI8bnOLc6TfrI2dh6l6Vrz2HN5DTp006C75Wjv4s9ljRuGrMS2Tvk4vD8PF0jX2RVEMw9ba1FixbCXP5D4xy/Crsr1eR+e+/IuET+LtberTIL04lVuI5xy5ZhWRbT4nGfoozwkTdKrQdfoaUOx/3AQARmNN1m0zus9SLkXTNGXsWe1TMw6sfxWL7vIp6wGzilexnUbtkbI2bPxaShX6B9DW+8rXg4UW8+IBOf3cv4mGXTrdt3srxJJflEzSJw4mqeTEns2k5b9UVW1wSTvOo5bsaaa3bkjiWR7hlrKn84851TTNDr0nYFf/OuB0Xytcu2XuVQ9V08SCczcuWbqZl+E95FxzgHD9TK7IkT96MQz1X2SGNxYdw3GDBgwMvT6F9wz8qVMZrMNUmOXvWRvs9WFbjbZ33qkiscrDvB5Qf6q4jlDmGxM9yrlzOnvULS+VDzeLcsf+EGfJLABkVczL8cQcf2H/OrzIkLCzV9uYlr3uUivH6PGSNxdc9qzBj1I8Yv34eLT2KRJFbBtcQHaNa5FT4QsuUGR496L9fkCu5Gx/MBriz6DIZldMyyaey6x1YGwUaYD1tnFGn0wtFXzQ1Zn/rlUDgJL0mu8KzhAxduU0SG4nz+qjp/K97ba0TBZcSdW3cRzs5gcs+66FnLzzwSBNcxrlFHlOOaEepCcf32iz3M3qyIYzcRyvUvcirF1uPdn+WSI2L5WkyRXVm41iuTPw6EqJ2Yn/ZnsEymkXO24Z7wEas9jEQMdzFzKIqaFQulXlAdnOBkKayb63H2EStFeSm0XTwT/Wu55mo5HrjNPe2IXdArdsOwRg7COnAd4/qjtmfmf+leVAJ/AVeVbIIB1dKs+/tEtwlXbprb8hZtvg4dejZ44UbhBZFr8DiYbVAWxJbrMRtufGauY9wcNKhamL024Xng7+BbW3GSk5DMbX+JN0oNEIJskSOKftMGxXOtJZweEbHcVVmEQv5dUc8/Dz06+Y0yIvLqHqyeMQo/jl/ON5WIzaXRKB5EmSs3nLzrokKa7eTklHrOvbbmPILYjam8bEcsn94H1bIYoSxn9uLOE+6u1wlVPh+JupZ14DrG9a8B90wPxkBEJ3BlYIsyzQalW3fyOoqjc6Vi4JrjR947ggv56eECb0mBHCc4/65/NscJ5odI+wk9y9qzy4swkgQLhVVKbrxgHYL+nYBvD54yt/tNGX3i5ZEnDGEHMGndItzgF/q6XNBt/ir0q+wAU+hRTP1qCo5nVO0k+RBFvxgIt5QH9osgYeslEZuQpNbAxO+tJqivzcHtg2dTR4d4afQIOezbr0dARftMxv11gkv3NWw/MIcOJi03rBp7IZZBmnAaN36eblXHCefeu9G9o1/K43pFEjmUCnYKStJBozOaa1e0D3ByRGucebv3ITmUOpIDN4ycWmNAskgKpeop9rTvi5QBGXz7Y9nibigrDL1j1HFDnnGvJLCxjcOp0T0x4bSlPYRlmXHpx+tlMhzRgRsibc0I1HfnTuHcEGlaJElsYCsPQ1CIJ3yKSTIcHQKKbliwuT8q2XHrJHyOvRJJldBdmZ0y+gT7oynjBM/rPhypq5P5euYpjv3QaukwfOAp7G1sH0tk+xhHLFNA/mAdpn0ziZ/njiNuiLT+A6vBkbt/4POaIFcq+fGCjeEnsLl3T9y1fFWRJ2ot/QfNynLL5oatMpe9UnMdt2Mrwd+HLUITgdATi7F25vrMR5PgxqP95RIa+r4wmoRF4Yno8Wtv+PGHIdfhx/wrhlhmg4RT3+HnSfu5N9JrOQPbfqzJbsaCsKdLH8x/7dZbVVD7p/+hTnHLUQtIbZSw4Q5brQZCkUJ7dy02/Dgbb/c3tBxKGcmBO2zV0BiSIZIpoXqyA037L+HLluP3zQos7lRKaILBlbvQ6Yo7vmJO4scek3HZEhlYlvnCeL2ZjejADZG2blhtc+0jN0QaK0CJjS3koUEIKeaDYqKMRodgn+v5E7b2KWdeJ+Fz3H4rU2pwfopl9InU0SGiz0xH51GH+Q61vEzXM1WHebvwXRU74P6f6crDah/8hF7jmsDF8nMiO0cqVHJITAZo2DnTvArxuLviY+zaE83PvU3F+y3F4k/9YZccjIMD+2Dmrdf+xu+dzKtT3mP8T8bq9/h3AdMj/Pb7V1h06g6eJyax4NYWtgoxtDFBOHtgNH6wBMCclNEnXh55QqXgBjrPLRH4fe4eBKqTIfX6ECNXz8f/2bsPuCbONw7gvwySkDAFUVAEcUId1LoXVmvVunfde9Vaq4JYa7WOuvdsq9ZdrXVUrQNtterf2tYtTtwLVJAlZCf87y4Xhsowgibk+X4+p9ybI1ySy+W5J+/7vMPqeb6iKwJzAmH+voT5+6aFDYDZdiHE8oz2N++Sk4C47RNx4+xtpKq0EMj4+3YUwiCUWjx7k0DmyDyfcu75ZBc5EwCzoZhALIXc3C53hDj/ntgCchwz5u7A5Scqrh6onHluFEyMoEoywqFipmfnzkp81nMStpy4gafMB6mAHVzFbqtg648C0uJv8EDVf2LS+B9x5MZTqPRsUK2ATJCIK9tm4e/UHK7d1VvwVfhK7vdSNQLu97jjWcxmrb1sp/tLbhJXYW+vJtiy7wKi41TQMcet+bhzFDIfwnIfZNTASYNqV2f8OHUXoh6n8Ns6QqRLxuMLv+LnoZkCYFZaDP4ZNw7Ho+KZIFAIiVwG0fPrODLjM67qB0vs6IkSpdILEVvm2WRs+/pHnL0TD5VWCFmm/RdIs6klxVwhK9hzQlIcbuVLtScxc87j35v8IhVz71qIZRltjsx7O9tEprU4PA1zf7uGWK5uLrvfzDnNqEJimgMqZdr5W8uHoOfkX3HyViyU3PPOv28lRigFUpR4gweqivgaX608iluxzIWTWMbcL3PiSLiEzd+dyr5cIUO1YSzGrmZ/Twkt87lkOo/IIdQy7+Hi+fPMF3MyfduQEHfNwu4eL2AuMMzHLLewATDbLnTI8jkgkbzlI0dWHB+OWIp5XZkAWGBEwumtWEQB8CtZlAkOCgpCYGCgzWaCybvjFDIOS8Y2hZ+j6aRg0CgRd3ENRoRvZ8JkQvKiNWbt/BI1XFW4tKoLvviZOrrZk3oTN+PbRsUguLMLXQcsAtsphNiADvOw+/P34ZR6ASvajsKvr8jUFixz5tqIG1ubYcj3hTEo7IF5O7shyNmc1GIC4MiNmBi6FpfNX8iRLCzKBN+4cQP797/iaypCcpFydCb6dQ3H5pO38OS5BpCw2VKpfX4lQV6fazB6ze6B912Zi6iUG/jfTgqA7Y23q4I7XyTF3QCV/bcN7h/0xbxPq4Idgvn8+lFsf+sBMKsEXLhEcAJir76THXgLpJDJ5XDQK5H0+AoOfx+Kfl9SAJwTmjGOEGKlemL+zq4ox/eoYPv0yk3pDcCYgPM/hSHs59tv3q+P2BAZBi7fhe4VRbizqysGLKI8sNXpvwi72wfwXUfY7nVySMxv22dn8cPoMPz64B2EHY4jsOr39ghIu4GtzYagUCaCyWuzywQc252jY8eO/BohxDqxFTzYPnWm/opSqJCaGocH5//EitC+GEMBsB36AD5ceZIkxN2gPLBVStSDecPy71sJjOysZ7EPcPbQEozqE/puAmBWneJwYyPzhFgU2kQweW0WZYLZKYf9/f1x9Cg/z7yNsfXqFoQQYp9aYdrmwajq9BAH+nyGZeZZcwnJTedZ+LV3EGR3dqPdFyvpAppwqEQaIYQQQgixO3bZHYIQQgghhNg3CoIJIYQQQojdscsgWKejeiGEEEIIIfbMoiDY1oPIu3fv2uygPkIIIYQQ8uYsGhjHTlnLLoV66mFCCCGEEFJo0WQZhFiDPktxoE8QJPxquqSzWNQrFLtS+HUrU/arDfixaQl+LYPuYQTG956FM/w6KSjBGLN2JlqWeunIQczhEegx7TK/9vp6LN6HAZVk/FqG5PPL0Gf0diTx64QQYqvssk+wj48Pqlevzq8Rkp0P0WTdDUw8fDfTcgldu5fkby8ABg1SU1MzFqUa2vTLVE9UmR/J7Uf44lC+7d0yqNkJLDL2V6mx4eqbTtXQZfggtAx4OaC0fmnQsZMSZHotVOqcXgs5iradinod6sKBb3mRVq3Men86ypcQQgoXi4JgdrKMkJAQfs32uLm5cY+BkJxpmcCCDQRMi8aQ9yBAXDQY3sENUbxUEX760Dx6+Af6t26N1ualxwTsT+Vvs0J3FgzO2Fdm+fLYY/4WW1MH47+fgaEdu2H0nO/Q3oNvfmMSeJatguDgSvBzFfFtBSEVUVuyvhYD517jb3tZ0RF70X9kLzQZvhKd+gfyrVn9OrZTlvv7+bqGv4UQQgoHi4JgNoj09PTk12wP25+ZkNydwLGhVTGvdRCzDMfpaD3fnrti/Zah7/z16D6mHxR827smdi4O/4AA+BVzQl7CMamHLwKY7Uu629f7RSAU5eNXZEHoM2E25s+fjtA2XnybFREIIbTL7wMJIcROu0MQYo+KN+qJL0JDMaJ7feTlEjaw7VCEMtsPbl2GbynMTmLuN3OxYedmzBszDtuf8c2FVOyK/ti6+hf8uXQAtq66yrcSQoh9oSCYEEIY2juHsGbJSuy9reVbCjH9HdzZFI4TO/4GVU0nhNgri6pDVK1aFWXLlsX27dv5FtsSFBSEwMBAm91/m1JtGQbOaAkf/hv1lMglWL3YiJDJg1HZ2xEi5iM4+c5fiJgwFFcfZwzkkVafjBaft0FZbzfIHQRI06mRGH0Rp5cPxMlTyfxWZo7waDYV9Ts1RICPO5wcHTL64abp8GBfB6yZF2laN++P+hJ+H9QKZ5+amoHh6LQnDEGKFFxf1Ry//PyQbzdjB8n9iHq+mmxuZ7zwWF8tm/s3V4e4txdd+81DLN+cFTsw7gjaBTtDc2kpZn0xl29nyDujzdo5CPbU4s7WJtjw/QP+hgwlW4didIsAGG/sxpwFB/CEb89OcP/vMLi6O+L+WYyJ67PvX5qZuVpEflSHaDl6GVqWza1HdQLOrPwGq88Z+fXX8erKCimX12DIiA2I4dfNgsesxcyWpZBwdAY2ajqiX0g5FJGyx2YKHl/cgSlfr8V1Pn42b5vjELuUy1gzZAQ2ZPpDTtV6YVSfj1CltBfcFFKI0h++AQlnV2JY6FakH7Ic82PQ4vKaIRiR+c5eUGTQQQzoVp55t2SivoMjoz/E8Ty8vOZqEblWh/Dtg4WLeqCKczJOLR+A8J1UR4IQYp0sygTb+mQZiYmJuHfvHr9GCpReBTU3sEwDdlyZwr0aaoUNQdViImiUaiYEdoBLQFO0mvg1XPhfEddZgZ5Te6NKKXfmA1sDJTsoDVK4+9VE06n78FHNrL1sXfpuR9+xnVC1jBecZcznOj+QjVuUGuZ4fUsVC9Ifq5KrksBeXbLBO7v/6fuTqoKmACooCIo3QtEizA/6eDw993IAbIu0mqzVDl69MM9n3rtqv0AHTeaKCvxrlhunMl3Rs1E5OBuZ11PFnAsdnOD9QS9M/649zOPpdJqMqhmmAZUvV29IVTL7nulQkIR8jRXT++LDyr7wcBIzh1Pm7dXQ6JR4kxy1kdmnjGNRDf1rpz/yqOEHKO8mBkRFUK5uSPr7mhBCrI1FmWB2UJyXlxeuXLnCtxCSi/QMbCJi48/jj7ABuBFngMuACAzpXgGOzy9i18A2uBD3AUJWb0ZIaQckX1qNjWOmIY695pJWRo2ZG9GsqiuUkUvw48h5MJXOrYT6K7ejcRkpUq6sxvpRU03bZ6cgM8GZlBh7Ar2bl4Amy77m4I0ywXL4TfoLvUO8YIw9hl+69sZNtjm4P74bXB3u3DbZU/KZYQc+U/xyZdiscsoM52cm+G0zZ2+1uWSCJWnJuLI5HKNXXWeCUglqjv0RU5oz7c8jsXLQSGzOkqrNe6a26bRfEV7XA8aY45j35RRExOblYinv959F6W/RY0lflBEWQCZY1hChi0agrks0/pwTjmVn1fwNhBBiXSzKBMfFxVEATCzjLMDT38ZyATAr+dxNJLCZPIEQIvZoDOgMPx8JoIrCyZl8AMzSROLUmqOI1gJOxd9H0VdEahL3QJSqWgGygqxEZW2EXig1dDvaNfCCABrcPzLNFACz9FqoMmce1XpTdlqvzmhjFqVaB7YzgUHHZt0z2lVaUxcDo5bNHGZuf0uZdSuV9vg0Vq1hA2CWFv8djMRjdoU5hsX5cOyJFMUQVCMQxWyxXDFLfQxzh3RGh24jKQAmhFg1uxwYJ5fLbbrEm01TxyLmTKZU2dnhWNXMH1Pa8lnZCv5wY/vUOlZAs42ZJ6lgloVtUJINDGRucE//jvUSzu05hSeaNEi866LV7AiMPRCFUVuOo8vU6Qj0t9VIImeSCgMxZs8VhEf8h75dAuEqNCDp4jrs+T6K34JxaSOmhYUhjF8WHbnPhMnM9cWdg5ibqX3iij+5zHPMgSWYkKl9w0VTri/+7Kr0NnaZseUG126vUuPv4UkBXAcc2nYEUYnMVZ9LebQOXYzN+yOwd/sGrJg9Dj3rFM1TWTtCCCF5Z1EQ7OrqatOTTfj7+9v0ZB82TaeGOqeOjSqNqa+i+hnuR93AreuvWiLxJNPYuNTdPfFDu/pY/+N+XIyKRoJGACcvX1Ss1x2dV55C557lX2/CChsgcJBBoZBDKjLCyCVs9Yi/tg2J3K2FAzswbvny5bks32HA+4XkWv78cnzWoSM+n7cVR8/fxuPnRkjcSqBC9Y/Rf9o6/PR1CJz5TQkhhLw5iz49SpQoYdPTDtNkGVbsfgxS2O4RYiXuLWyOTcOavryM/QqPXvyWVfMId7cMw29D62JJq3KY0bU3Dl16DqPIFRU//jJ9wFK2PN0hydO7QQFn37xPJyaWuhVIBo/tEzylsT+zvI9f/4tHGqTw/2QRavnyGxQCBT8w7m0SQ+os5X/OSQqu7v0ek0cPRPd2LdC0bW/MOvwAWoEMvjU7oJUVzrdBCCG2yqIgmIJIUmBuL8bVm0qkiX1Ra/IONGhcxqIgUh97EYnPtVwfWIFQnJEJ1htgZBud/VG+uTlD7IaAwc3hm+OIsH8Qb+q8DPeAbvBKfws4Qubu+lKmOTE2Bew35jL/xqjT2KcAM9FJiFq2A7dSmT1zqoDaI4Yy4VbhcGjZ2CzdMF69TMPGSEvKo70tDxD7nD1uZChVpzeaFn3NoznlKaJildyxlF99jgkhhJjYZZ1gW99/W+L9xR/o0tSHCcxEkMmlXF1gldI0ECvuSFesm8/X783MZww6LRmOIHfTNZpBo4Ka6yMhhESuxrV5jbFzXzx3W3rVhpJIv1+WWOYIKVdkVYtHEcOxftYh5i+zPkCDlZvQqIyMCUyN0CrV0IukkCVex3VjeQR6M3uY8gz3js3EjrnbkDnhrPh0FwYNrAoXZrfM+ySSOEJ/benLFSCkfdFm40QEe7CPwfR3dMxDEIilzPYLsXLUEjBxa4Y3qg4hhNvwPzC0YwAkhmc4N7cB9kQo+dveLluqDvHe5yswpVnJjFq+YhnkUibK1Kmg5AcFIvUqNnwxFlufZlSHeKl6RPAYrJ3ZEqW0L9f9ZUmaMYF6aF14sgGsQQMlP0BRLDMg6qfBGMmXk2g7dzdGVnPkSgeay5cJJXI4OrDHcRqSI9dg2MiNL1StyGN1iFLj0Hlub5RKLxIshFQuY96XBubvaWBKpmvwaHdfbFl5gVt7UZ6rQxQbih/WdUE5STLOL+uD0dupTjAhxDpZlAkmJK+ETDAqV8ihMBf+FzjAkVuXQyrLJmcZPQ/b+gzC/r+u48lzDRNFOHLbs/cBtREij8w9Iz3hINBCYxSn3y+7iPVqJD+Nwuk1I7BlrjkAZp3B8Umz8O+NBKgNAiaoZoLh+Egcnr8M8VzkIYCDkyeK+/q9lFFN3TIKEYdvIkFtgFDK7pMjRHoVc9/yl99ImrXYN24W/r7yBCmaNDjITfslFxsABy/k73cpRiSuno0Lj5n9F3mgcu9FKMXfQrLnwL2GioyFCYBNh2imdjl7MWXa3lLaiCkIX7Ifl2OSmTBTwrwfTPctZo43sZu55nUJuIk1UOnY4JT/28wiYy7DUuPv49zexRgd9mIA/BpEMuZYz3h/KBRMAMw9WBGk6W3Me1KaD0dmaQ84cW+IJMT8QwEwIcR60YxxhFgDcybYoOFKmaVLvoDlgydgf5a0sfUoPepHLG7sza8xJxQ+m2qLdYJtkzkT7ACdSglzApv15GgYBs7N20x/r9J59jb0Dszox2zOSueaCe6xGPsGVIIs8QwW9g3D7hcneCSEECthUSaYHZCiVL6br1vzA1vjmAJgYpVEUqRnIdlFLoOEzdhZKZEsazaV605A3gEBHBwzHTfM4viGBbMlMjY7nOn+uG4ZuSvv5cT14zcmxeA0BcCEECtmUSaYEEIIeZX6EzdjUqNieH5mIfqG7QbFwYQQa0V9ggkhhOQbP09XiGBEUsxpCoAJIVbNLoNgtj9zixYt+DVCCCH5wx/OInZa7qeIjspSL4UQQqyORd0hbH1gGZVII4QQQgixbxZlgmmyDEIIIYQQYsuoTzAhhBBCCLE7FAQTQgghhBC7Y5dBsE6XMX8YIYQQQgixPxYFwbYeRD569AinT5/m18hbJy2DZkO/xeJ127Brzx5sntURnvxNhBBCSH5x/Ww59uzZje0bV2J2WCtUlPE3EMKwqDqEXC7nlri4OL6FvFWiALRt9hW6VC4NT4UD2Hmc0nRPcWJbZ0y5atrEWkkrD8GcbzviPXcxt9+s55GrMGjkz3jKr2clgLhcD3i43kbc6b9h4FtthqwGKvVtB8HxGYi8TCWj3kxRBPT+Ch4PZuPUkcd8m5WqNglb5obAi1/lJJ3C3Pbh2MevFiq+/bBseS8Eiu9id1h/LLzEtxPi0Qk1e5ZF3LqZuJ3It71FbqN+wo7W/vwaYEi5iz8XfoaZh9V8C7FnFmWC2SmTKQB+R6QhCB/0A4bXLo+iciG0ylR+GutkJDznt7FWPt0x49tOqMQEwMbnd3Dkh1H4tFljtM02AGZC4KozULlbT5T+ZDwqNK3Kt+YDiQ9kPlXg6FWsAPsE1ULIsk3o0KUH2k3fihq+fLO1k5ZG68mjMPOXmVjx22ws2/otps1uhWqe73b+5qDZh9Gzbwe0+Ho3WtS28p5cejWUzPuSfW+mKrUw8s22Ruzmj0rBwahS1gMSvo1YJ5FHZXgHN0Tx0kWtp5+jwzB0WjMXzdsORbelK1GSb36bEhf0R+OPOmPYot9w+ZkBIid/NP1yHgZmxMXEjln5J0nB8PT05God26IS1Xugro8EaZr7OLS+DVrP/ATtZzHLvAFY8pDfyCpJ0fLz9qjsLkJaciTWjxiMqb9cwNM896wRQpCPR6sgYBgqDJyNKp0HQc63FSSBkNl//merJg1Cn8WD8ElVb7g66JlATgmdWA6P8g0xYHZ31HG1gkfBPJdWf+K6OAv9W7dGa3aZeBK2mjLwbh+GGfPnY9b4XijPtxHr5Nl9CXrPX4+eYZ/BlW+zJkKhiP8peyJFMfgFBMDf2xlivi0nDu4lEcBsX8pDyrdkw/gM13ctxhcDZ+Lvp0YInCqiXdhAePM3E/tl0WeJj48Pqlevzq/ZHi8vL26yD9vjh0/K+8ERRiRe/RWLbtnQ1+uen6J55SIQQYXre2Zhw/28dWxIuzAN13Zuw519zP8RF/hWW/Evjk8ci707NmHnuE747wHfbMVK9fsI1YsxHz/qe/jz22kI7fEtvhz5Ky7EGiEsUhWfDC2fpw+ngnBl0kDs+GUH9k9thb3/FGxuVeZbA20HjcPIDu8id0VIIaH7HrsnzMSfu77Hps/6I7c8TZF6n+Lz0FCM7NUEPnxbTvxaDkQos/2w9pX4lpylJf2Jqd//y1yUCiAv3wC9bDEMIPnKoiDYzc0Nfn5+/Jrtsd3JPhQoImd79atw/24EtKZGmyD96H2UVgjARO+I2BHNt+ZFClSRq/DEFvsDM4yPfsOZpV/bSH9gH9Sp5M0EuUY8PL4dOy6qwQ0YeHAKPx2+BTZp7xlYHdVySboUGNW/uPTD6ALsDyyDb422GDRuOmaM64dm75eCqyz37BUhJDtp0F78HicWvZv+wK+iOb4RF9iPIJE3yjelXLC9s2hgnK1PO2y7+x+E8OEr0KRYCs5tb4nwnBKjQh980mwyelThB8+lGaBKeojIfxZj5t+nmdDSzHyf/GrqOSybuwLOHSaj03vekAuZk1jCDRw7OAmzL79O8JpVo2+34OuGXlBfXotBI9YjpzBGUHEqqnSpAUd+nZMWi4ebeuHhbX7dTPQx/D4fDW+nG7i95gRkn3RCcR8n5urOCH3yfcREhOPR1aSs2+b4XaERqWe+Q+TeE/z666qCuj9sxUflsg5BVt/8GWsGj0csv24Rj84YP/XDXPvV6WOOY9nUzbjOr+ddCEZta4ny4lj8M2U+1p3NdNlRrBnClzeBvygGx8YswuZbL2RiRSXRY84i9K3qjKSzqzEs7Jc3e6y8stPOoVtd96xdSRL+xZbOXRGVX8lgmS9qNGuOJrWC4OsmNf0tgxJx92/gzKGfsev8G3a2Nw+Sy8PAOGm5zggP7YQP/DzgLBEiTa/G86fM+2/9dMw/+ITfiuWLfsuWo1egAWdXLsDdWkPRolIxODLvV73qGaIOLkD4opNI5bfmSN9D32/Hos37JeDG3LdR9xzR57Zh9c3aCO0eCP2puWgfzuydeZCbgv+9V9Lg7u4w9DePgMs0MG7PoqPw6d0JVYop4AA9VM+icHBBOBadzLI31sehAgJHzEKd2uVRrIgcDkLmtMM8/8kxV3F23SicOHw3S99uUflQtAjvgUBfNziKBcy2SsTfPYUT84bh/HUlvxWrO9rumI6qbnE4/VV17PuXb0YNNFy1EY0CpIg7PhjLJx3k2/ntpTdxeN4BePTth/dKKCAWGKFNuoezP/TDHwf4fQmcgz7zOsMvx4oHKtz6uQM2rXp51LQooC/mz+uJSvJnOPXDZxi34xl/yxsQ90C7X75DFXd+nZOG+BOhWPpNzp+5RT8eibHtKkB89yAWzP4N9/n27JTt+S1G1/XizjlfrTrDt+ZGhmYzNyG8phtSz/+A1qO38u3EHll91zpiAaE/en76A0bWKY+iCjHzoZiKVLURMjc/1Gw2HQs+rpNpkIsBGjU7gEcJDXtWdSiCyp+Mw6eVvCBi2lU6QOJeHk1afY3uOX4o5szDRQE2p5b89HzuwZFBDV1qKrTcooQhL8GO0BPuzdrBp7gEeub39AYhxC7+8G0/H94l+G2ghYF5Lrj7VWlNWU6jlv87GcublQDUM8+3kns+2UWp1pv+Tn5I00LN7B832CqHRalmHif/K6+lVlG4c2cEFZKjDJCUDUaLgUxwWNMRgidPkJDCPhI5nP1fkR11r48aZdwhEojhXqEGGvDNb8qgZp5D/rnM7wFm5i4P02eMQ79m76OUmxiquBs4vW89ZoSPxcQ5P7x5APwaxGUHYt7coWhUriichFrutVQZJXDxqYxWYUswo20RfsvMZCjRZCCaVfaAgDm2ldo0iB09EdRmPOYODuC3YYjLYuC86ehVy5cJgAEds61KJ4VPza4YVN8TWZL7Bg3U/IDbVOYEwL7qbDCY+Rjj9o05tl8mRWC3TqjmKYJWqYQ2TQxHzyC0GT8XmXfH6jg0RMOlO9GxVTBKejLHu5Y95lTQC2Vw9X0fH4b/guYfF+U3ZoLH4HnoOX84qpV2Zy48dFAxx6eWuWz3KBuC1nN2ok6FfPi20dEDZbv3QhUfB+iY51KjF0DiWhq1R21C4w/4+zeooGFuM51rDOmvVfp7hl80mle9Vsy1bf0PUNpVCIGDJyrUqs23vqE0DXN+zfjbKm1+vmvzgxr/PmETIwJI5W7MO4jYM7vMBLOD4tg+wTax/15j8X2/RjAlagXMB5wcUmEa8yHGnHTTzy06PPr3G3z+10VuzbHMNKzs3QBeaUm4eGAUxv9zC1phUTRusQija5WARHMbv63sh+VZSjLwGeGiSsTHR+Pc3pGYdSsFIs/hWDyoC8rJknFmW2t8Fclv/po6zt+D4cEKRP8xFD2nR/GteWDO3rrkkgl2ZeLZuJO4tmYyklVMu6wl/IaMYNqNSDn1LS7t/8+0Pc+cbZY9+x8uL5uWKTOevzyG/oH+XcpCkB+Z4IJWqxOmhNdE0eQLWDPkFCou7Y86RZmoWB2FHf2PwXsRu25A1NYpWPCzhv8lMzlqfTkfYY2cmdd4GcKW/o0Xt3hjH/6MERPqwj0xPzLBtTFkdm9UdWLiCGUcbl/5DycPHcZ/D5T5Gmhz8pQJ9kLXhT9iSBVnqO7sx7Qv5oJLnIqL4ZNv5mNkA28Y7+5GWP+FMOVezZlgBdJUd7B/2heYy/4CE+wOWrwA3SoqoL69E6MHLsE19m5qTcKG6SEoxpwTLm35CqGrrjFBmxjFPvkG80c2gDcTUyWZM8GZ+PZbhuW9AiHO8rdfIT17nJZl/8VlB2Hxgm6oqFDj9s7RGLiE3ZvX9RG+WNgBFXMrT5F0Husn/4h/LKh8VWzEX+jb3h9SXRwi1w/Gnk1nmctZ5vTi0Qb1p0zBB86R+OOb/rh4j71ALoqq8/5Em/ddYHx6Er+N6o3LMTqISn2B1nNHogpzAZByaSlWMs+B6RLKwkywG3Nmf/w/7BrTD1eY+0fR4Wi/YgwqFxEg9q9BWDHlD357E/NjMFxbg9WfTUYC354j5/oInfsl6ike4OCicKw4ld+d7BxQYeZpdK3p8upMcNme+HZ03aylBF9Bw2eGVXymOLd8TG6ZYXPZNOPTY/j202/xP76d2B+LMsG2PlkGm8WwmRJvQhkcFQoouIUNgNlGARwczW2mdpmDebiSCOUDy8FLAGhjTmADGwCzzcZYHD6yHZfZC2CpDypVzCYtw/w9wcNdWMAPujPEHcH9ZOYHgZAdlG/FdIg/N8sUALPUh5Bwz9QJTSC01T7g75IUDmK+EwLzwovS+yOI4CDN0jmBp8S/C4eiU7se+KIgAuACY4CKueiLvn8PN2MKIADOK4/6qOXnwhzGj3BsBR8As/RPsO+HA4hi3o5Sz9JMAMS3p0tD0qWdWGz+Bf1NHDh1n+sGIRCK0gcxVmgYAA/mZdM9PoWfuQCYpceTfcuw+yr7Bs8vz3F19+L0/dffPIBT97m9gVBk6ZBKHTTmzHROi1ILnUVfu9RAharezBGfhrh/JmEXHwCzDM924+jwYMzv3YsPgBkOrRAQ4MI8IhXu/jGFC4BZhvuLcezQbaYVcCrVEAEZiWMLqXD/8HemAJgVuwxXbrJhtQACUT6djJ//D3OHdEL7nqMKIADOA8ML326pTN+cvfTNg9r0LZBRq8koPcgsSj4TZNSpsmyv0r46803Iiyx6JyUmJuLevXv8mu1h9/3o0aP8mpV7PAV9JobgY24Zhj+5boFsn2BzG7s0xcBDZ7nN2SxFkKsT95M28SaydBtWXkU8lyURQiJ145pepkFM9N/8hyTrCmYtY/9GLn2Q80ggknHdIvJdWiLUT6j4eb5wcYW3QyQ2LNyLf8+exf4lWxCRKoaQi32fIzGPlT2s23ns23UEV59o4FiiCkI6DMPkeTPx1dCu+Kiy59uvgFG8DDzY9JZDSTSbfRiHD2daNvbDe+xb2sEZxV4aMq9FYszdTO/XV5PKpdxjUj46j39MTbynuJGQj+8bTTwe3srvYOoofhgfhrCwXJapa3HGoquvcnAvwnYIUSPpwe3cL4TKBsGF6z+SioTIrP1s4+8lmF4LMZu84JrewMv3X+jc2YqZmV7D2RG3mMtp5qh+eAxLMrVPWLyPqyzx7K/vMSlT+/enTcms55E/p7exy5T1efuwMiZGg+aOtW8WBcHR0cyBQ9MOF1IGaFT5nyV/lpzK9VN18QpmwnRiEXZg3PLlWJ7LsvibbqjA/8pr+TcWCWwEIJRCXkwI7YVjWDtlC3YfT0aatDg83NjThRYabiNbp8aDE79iyeRQhM3chCNXn0AldIZvlRB0GDYZ82Z+gxE9P0Zlz7cUDmvV0LFvEH0iHt64juvXX71cs3xsKiGEI0OtYqbR0UadhjkTEHtm1V9wFxR2ymd2wozCKRZXkkxdGSRuZZFljjV5IIpwowCM0Grebr2aS/eecRkShc97qOZiarMKEseCyUwXhIIeGIcbiH7M/mYxBDT3ynJykLT0gw/7RKU8xe0rhSETnEH94AR+XTIZoWEzsenIVTxRGiF28UZg3XZo/3H6qMo3J/VAmYr8zy+Kf4Rk9tNYqMf97SMxbNiwl5cvZ+FAvGnz12U0GLmvmWVFyyNrRVUvlHPPfWiQUCKH6fulwugGEuLZFLIjPCvWz1qV5lVuXkEyl3FWwL1y1kKzRfzcTYOO9WqozF1asuUKqal/W74SS11BHcByICqN6iXZ0hUGPHmQdawIsT8WvQNtPYj09/dHSEgIv1bYGBB19QaeMp94Eu966FW7jOmkzA6M+7Aj3mMvgDXRuHTtxRFmBSvu6BVEsx8c7uWY/chSO+edSItL4uresjMHFa1fwTauBuN3YX6mr/yyW8bN2Y6b/K+8nmicvvoYeubZKNmgI9pW5J8Vl8ro1aIC5AIg8dp5iwYe2QT1A5z4dQkmh4Zh5ia2q4QSBov6mL4gPhoJ7He80qIoV9svozKL1B3u5q/Mn0Vg35U4pAk9UWvYYnzVPvfBP6/jxj938Ix5LNJSIRg8sCK/D+zAuOFoE5j9VWn8w2Suf7dDsffRsVumfS9UTuHSv/e5vryu73+JzmN7gesdkR3d77h9O5m5qHCE/0cT8R47qpDBDoxr2DSAC6JT7h/D7fRRsAakGdkDyR1+rXvxQbYUbl2GoHyx/AtXk58kc+c0Scl6qNnK3z4zXHkgrtwBgcWZHwxPcO1gIe9uQnJlUXUIm6qu8AqFvk4wVyJtCXpVZAdv8JUkmI8vuSNbL1iDeycmYfjBk6a+a+nVJ16uPKF7HIHJ6xbhMnenb8oTn85fiYHBrjBGH8G0IVNx7FWZElEjlBwwAl7O/DqzXyJmv0RCI/RKFbjPEhihjJzDnMCYq/hsq0dI4NJuPYKquGRT99cdnt3XMMeBKQtmVLNl1ZgfhA4Qp/yDyyumZ62xmkdF+u5B945l0ktOCUQSOMrEgF4DlcZUwgjq2/hfeCv8+3avQ/KGmza5J2qzs8YZtVCq9NzzzyasjPEXsHHUzziZ9KpThg8Gf78Kn5aXQXlhBVqN+pVvfwP1VmNgeB2kz9QsEMNRLoHQqINKpeP7bibhyrz62P+XNWenMyo5IE0PtVLDhEVCSORanJ/XHukFGVw/wqTlYQjhgyp2sI+pvBQ7EBa4s2UYhq0yTztovk9x1nq9jFdWdGBLpC2ch25Bzsy9GZn3uAraNAc4Oqrx4IEefqWKvLI6BMTBCFs1Cy1KsfvE/x7XZYZ5HWJ+xxi++kTmOsG7w/ojY3ey30+r4tAQ9RYsQaMgV9M3Q8yxr2KOfe7ZF0nh+PwE1nXtnV63liuRNq0D/NgrQ35bodQRUrZecMp1/BHWCiev8wPamLNBmUnH8WmIF3PfadCrVdCwz73gEa7dLYIg5jxt1Cbj6aXt2Bk6GbHZVpMAKsy8gK41XV+oJsFz6IAW6+egRjH2ERihVaq5gYLs/qfdXo3Vn0/HS9//BQzHyqUdUUb2HGcWtkXYbr7dYmKU/fY42n6QUYxd6CCDI1uXWsscz+aRi/F/Y3ufgbhrWnt7xFUw6oeZaF1aBt3N7eg7eBli+JuIfbLoYtF2Z1yzE8a72LhlCBadjEJsqp4JbhVQyIRQJ97DfxHjMcocALPSq0+8XHlCLpPl4wChOGyZ+zuuK9Mg9mmEcavmY1g9z1d0RZAwQZcCEubvmxY2AGbbhRDLM9rf/BhMQNz2ibhx9jZSVVoIZPx9OwphEEot/jpRIHNknk8593yyi5wJgNkYTiCWQm5ulztC/Ja6mr42zRWsC1uDAxdikKQTc/ssZS6cnkUdw+qx2QXALDk8FOwFhQ7xj/MpupdkfS4VbADMtjMXKhntjpBY/enoATbM/AlH7yZydXNlzHGmcBRDn6KC0M2X34aR9Acm9/8cS/afx4MEFQxiR+bxse9FRwi1OoicPPgNLaC/iVVfz8K2Mw+QyLz52fe4o4MGD/+3Gpvu5DCSXn8eC8JnYDvzewkqg+lcwu4Tc5VnECnwqsrFNkl3DCc+r4+f1h3D7cfJ0BgzjjG5xAA1XOGV6aUynB+DjaOX4eydBKj4bSVQ4dnNo9gT1j5TAMzS4Nb0odj/7yM8Z557MXOOkOof49zqobiUbHo/CSUuKO5bJveuGDnR7cDB8Mk4fjEGyeo0OMgz9t/o4JF+YZ6Fogjz2cD8r41HTL6MdRdAJDO/N00LGwCzhMz72dwmZ86Bb7cbmgAKv5YYu2IqWjIBMJjn/8R6CoAJc2TQjHHkbXIKGYclY5vCz9GU3jNolIi7uAYjwrczYTKxWZ6fYuHqwajilIKzy9ogdAffTqxcOYxYtRjtA4SI/mMSek7PWjuCFG4+vZfg+77vQZF0CvPbh2Mv316YuH62HBs/CTB9i8Q26J/i1A/jEL79reehiRUyXaIR8pakHJ2Jfl3DsfnkLTx5rgEkbLZUSgeirVMUgzObUdLH4/EtUxOxclI/NAsNxUelpYDuCSIPUgBsb5yLOnMzpmnjo3HH1FToCKQyKORi6FIT8OjCfsz/oi8FwCQdzRhHCHljovcmYP2SxiiechbL2oSCEsHWpgrCf/oO9c31CYX8GAH25zQV7h2agzEz/4KFxSeITRKh+rcbMbuhF5JOzUf78MKYByYkZxYl4LgyTEp2uLNtunLlCgXAhOQj98qeXAktffxjUCLYGqmgNIphnmXSUayHMjUJj2+cxPbpn2EIBcB2qBiCuBlatIiPLqx5YEJyZlEmmBBCMisxeAmWtPaH/tIqdPlqF99KCLFeZfDZ8jlo4avB+WXd8M0BvpkQO0JBMCGEEEIIsTt2OR6J7c/cokULfo0QQgghhNgbi4JgdmBZx44d+TXbw9XAlcv5NUIIIYQQYm8sCoJpsgxCCCGEEGLLqDwrIYQQQgixOxQEE0IIIYQQu0OTZRBiDfosxYE+QZDwq+mSzmJRr1DsSuHXrUzZrzbgx6Yl+LUMuocRGN97Fs7w66SgBGPM2ploWeqlIwcxh0egx7TL/Nrr67F4HwZUYucTyyr5/DL0Gb0dSfw6IYTYKosywTqdjv/JNj169AinT5/m1wjJzodosu4GJh6+m2m5hK7dS/K3FwCDhpuMJn1RqqFNv0z1RJX5kdx+hC8O5dveLYNalWV/lRoDf4sNcqqGLsMHoWXAywGl9UuDTpXpuGEWlTqn10KOom2nol6HushuhIdWrcx6fzqqpkkIKVwsCoLv3r2Lo0eP8mu2JykpCffu3ePXCMmOlgks2EDAtGgMeQ8CxEWD4R3cEMVLFTFNTZtXD/9A/9at0dq89JiA/an8bVbozoLBGfvKLF8ee8zfYmvqYPz3MzC0YzeMnvMd2nvwzW9MAs+yVRAcXAl+riK+rSCkImpL1tdi4Nxr/G0vKzpiL/qP7IUmw1eiU/9AvjWrX8d2ynJ/P1/X8LcQQkjhYFEQzE6ZHBcXx68RUlidwLGhVTGvdRCzDMfpaD3fnrti/Zah7/z16D6mH9iJSa2B2Lk4/AMC4FfMCXkJx6Qevghgti/pbl/VYARCUT4OlghCnwmzMX/+dIS28eLbrIhACCGNDCGE2Cm7PP15enpy/YIJsSfFG/XEF6GhGNG9Pjz5tpwEth2KUGb7wa3L8C2F2UnM/WYuNuzcjHljxmH7M765kIpd0R9bV/+CP5cOwNZVV/lWQgixLxYFwT4+PqhevTq/Znu8vLy4gXGEEGKmvXMIa5asxN7bWr6lENPfwZ1N4Tix42/Y9ggPQgixnEXVIWy9uoKtV7ewKdWWYeCMlvDhv1FPiVyC1YuNCJk8GJW9HSFiPoKT7/yFiAlDcfVxxkAeafXJaPF5G5T1doPcQYA0nRqJ0RdxevlAnDyVzG9l5giPZlNRv1NDBPi4w8nRIaMfbpoOD/Z1wJp5kaZ18/6oL+H3Qa1w9qmpGRiOTnvCEKRIwfVVzfHLzw/5djN2kNyPqOeryeZ2xguP9dWyuX9zdYh7e9G13zzE8s1ZsQPjjqBdsDM0l5Zi1hdz+XaGvDParJ2DYE8t7mxtgg3fP+BvyFCydShGtwiA8cZuzFlwAE/49uwE9/8Og6u7I+6fxZi4Pvv+pZmZq0XkR3WIlqOXoWXZ3HpUJ+DMym+w+pyRX38dr66skHJ5DYaM2IAYft0seMxazGxZCglHZ2CjpiP6hZRDESl7bKbg8cUdmPL1Wlzn42fztjkOsUu5jDVDRmBDpj/kVK0XRvX5CFVKe8FNIYUo/eEbkHB2JYaFbkX6IcsxPwYtLq8ZghGZ7+wFRQYdxIBu5Zl3SybqOzgy+kMcz8PLa64WkWt1CN8+WLioB6o4J+PU8gEI30l1JAgh1smiTDDNGEfyTK+CmhtYpgE7rkzhXg21woagajERNEo1EwI7wCWgKVpN/Bou/K+I66xAz6m9UaWUO/OBrYGSHZQGKdz9aqLp1H34qGbWXrYufbej79hOqFrGC84y5nOdH8jGLUoNdLq3VLEg/bEquSoJ7NUlG7yz+5++P6kqaAqggoKgeCMULcL8oI/H03MvB8C2SKvJWu3g1QvzfOa9q/YLdNBkrqjAv2a5cSrTFT0blYOzkXk9VTrmhOgE7w96Yfp37WEeT6fTZFTNMA2ofLl6Q6qS2fdMh4Ik5GusmN4XH1b2hYeTmDmcMm+vhkanxJvkqI3MPmUci2roXzv9kUcNP0B5NzEgKoJydUPS39eEEGJt7LJOMGWC34H0DGwiYuPP44+wAbgRZ4DLgAgM6V4Bjs8vYtfANrgQ9wFCVm9GSGkHJF9ajY1jpiGO/b5WWhk1Zm5Es6quUEYuwY8j58FUOrcS6q/cjsZlpEi5shrrR001bZ+dgswEZ1Ji7An0bl4Cmiz7moM3ygTL4TfpL/QO8YIx9hh+6dobN9nm4P74bnB1uHPbZE/JZ4Yd+Ezxy5Vhs8opM5yfmeC3zZy91eaSCZakJePK5nCMXnWdCUolqDn2R0xpzrQ/j8TKQSOxOUuqNu+Z2qbTfkV4XQ8YY45j3pdTEBGbl4ulvN9/FqW/RY8lfVFGWACZYFlDhC4agbou0fhzTjiWnVXzNxBCiHWhccHk7XIW4OlvY7kAmJV87iYS2EyeQAgRezQGdIafjwRQReHkTD4AZmkicWrNUURrAafi76PoKyI1iXsgSlWtAFlBVqKyNkIvlBq6He0aeEEADe4fmWYKgFl6LVSZM49qvSk7rVdntDGLUq0D25nAoGOz7hntKq2pi4FRy2YOM7e/pcy6lUp7fBqr1rABMEuL/w5G4jG7whzD4nw49kSKYgiqEYhitliumKU+hrlDOqNDt5EUABNCrJpFQbCtT5aRmJhIJd7eFXUsYs5kSpWdHY5VzfwxpS2fla3gDze2t41jBTTbmHmSCmZZ2AYl2cBA5gb39O9YL+HcnlN4okmDxLsuWs2OwNgDURi15Ti6TJ2OQH9bjSRyJqkwEGP2XEF4xH/o2yUQrkIDki6uw57vo/gtGJc2YlpYGML4ZdGR+0yYzFxf3DmIuZnaJ674k8s8xxxYggmZ2jdcNOX64s+uSm9jlxlbbnDt9io1/h6eFMB1wKFtRxCVyJxbXcqjdehibN4fgb3bN2DF7HHoWadonsraEUIIyTuLgmA2iLTlySbYfbflyT5smk4NdU4dG1UaU19F9TPcj7qBW9dftUTiSaaxcam7e+KHdvWx/sf9uBgVjQSNAE5evqhYrzs6rzyFzj3Lv96EFTZA4CCDQiGHVGSEkUvY6hF/bRsSuVsLB3Zg3PLly3NZvsOA9wvJF1rnl+OzDh3x+bytOHr+Nh4/N0LiVgIVqn+M/tPW4aevQ+DMb0oIIeTNWfTpER0dTdMOk4JxPwYpbPcIsRL3FjbHpmFNX17GfoVHL37LqnmEu1uG4behdbGkVTnM6Nobhy49h1Hkiooff5k+YClbnu6Q5OndoICzb96nExNL3Qokg8f2CZ7S2J9Z3sev/8UjDVL4f7IItXz5DQqBgh8Y9zaJIXWW8j/nJAVX936PyaMHonu7FmjatjdmHX4ArUAG35od0MoK59sghBBbVUhSKK+HrW4hl8v5NWJVbi/G1ZtKpIl9UWvyDjRoXMaiIFIfexGJz7VcH1iBUJyRCdYbYGQbnf1Rvrk5Q+yGgMHN4ZvjiLB/EG/qvAz3gG7wSi+Q4giZu+tLmebE2BSw35jL/BujTmOfAsxEJyFq2Q7cSmX2zKkCao8YyoRbhcOhZWOzdMN49TINGyMtKY/2tjxA7HP2uJGhVJ3eaFr0NY/mlKeIilVyx1J+9TkmhBBiYlF1CDaAZBdb7Vdr63WObYn3F3+gS1MfJjATQSaXcnWBVUrTQKy4I12xbj5fvzcznzHotGQ4gtxN12gGjQpqro+EEBK5GtfmNcbOffHcbelVG0oi/X5ZYpkjpFyRVS0eRQzH+lmHmL/M+gANVm5CozIyJjA1QqtUQy+SQpZ4HdeN5RHozexhyjPcOzYTO+ZuQ+aEs+LTXRg0sCpcmN0y75NI4gj9taUvV4CQ9kWbjRMR7ME+BtPf0TEPQSCWMtsvxMpRS8DErRneqDqEEG7D/8DQjgGQGJ7h3NwG2BOh5G97u2ypOsR7n6/AlGYlM2r5imWQS5koU6eCkh8UiNSr2PDFWGx9mlEd4qXqEcFjsHZmS5TSvlz3lyVpxgTqoXXhyQawBg2U/ABFscyAqJ8GYyRfTqLt3N0YWc2RKx1oLl8mlMjh6MAex2lIjlyDYSM3vlC1Io/VIUqNQ+e5vVEqvUiwEFK5jHlfGpi/p4Epma7Bo919sWXlBW7tRXmuDlFsKH5Y1wXlJMk4v6wPRm+nOsGEEOtkUSbY398fISEh/JrtoTrHb4+QCUblCjkU5sL/Agc4cutySGXZ5Cyj52Fbn0HY/9d1PHmuYaIIR2579j6gNkLkkblnpCccBFpojOL0+2UXsV6N5KdROL1mBLbMNQfArDM4PmkW/r2RALVBwATVTDAcH4nD85chnos8BHBw8kRxX7+XMqqpW0Yh4vBNJKgNEErZfXKESK9i7lv+8htJsxb7xs3C31eeIEWTBgfmopHdL7nYwByAXsjfI9CIxNWzceExs/8iD1TuvQil+FtI9hy411CRsTABsOkQzdQuZy+mTNtbShsxBeFL9uNyTDITZkqY94PpvsXM8SZ2M9e8LgE3sQYqHRuc8n+bWWTMZVhq/H2c27sYo8NeDIBfg0jGHOsZ7w+FggmAuQcrgjS9jXlPSvPhyCztASfuDZGEmH8oACaEWC+qE0yINTBngg0arpRZuuQLWD54AvZnSRtbj9KjfsTixt78GnNC4bOptlgn2DaZM8EO0KmUMCewWU+OhmHg3LzN9PcqnWdvQ+/AjH7M5qx0rpngHouxb0AlyBLPYGHfMOx+cYJHQgixEhZlggkhBUQkRXoWkl3kMkjYjJ2VEsmyZlO57gTkHRDAwTHTccMsjm9YMFsiY7PDme6P65aRu/JeTlw/fmNSDE5TAEwIsWKUCSaEEJJv6k/cjEmNiuH5mYXoG7YbFAcTQqyVXWaCbX2yD0IIsVZ+nq4QwYikmNMUABNCrJpFQbCtB5E3btzA/v37+TVCCCH5wx/OInZa7qeIjspSL4UQQqyORd0hCCGEEEIIsWU0MI4QQgghhNgduwyC/fz8bLrOMSGEEEIIeTMWdYdgKyuUK1eO+tUSQgghhBCbZFEmmK0ZyU6bTAghhBBCiC2yn+4QgaPw4297sGfPHuz8+XtM7VcNzlY8CQEhhBBCCCk49hMEJxog4mc+ci1eHvV6TcPCL6tAzN9MCCGEEELsh/0EwTGLMaBpYzRu3B6zT8bCCBlK1+qEGhL+dkIIIYQQYjcsCoJte7KMJBy49YwJggkhhBBCiL2yKAh+9OgRTp8+za/ZnlYVikPE/J8ScxkXtKY2QgghhBBiPywKgpOSknDv3j1+zda0QoNyrhBAibunf2f+JYQQQggh9sZ++gSbNagOPxe2LMRT3NmbamojhBBCCCF2xaIg2NPTE0FBQfyajYlLgcrA/uCGgI5UJo0QQgghxB5ZFAR7eXkhMDCQX7MxV5di+a7LeKJyQlCPudix71es/34SOiv42wkhhBBCSKFnURDs4ODA/2SL1Di1aQv2nryA63dioZN4oGR5P5S05YdECCGEEEJei/31CZZ1xfwNU9C/cTCKKk/gh1G90LpJfyxI5G8nhBBCCCGFnv0FwTUC4SNnOwI/wN/fLMaui4+Qmma6iRBCCCGE2Af7C4JPPUC8nv3BDd71HbkmQgghhBBiXywKghMTExEXF8ev2Rj1Jpy4rkQaEwT716kFKd9MCCGEEELsh0VBMDtRxtGjR/k1W6PG9isPwVZJ8/SrhwB26jhCCCGEEGJX7K87BKO4QgquPLDcFWUkXBMhhBBCCLEjglKlSr32sDC2RBq7KJU2NOmwrA+mL68Dd6MLSvgVh5MISLnwAz4d9QtNnUwIIYQQYmcsygSXK1cOLVq04NdsRI3SCChVHhUC2ADYgKQb+zD/260UABNCCCGE2CGLMsFVq1ZF2bJlsX37dr7FNrj6V0FpNz1ib1zFI6qLRgghhBBit+yqT3DS3Ys4f/4KBcCEEEIIIXbOLgfGEUIIIYQQ+0ZBMCGEEEIIsTsWBcE6nY7/iRBCCCGEENtjPyXSCCGEEEII4VmcCaYAmBBCCCGE2CrqE0wIIYQQQuyORUGwn58fQkJC+DVCCCGEEEJsi0VBsJubGzw9Pfk1QgghhBBCbItdzRiXV/Va/4pvanhluUJIjJyH3r/uhppfJ4QQQgghtov6BL+CTqdCamoqtyi1Rr6VEEIIIYQUFhQEv8J/B3qj46xP0J5Z5lyIA4XBhBBCCCGFi0VBME2WQQghhBBCbJlFQfDTp09x9epVfo0QQgghhBDbYtHAOFslK9Ydo1q0R82SnlBImPjfoEHSs1s4EfEVFt1IxKueCPMgueRcB8Y5okKlkehT5wNULFoETjIx384wahF1uBM+P5bEN7CY7T8YixF1a8HPQwEptztJiL13HKu2z8Uxld28LIQQQgghb5399AkuMgSz+w7GhwFeUIh0pkFvBge4egXhkx5rMbWSI7+hZfwaLcPcLi1Q3dcLThIjlPzAOm5RqaE1ZA1q/eotxIw2jVG+qAJiHbudEnoHVxQv3wrjh81GCwd+Q0IIIYQQku8sCoJdXV25CTNshyM+bd4OFRQCqO/vw1ezmnGD3tpNa4+5Z55AL3RH9dqfoZiA3/y1BaFTRX9ImZ8Sr6xA78lN0Y4fWGdaWmP0iWTTpiyHXviiQQU4CdS4czwMXaaz27RA61mzcCJWD6FbdbRvWBwW7w4hhBBCCMmRRUFwiRIlUL16dX7NFrRDtVKOEBgf4vieuTijNmdlE3Fw135c1zJPhGcAPsyH7KvMrSJqepcEE29nr3J1lHEUwBh9DPP//A/Pzbuj2ofJ/12HlnlZvIo3hZxvJoQQQggh+cs+Jsso/hV+GtIcJUX8+ivdxZ4ZfbBExa/y8tonuPgH8zD/kw/g6cBHv1x/42jcuX8CB46sxuHnGYXWKjbbhAX1SiLH3XmwG51XzkPmXsSEEEIIISR/2EefYKUKXFE3fSIe3L6O67desVy/jig9t7VFHp8Zg+4zP8V3vx/GmbsxSNCJ4OpVGsHVe2Lc6G2YVqVIeveGRK2pxJw+6SGiXrUvzHLp/jVouK0IIYQQQkh+s5Npk7th9rghCJY/w8kN3THpRt7DS3MmGPd2osvqhcjUszdXMpeaGNhhCloHOCIt8+9XW4Tf2gZDnnAS05aOw7E3CL4JIYQQQsjrs5PqEJtx6HoijPBErfYrMOY9/5z77GZyJoH9PbbPcAW0dc14umSO7pDnch/q5CjEqLTcz0KhKGOg29kDuJjE3GuRWhjZ+yu0KKKgQXCEEEIIIW+RRZlgtjKEv78/jh49yrfYAIeP8M2Qr9DAy1S/16hTQqVlH7oAYkcx7h7qiBGZKziYuQzG4uHdUdGRCVMNGqSq9YBICoXmPBYuHoN9XM+GhpjwxWQ0LKKHUqXj6w2z9yvn6v8y4TBuHfkCnx+5DgN3GxNEl5+KlZ82RDFud4zQqlTQsdG2QAxHh7vYOmcwfsq+KDEhhBBCCHkDIldX12/5n/MsKSkJ9+7d49dshPE2jp07hWciX/i6uEKhkEMmkUAicYBAq0bS47+w/07CyxNmaM7gSkpZVPYpDldHKaTM74jT1EywG4drpyNwhYtq38dHtaqiqKMjHKXsfZrvNxXP42/i74OzMP2fS1kG1emfHcH+a/Fwd/KDh7MCTo4y0+85CKDVJOFB5O/4jybMIIQQQggpEHY1YxwhhBBCCCEsi/oEOzg4QC6nKraEEEIIIcQ2WRQElytXDi1atODXCCGEEEIIsS0WZ4IJIYQQQgixVRYFwYQQQgghhNgyCoIJIYQQQojdoSCYEEIIIYTYHYuCYJ2OmyGCEEIIIYQQm2RRnWB2YBy7KJVKvoUQQgghhBDbYXEmmAJgQgghhBBiq6hPMCGEEEIIsTsWdYfw8/ODv78/jh49yrfYGhkqth6BIV1qo4ybBAIk4/zSAfgmQs3fTgghhBBCCjOLMsEKhQKenp78mu3x7jcHs79sgaol3OHEPBaFQgaa/oMQQgghxH5YFATb9oxx3uhcvyKcBID6zj6Et22Cxo07YhxlgQkhhBBC7IZd9wl+enUjTj9/7d4ghBBCCCHExtlhEByDY7eewMD85F2mNZxMjYQQQgghxI5YFATb+mQZ5/ddwRMmCnYIqI6eXgK+lRBCCCGE2AuLguCnT5/i6tWr/JoNOn8Rj9huEA5FUbqmjG8khBBCCCH2wqIgOC4uDleuXOHXbI0MxVvXhb8LmwHWQv2M7RhBCCGEEELsiUV1gm1Tc4Qv/RTvl/ZBUUcx0rQJuPXHEoyd9xeSaGwcIYQQQohdsSgT7Orqyk2YYVt84Fe+FLyYADj18Q1cOfcXdv16CskUABNCCCGE2B2LguASJUqgevXq/Jqt+AmffdwY7fvPwu/3ZQio2R6hKxbi8/Ii/nZCCCGEEGIvLAqCbXmyjKS7Efhx3M+4kGAEZB7wLS/hbyGEEEIIIfbCoiDY5gVWha8r89CNKYi/qeUbCSGEEEKIvbDLIDiwdSV4i5gYOPoKfrtB1SEIIYQQQuyNHQbBMjQMKA62J/Dj67tAMTAhhBBCiP2xKAhOTU2FUqnk12xNabjKTbPESeTFIOZ+IoQQQggh9sSO6gRnCA5fj1nNSsLBqEVC9F081Wpwa2UY5v5L/YMJIYQQQuyBXfYJPr9oOraci4UaEriXLI8KAWVQqqztVrwghBBCCCGvxy4zwelkxVGxQnHIUh7g4q1nMPLNhBBCCCGkcLMoCA4KCkJgYCC2b9/OtxBCCCGEEGI7LOoOYcuTZRBCCCGEEGKXfYIJIYQQQoh9oyCYEEIIIYTYHQqCCSGEEEKI3bEoCNbpdPxPhBBCCCGE2B6LqkPI5XJuiYuL41sIIYQQQgixHXZZJ7h27drw8fHBjh07+BbyVknLoFm/XmhZpxL8ikihvLIWI8K3gy6pCCHE2rTCd1uGoIosFXH3ruLI5mXY9E8cDPythNgyu+wTrFAoIBAI+DUbJApA209WYlP4H4iYchQHmSXim18xMZC/3YpJKw/B4p9XYGyXhqjkWwTOzGshl0lzOBAFEJfriWLV60LEt9gUWQ1UGvodKr/nxDcQeyUuNwB1PvscPgq+wYr1WLwPhw8fzrKsCyvB31r41P56Ew4yj/G3+R3hyrdZDxf4dJqBOq2qQMy3vF0SyOQKKFy84Fc5BH2/W49Ns3rAzyZPyIRkZVEQzGZRq1evzq+Rt0oagvBBP2B47fIoKhdCq0xFamoqlMpkJDznt7FWPt0x49tOqOQuhvH5HRz5YRQ+bdYYbUf+jKf8Ji8SVJ2Byt16ovQn41GhaVW+NR9IfCDzqQJHr2IFeCVYCyHLNqFDlx5oN30ravjyzaRAORSvDp/ghihWwoW5hLISZaaj+6Jv0LTTGHSfOwUefLO10qqV3HmFXVQ6W/2yUAavClURHPwefJ1tN9/jO+4A+nzWDU1HbUDbziX51rdpB8a0aYw2fSZjwz8PoGKf1xq9MHVcA9ClPbF1Fp0Z3Nzc4Ofnx6+Rt6lE9R6o6yNBmuY+Dq1vg9YzP0H7WcwybwCWPOQ3skpStPy8PSq7i5CWHIn1IwZj6i8X8DTPYyyFEOTj55ggYBgqDJyNKp0HQc63FSSBkNl//mdSsHyHfY/+89fj05EdrPDbAwGEzLFg7X4d2wmtW7fmlp+va/hWWxOMQRPnYP787zDqY2e+zYYxJ0BhricRCYr4BiAgwBdFpHxTjpxQLIDdvniuAW3Kg6NYM34wwnfdhCpNgpIhgzGyjiN/KyG2yaKzsa3PGKfX6/mfbI0fPinvB0cYkXj1Vyy6lcK32wDPT9G8chEmKFHh+p5Z2HA/bz3K0i5Mw7Wd23BnH/N/xAW+1Vb8i+MTx2Lvjk3YOa4T/nvANxP7c2sSdn63BIe3zcXG0RPwjG8uEAIXlA/phhETBqEx30Rs14P5A7Bt/a84NL8Hdm7NLdNREW2HhCI0dCjaBeblsjsEPcew2/fEh3mKBjS4tHgeDtxhLozEJVCtfWMr7D5CSN5Zf0qiADx8+NBGK1soUEQuY/5X4f7dCGhNjTZB+tH7KK1gTsqJVxGxI5pvzYsUqCJX4cnpv21yIIbx0W84s/RrRF62oQsWUgB0eH5iHv63fCmiU/mmfCZwKY+QbiMwadZ3+LJrAwR6KUAT3BcC2qu4sTYMJ3+/COtI31zH5v/dYj6FAHf/OqhCyWBiwyyqDlG1alWULVsW27dv51vI2xGE8OEr0KRYCs5tb4nwnBKjQh980mwyelQpDU+FAwRpBqiSHiLyn8WY+fdpJrQ0M98nv5p6DsvmroBzh8no9J435MI0aBNu4NjBSZh9+XWC16wafbsFXzf0gvryWgwasR6P+fZXEVSciipdaiDLuTUtFg839cLD2/y6mehj+H0+Gt5ON3B7zQnIPumE4j5OzNWdEfrk+4iJCMejq0lZt80xdWFE6pnvELn3BL/+uqqg7g9b8VE59mIlg/rmz1gzeDxi+XWLeHTG+KkfIrdegfqY41g2dTPzUWUhWXW8HzYNNYL94eku4wbjGLUqJD46g/+WjsCpcwnIfNJwqDEDbb9oiTLeLpAyl9VGbQribvyFw1O/QNRTI78VaxK6H+yHsuJ7ONouBEeT+Wa0xSe/LED1okI82F0NaxbG8+389spz2DXnGgK/6ICyRdlBlAZo4qLw96zu+N8Zfl8arMdnkxrCM8fL+iREzquDnXuV/HoGSc0xWDHxE/gLH+DQ1M8w8+TL27w23wnovnwgymYZCKdlHmMf5jGe5NfflAAu5RuiZbNGeL98MTjx/T/0z2Nw68rf2LPuT7z4lnld7CC5AZVkeLC/F/rMecS3vooLag/7BsOaBKG4uyMcBEboVAl4dGEfFk9Zg/NqfjNW7a+xaUoTeD85hIk7HNCnV10EuEkgMDIXCzFnsWXCBGy+l/Wy16XJaMwY0Bhli8mZ+2aOgfg7+OuHX+HQNwyNvWOwv1cfsLvHDnKb0sQ750FkyeexrM9obOdPDebfUZ7/Ad9HN8agxgFwl4lg1D1HzNktmDBhM17YHZ4MDcf/gK+alIDxzj589dl8XMyH7IT3qGPo07oUJPw6J/UaDgxrjv9yTAZXQb9pQ1GjSAJO/zgBP53P7eO9JcYsY967gtvY//lc7Mn8ds1J5dFYM6cV/IR3sWdYfyy4xbcTYmMsygTTZBlWTuiPnp/+gJF1yqOoQgy9KhWpaiNkbn6o2Ww6FnxcJ9PJlfkwUbMDYJTQsCdAhyKo/Mk4fFrJCyKmXcW81BL38mjS6mt0f4NR7R4uCq5/ZvLT87kHggY1dKmp0HKLEoa8nJiFnnBv1g4+xSXQM7+nNwghdvGHb/v58E4f1K6FgXkuuPtVaU3Bk1HL/52M5c2Obz3zfLODikyLUq3PEjC+kTQt1Mz+mQcsZbco1czj5H/ltcm6oMXqzWj9YUUmkJEgTck+Dg2MEkcUKV0fzb/biYaVM/KLDk3WY+B33RBUggmA0zRQpqqgFzvB671W6LJiKyq550NPaBcvvN+vE8oXYS4mmPvXGkWQegbiw6m/oJYnf/86FXMb/5xzB7IpcDe/DqaF+V3tq1+NoAaVUUIugEDmi0qN/PnWN2RQQcM9f6ZFnZ8DzMxdHibNwndfdkWDQCYATnuO6EsnsO2HrxEaPhWL8iEAzjsmGJywHJM7fwBftjMqd07RMM0e8K/dCzOWj0aVLBEdz6UC+n5aH6UVBu7Y0Qkc4FyiFgbMmYpmmTqpyhpOwPKxrRBYnAmAjRrmvtUwOpdBs0E9UdYla89vnZp93dm/z5zTuDcCG4xnfY+kKpnX5lUvh1sT9Pu4DPNcqpHKnPwEDs4oUWsA5kxtlk2f2WA0eM8bUoEQjv6V8ZEn3/yGDMxjUKYftxoY8vHQyReRdxHPBvtiGZydqUwEsV0WZYLZ6hDscvr0ab7FtpQsWRJeXl44e/Ys32LFvMbi+36NYErUCiB2lEMqTGNO6komGOAaGTo8+vcbfP7XRW7Nscw0rOzdAF5pSbh4YBTG/3MLWmFRNG6xCKNrlYBEcxu/reyH5VlKMvAZ4aJKxMdH49zekZh1KwUiz+FYPKgLysmScWZba3wVyW/+mjrO34PhwQpE/zEUPadH8a15YM7euuSSCXZlPuriTuLamslIZr+nk7WE35ARTLsRKae+xaX9/5m255mzzbJn/8PlZdMyZcbzl8fQP9C/S1kI8iMT/BYETD6N7g08IVQ/wn+LPkVExAMuiHcoPhCNZ45CkPZP7A4biVtJbGtpNFh5EB+WcYDu3l5s/OJzPHieBofA6egyuxvKKASI/3sUVkzYyQflFmaCxYDmzm5s+nIkHjL3j9LT0XNpNwQ4puHezg+wbkkCv72J+TE8P/0tlo1dm7evkL3bY+rM3ghMu4wdkyfh5zsWX0ZkoxxqLtuF5oHifMkEO7Ybi3kfs8G6Hs+jr+Hi3yew738XkFAAfaTylAmuFIq18z5BKVEiLqwZhdBN97jXXFZ+IGbP/hSVXFJwflkfjM5IvZoywWIjEi+swajQTVymVdZwIlZPaMS0J+LMwr4I280eJDL0XLwd/Ss5QhdzHAtGTsaBOObkJyuPgbNnMxfsLmCOnPRMcIba+HrTFDTxVmb926+Qnj02Zt5/JrCfuBoTGjHtiWewsG8YuN15ge+nszCzWwA0Z7dg/NTteJyXi/bXUXkB+s1uD1/9qzPBLccsQ8syuV1smjPDlflMMd+crdwywx0wb/fneN8pBZdWD8IXm57w7YTYFosywdHR0TYbALPKlCmD0qVL82tWTiiDo0LB1TZWKNgAmG0UwMHR3GZqlzmYv/wToXxgOXgx50RtzAlsYANgttkYi8NHtuMy+zkg9UGligFs68uYvyd4uAsL+EF3hrgjuM+e+NmRyRYdLW+LDvHnZpkCYJb6EBLuJXI/CoTUMzJv2qJixSJcV5IHB7umB8As3eNViOj7HhYM/oIPgBmyAfDzY5/bJFzbFsYFwCzd1fH46+QT5l6AImU7oOQbP/1JiNoxzhQAs+6Mx03uu2nmmBTlQ6aZFbMT3/Rpj059JxRAAFyAdMl4+vAR7t69WSABcF6VbxoEb+Z1Tr26E1P5AJiljlqFdf/EMKG6C4pXKpP1632W8RFOLsnoaqA+dhBXYtnLFiFEDubXtjmqlDKNhbj5xxJTAMxSR2HVj//Dw/z8YjLmFJZuNu+/GscOXoFpd0RI350XPNgSjh5tO6P/5AIIgPNAx2XdzYs5OWJML59pWlTQcleDemhUKZna1fxFov6Fb5k0zBmVkMLPqsOagiIWv5uS4xZ5PAV9JobgY24Zhj+5C262T7C5jV2aYuAhc1a7KIJcTV/caRNvIku3YeVVxHP98oSQSN24ppdpEBP9d6ZBd1cwaxn7N3Lpg5xHApGsYMpWpSVC/SRzp0Py+oLh5s6eEp4j8UZ87t04apSCC3cGSUT88ax9aB89SeKCYEgcIX/jF/zl+7d36sO7sOvfu0hIc0OZms3QI3QWFkwZg75t6yHgHUzGEeRdhOuDq3ivH7a9MMnGnI9LcLfJXUtn7efPSnmG289yixwVkEnYCDQOdw++MKD5UgyS8/GaJTk2CuYY21YcXDYWYWFh/LIeF7hr/yRc3Ji5fRo2XmLf0Vfw83eZ2//EPe6Nfh9Hws1t7MJcbOTpeUhB3GWa65PYLouCYLlcDk/PfOr8RKyMARpV/p/UniWnctkVF69gJkwnFmEHxi1fjuW5LIu/6YYK/K+Qwikt+Toi1s3G16PGY9Guf3E3QQ8HzzKo2awHQmctwNRxg9G5XgATPr4dSq2Ou2hSxd5G1PXruP6K5dr1a1xFAVIIVPZHETatn2aAVpWPVyGEvGUWBcH+/v4ICQnh14h1icWVJFNXBolbWWSZY00eiCJc0QIjtBpTV4G35dK9Z1x2WeHzHqq5mNqsgsTRCidUyEaBD4w7j8QENv3jimLVquV+cjh1H8lctsgNRRpknXKkRDFX0+9rVVDmujOekHKZvvzlIPMs/BOUpCXjesQ6zP56FMYv2oV/7yYw7zMpPEoF48OubVCf3yw/OHt9gOzeunefPeeOOfHzi5gxfBiGDXt5GffD5UzfML0OA4xcttIV3rVfKO1SyRsvjIt7BQdIXahLVH7y/CAAXmwQnBiDyJxK/RBi5SwKgm19sozCzYCoqzfwlPnQkHjXQ6/afD88dmDchx3xHvsZoonGpWtvb9w4K+7oFUSzE0+5l2P2w93U+A6lxSVxfd4EThVRtH4Fy94Ib1v8LsxP/7oy+2XcnO24yf/K69mFCxeect0YvEKWotPg5lDk9MSoV+PePfZZdEXFTnPg62wKOdmBcY3qmKajjr+5I1OfTR3SuKDZB2UG1+WfcwW8hnVFgEv+hatx8alcVlJethUaVHcv/IEwJw3J1yOwbvbXGDV+kamrhC5P32fn6h7zXuG+xSnxAd7nusuYuLi7p19ARv18ErfVzGsf0AIzZw9Dg+L5eWl5BJfvs12dXPBeh9Fobq6Dxw6MG1w/hz7nd/AshX0OHBHQcCDqZ9p38iZ80Lq6H9h8SuLdkziZ/XhDQqyeXdYJrl27NlfdYseOHXyLrchjnWCuRNoS9KrowgQAfCUJJhSWO7L1gjW4d2IShh88acrKpFefeLnyhO5xBCavW4TL3J2+KU98On8lBga7whh9BNOGTMWxV00aIGqEkgNGwCt9llMBRMx+iYRG6JUqPiNkhDJyDq4d/C+H6hESuLRbj6AqLtnU/XWHZ/c1zHFsqudrVLNl1ZgfhA4Qp/yDyyumw5I5DYr03YPuHcvAPGOpQCSBo0wM6DVQaQymfrbq2/hfeCv8+3avQ/JG1gVNv5+M2qUcTcGjQQOl2rTfArEM8pjfMLv/aJh7X3Ml0sIboijb6ZPb1sgcR46QMPGGMeE0fhvYGZcSzKcYBd5f8B9aVVUw922ETqmGViiBQn8dV55URFAZEXMX8Xjyz09YN3kpEzJnV02CeQ8vv4mPK7KVFjJXk+DJRqHz1i8Q6MQ+AgM0qRpu8A+7/9oLE7B83M/8YKBMGnyDn7/5EMXFMTg8ogemvfFBH4Bq87biw/IZGXKRxBEyJmBjy18xTylHd38ntgz/GlkKtVib9EoOzGuqU0HFnBy4Y+HpQfTqMwfmggy+fRZjSa9KfD9x9nnnB10xr7E89Qym9R2PI+au3eb7VGat18vc8MqKDmyJtFVfN4YPG/Ayx1mqWs/cLXO+ir2PR55+8JW8qjoE83vtZ2Pz8OpwZfeJ/z32nCKWaXFpibn6BLs75jrBy9Bn9HZk7E52+5nh42m/YmxdDwgf7M/yfFiMuYjsPq0dvNNHEYogk0uZf/VQK83f8ihx9+dO2L75Lrf2Nvl0m4cl/d+Hu/Apjk/qh0n/o04uxHbZ5aXxP//8Y4MB8Gsw3sXGLUOw6GQUYlP1TFCigEImhDrxHv6LGI9R5gCYlV594uXKE3KZaaKE/BGHLXN/x3VlGsQ+jTBu1XwMq+f5iq4IEiboVUDC/H3TwgbAbLsQYnlG+5t/G5GAuO0TcePsbaSqtBDI+Pt2FMIglFo805ZA5sg8n3Lu+WQXORMAs6GYQCyF3Nwud4TVjs1Ub8Whvg2wcedpPHzKXAwJMvZbLtZBKSmKUuYIn6H7szcTnGzGlUfJ0HDbMo9Nn4Knl3/H1mFdMgXArFSc+2okjlyOhUovhINcBonqLo7P642HfA1dkbQIfPwC3qyLinoBfgtfjP9uxCJVI4A00/5DUvLVJ70irnBiX5OUeNx7Iaa2jIgJtPjXm19kXHkB5qIuU7sjc8Fg9Sfhf+Zh7rYLeKxk6+Y6MvutYC7y1EgyiBGQqRfMg3VfoPeEjTh+/TFSNGCed756DVs2OM0BXpmOm9elPjYNXy0/hGuPldAx70+FQgbh8+vYNf8vJOWQ8FbvnIjw7/9gfi8FGmavzdV0xEwsLPF8qVaFRYq6KLjXMPnZ7fwptSh2hFSe+dhhAmDTSQSy9DY5JNK3fBKRFkWdQfMwv08w3EVpSI7cjeUUABMbRzPGkbfKKWQcloxtCj9HLs8Ig0aJuItrMCJ8OxMmE/JuBI9Zi5ktS8Eh+hBG9JyBK3w7sXIfT8OvY+vCQ3MVG/oMx5q3fhIxZ66FuPd7b/Sbb/msmtarFb7bMgTVPOSQctE42/VmB6aHLcN/BVVgnZC3xKIkBM0YRyyVcnQm+nUNx+aTt/DkuQaQsNlSdipcQt6dou4K7luPlGd36WLMRrhU7obpfWrAgzl5pN7+B7veyQtXHK4K9nuLZMTdLKwRoQQy9ls4oxrJT6/j+NqvMfBzCoBJ4WBRJtjWsZUt2BJvlMkmhLAf8p3nb8MwdkbDQyPQcwblga1O59nY1juQ72vP9ulls5LcCoyJl7BxfCjWXrOs9sQbkfXF0p29EeRwD7/37odCmQgmpBCzywScTU2WQQgpYEEoxRU9TcGzu5QHtkpJWqSlz5LJdjJOReqzh7h4ZCXGDfjy3QTArOAScOcSwXEotIlgQgox+haaEGLnXCATqJGaGosH56y6ToP9OjgBnT9qjMaN2aUpWrRujdade+PLqZtxmqtt/Y64MRdPKiYgf/oApzJVLyGE2AaLukOwg+LKlSuH/fv38y22pUmTJnBzc6PuEIQQQgghdsqiTDBXPkuedYYoQgghhBBCbIVddofQ618qlU8IIYQQQuyIXQbBly5dwvnz5/k1QgghhBBib+wyCH727Blu3brFrxFCCCGEEHtjURBMk2UQQgghhBBbZlF1CFdXV666wr179/gW2/Lee+/B19cXBw4c4FsIecf6LMWBPkFgq9VmkXQWi3qFYpeV1iAt+9UG/Ni0BL+WQfcwAuN7z8IZfp0UlGCMWTsTLUu9dOQg5vAI9Jh2mV97fT0W78OASjJ+LUPy+WXoM3o7kvh1QgixVRZlgpOSkmw2AGaxs8WxFS4IydmHaLLuBiYevptpuYSu3UvytxcAgwapqakZi1INbfplqieqzI/k9iN8cSjf9m4Z1Kos+6vUGPhbbJBTNXQZPggtA14OKK1fGnRsvdpMr4VKndNrIUfRtlNRr0NdOPAtL9KqlVnvT2d3k4sSQgo5u+wTTDPGkbzRMoEFGwiYFo0h70GAuGgwvIMbonipIhDwbXny8A/0ZycCMC89JmB/Kn+bFbqzYHDGvjLLl8ce87fYmjoY//0MDO3YDaPnfIf2HnzzG5PAs2wVBAdXgp8rP89vgUhF1Jasr8XAudf4215WdMRe9B/ZC02Gr0Sn/oF8a1a/ju2U5f5+vq7hbyGEkMLBoiCYzaQGBQXxa4QUVidwbGhVzGsdxCzDcTo676X1ivVbhr7z16P7mH6wlu8cxM7F4R8QAL9iTshLOCb18EUAs31J9+xyhYWTQCjKx+xAEPpMmI3586cjtI0X32ZFBEII7TIVQgghFgbBXl5eCAx8dfaAEGKdijfqiS9CQzGie3148m05CWw7FKHM9oNbl+FbCrOTmPvNXGzYuRnzxozD9md8cyEVu6I/tq7+BX8uHYCtq67yrYQQYl8sCoIdHGw7M0STZRBCXqS9cwhrlqzE3ttavqUQ09/BnU3hOLHjb1CtH0KIvbKoOkTVqlVRtmxZbN++nW+xLVQd4i2qtgwDZ7SED3/dlBK5BKsXGxEyeTAqeztCxHwEJ9/5CxEThuLq44yBPNLqk9Hi8zYo6+0GuYMAaTo1EqMv4vTygTh5KpnfyswRHs2mon6nhgjwcYeTo0NGP9w0HR7s64A18yJN6+b9UV/C74Na4exTUzMwHJ32hCFIkYLrq5rjl58f8u1m7CC5H1HPV5PN7YwXHuurZXP/5uoQ9/aia795iOWbs2IHxh1Bu2BnaC4txawv5vLtDHlntFk7B8GeWtzZ2gQbvn/A35ChZOtQjG4RAOON3Ziz4ACe8O3ZCe7/HQZXd0fcP4sxcX32/UszM1eLyI/qEC1HL0PLsrn1qE7AmZXfYPU5I7/+Ol5dWSHl8hoMGbEBMfy6WfCYtZjZshQSjs7ARk1H9AsphyJS9thMweOLOzDl67W4zsfP5m1zHGKXchlrhozAhkx/yKlaL4zq8xGqlPaCm0IKUfrDNyDh7EoMC92K9EOWY34MWlxeMwQjMt/ZC4oMOogB3coz75ZM1HdwZPSHOJ6Hl9dcLSLX6hC+fbBwUQ9UcU7GqeUDEL6T6kgQQqyTXfYGu3z5MgXAb4teBTU3sEwDdlyZwr0aaoUNQdViImiUaiYEdoBLQFO0mvg1XPhfEddZgZ5Te6NKKXfmA1sDJTsoDVK4+9VE06n78FHNrL1sXfpuR9+xnVC1jBecZcznOj+QjVuUGuh0b6liQfpjVXJVEtirSzZ4Z/c/fX9SVdAUQAUFQfFGKFqE+UEfj6fnXg6AbZFWk7XawasX5vm0+IsdHTSZKyrwr1lunMp0Rc9G5eBsZF5PlQ5wcIL3B70w/bv2MI+n02kyqmaYBlS+XL0hVcnse6ZDQRLyNVZM74sPK/vCw0nMHE6Zt1dDo1PiTXLURmafMo5FNfSvnf7Io4YfoLybGBAVQbm6Ienva0IIsTYWZYLZQXFsn2BbzQSTdyA9A5uI2Pjz+CNsAG7EGeAyIAJDuleA4/OL2DWwDS7EfYCQ1ZsRUtoByZdWY+OYaYhjv6+VVkaNmRvRrKorlJFL8OPIeTCVzq2E+iu3o3EZKVKurMb6UVNN22enIDPBmZQYewK9m5eAJsu+5uCNMsFy+E36C71DvGCMPYZfuvbGTbY5uD++G1wd7tw22VPymWEHPlP8cmXYrHLKDOdnJvhtM2dvtblkgiVpybiyORyjV11nglIJao79EVOaM+3PI7Fy0EhszpKqzXumtum0XxFe1wPGmOOY9+UURMTm5WIp7/efRelv0WNJX5QRFkAmWNYQoYtGoK5LNP6cE45lZ9X8DYQQYl0sygSzmYm4uDh+zfZ4eHigTBl7GOxjhZwFePrbWC4AZiWfu4kENpMnEELEHo0BneHnIwFUUTg5kw+AWZpInFpzFNFawKn4+yj6ikhN4h6IUlUrQFaQlaisjdALpYZuR7sGXhBAg/tHppkCYJZeC1V6JpFZ1HpTdlqvzmhjFqVaB7YzgUHHZt0z2lVaUxcDo5bNHGZuf0uZdSuV9vg0Vq1hA2CWFv8djMRjdoU5hsX5cOyJFMUQVCMQxWyxXDFLfQxzh3RGh24jKQAmhFg1i4JgdqKMo0eP8mu2p1KlSggODubXyFuljkXMmUypsrPDsaqZP6a05bOyFfzhxvapdayAZhszT1LBLAvboCQbGMjc4J7+HeslnNtzCk80aZB410Wr2REYeyAKo7YcR5ep0xHob6uRRM4kFQZizJ4rCI/4D327BMJVaEDSxXXY830UvwXj0kZMCwtDGL8sOnKfCZOZ64s7BzE3U/vEFX9ymeeYA0swIVP7houmXF/82VXpbewyY8sNrt1epcbfw5MCuA44tO0IohKZqz6X8mgduhib90dg7/YNWDF7HHrWKZqnsnaEEELyzi77BNNkGe+QTg11Th0bVRpTX0X1M9yPuoFb11+1ROJJprFxqbt74od29bH+x/24GBWNBI0ATl6+qFivOzqvPIXOPcu/3oQVNkDgIINCIYdUZISRS9jqEX9tGxK5WwsHdmDc8uXLc1m+w4D3C8lp7PxyfNahIz6ftxVHz9/G4+dGSNxKoEL1j9F/2jr89HUInPlNCSGEvDmLPj3kcjk3YQYh+e5+DFLY7hFiJe4tbI5Nw5q+vIz9Co9e/JZV8wh3twzDb0PrYkmrcpjRtTcOXXoOo8gVFT/+Mn3AUrY83SHJ07tBAWffvE8nJpa6FUgGj+0TPKWxP7O8j1//i0capPD/ZBFq+fIbFAIFPzDubRJD6izlf85JCq7u/R6TRw9E93Yt0LRtb8w6/ABagQy+NTuglRXOt0EIIbbKoiDY398fISEh/Boh+ej2Yly9qUSa2Be1Ju9Ag8ZlLAoi9bEXkfhcy/WBFQjFGZlgvQFGttHZH+WbmzPEbggY3By+OY4I+wfxps7LcA/oBq/0MmiOkLm7vpRpToxNAfuNucy/Meo09inATHQSopbtwK1UZs+cKqD2iKFMuFU4HFo2Nks3jFcv07Ax0pLyaG/LA8Q+Z48bGUrV6Y2mRV/zaE55iqhYJXcs5VefY0IIISZ2WSe4SZMmcHNzo+oWb4H3F3+gS1MfJjATQSaXcnWBVUrTQKy4I12xbj5fvzcznzHotGQ4gtxN12gGjQpqro+EEBK5GtfmNcbOffHcbelVG0oi/X5ZYpkjpFyRVS0eRQzH+lmHmL/M+gANVm5CozIyJjA1QqtUQy+SQpZ4HdeN5RHozexhyjPcOzYTO+ZuQ+aEs+LTXRg0sCpcmN0y75NI4gj9taUvV4CQ9kWbjRMR7ME+BtPf0TEPQSCWMtsvxMpRS8DErRneqDqEEG7D/8DQjgGQGJ7h3NwG2BOh5G97u2ypOsR7n6/AlGYlM2r5imWQS5koU6eCkh8UiNSr2PDFWGx9mlEd4qXqEcFjsHZmS5TSvlz3lyVpxgTqoXXhyQawBg2U/ABFscyAqJ8GYyRfTqLt3N0YWc2RKx1oLl8mlMjh6MAex2lIjlyDYSM3vlC1Io/VIUqNQ+e5vVEqvUiwEFK5jHlfGpi/p4Epma7Bo919sWXlBW7tRXmuDlFsKH5Y1wXlJMk4v6wPRm+nOsGEEOtkUSbY1tGMcW+PkAlG5Qo5FObC/wIHOHLrckhl2eQso+dhW59B2P/XdTx5rmGiCEdue/Y+oDZC5JG5Z6QnHARaaIzi9PtlF7FejeSnUTi9ZgS2zDUHwKwzOD5pFv69kQC1QcAE1UwwHB+Jw/OXIZ6LPARwcPJEcV+/lzKqqVtGIeLwTSSoDRBK2X1yhEivYu5b/vIbSbMW+8bNwt9XniBFkwYHuWm/5GID4OCF/J1z0YjE1bNx4TGz/yIPVO69CKX4W0j2HLjXUJGxMAGw6RDN1C5nL6ZM21tKGzEF4Uv243JMMhNmSpj3g+m+xczxJnYz17wuATexBiodG5zyf5tZZMxlWGr8fZzbuxijw14MgF+DSMYc6xnvD4WCCYC5ByuCNL2NeU9K8+HILO0BJ+4NkYSYfygAJoRYL7vMBBNidcyZYIOGK2WWLvkClg+egP1Z0sbWo/SoH7G4sTe/xpxQ+GyqLdYJtk3mTLADdColzAls1pOjYRg4N28z/b1K59nb0Dswox+zOSudaya4x2LsG1AJssQzWNg3DLtfnOCREEKshF1mggmxWiIp0rOQ7CKXQcJm7KyUSJY1m8p1JyDvgAAOjpmOG2ZxfMOC2RIZmx3OdH9ct4zclfdy4vrxG5NicJoCYEKIFaMZ4wghhOSb+hM3Y1KjYnh+ZiH6hu0GxcGEEGtlUSb4ypUrNh0A165dGx06dODXCCGE5Bc/T1eIYERSzGkKgAkhVs0uu0OwX+0JBFb8HTMhhNgkfziL2Gm5nyI6Kku9FEIIsToWdYewdVQijRBCCCHEvlmUCWYrQ7Ro0YJfI4QQQgghxLZYFASz3QnYqZMJIYQQQgixRXbZJ5gmyyCEEEIIsW92GQTfunULd+7c4dcIIYQQQoi9scsg+OHDhzh79iy/Rt46aRk0G/otFq/bhl179mDzrI7w5G8ihBCr13sBfmPOXTt+Xo154zuhqhNVGyLEFlkUBOt0Ov4n8k6IAtD2k5XYFP4HIqYcxUFmifjmV0wM5G+3YtLKQ7D45xUY26UhKvkWgTPbv1wmzeFAFEBcrieKVa/LzUJlc2Q1UGnod6j8nhPfQCxXFAG956PGh8X5dWK3XFvigy++Qfni7+isIJVxY2PcipfG+x99hnlbNuDb1q7M2YoQYkssKpHm6urKlRi7d+8e32JbypQpg5IlS+Lo0aN8iw2RhiC83wQ08ZEAaQZoVGro2VdQH4PDvwzAkoemzayST3fMX9IPwe4iGJ7fwbGfF+OHHRfwNIdrKkHVmQhuGwwp9Eg++TWuHLrA3/KGJD6QeXpCoH8CzdMnMPLN+asWQlZvQEhpCdKeX8GBzz/BqQf8TdZMWhqtx7dDvYrF4CoVwqhVIuHuaeyYvRdn495dRcWg2ZHoVN0ZMD7FqQm1sf+fgnnVSAahWyC8/ItCkHIDT2/GwMC3v1vd0PrX7/C+B3Nsxp7Alj49cFPN3/RWuaF0864Y0acDgos5AOrb2BU2BIsuW8ezRAjJnUWZ4KSkJJsNgFlsAOzJBEC2qET1HqjLBMBpmvs4tL4NWs/8BO1nMcs8Kw+AmTC25eftUZkJgNOSI7F+xGBM/SXnADgrIQT52HlHEDAMFQbORpXOg/A26pwIhMz+8z9bNWkQ+iwehE+qesPVQQ9lqhI6sRwe5RtiwOzuqONqBY+CeS7tsh/XO+DSfgF6zl+P3uPDUJRvsyZCoSjX95XA0ROlAgJQuoQbmFA1VyIXHwQw2/sXdeRbspOIOwd+wOj+3+DPR3pAFoAWoz5HGTo4CbEZIldX12/5n+0GW+dYJpPh6tWrfIut8MOnH/VCVXchEi+tRvjfkVaSmckDz574YnBtFJOocX1bOGb8lccJVZ/8g6R4IVR3tuP+8dPIrzykwLMxir1XAmLVfcSeOgYt356/HuHBmQd4jme4vOoLnLtZMH8lP5Ua1A2dg90gVN/Dn1MXYdGKP3Dg70T41giEt6c3ShS/j+MnnhVQ5jxnsf87i2diEe7uHI6//vecby0YMt8aaNm1N5r738W/V+138l/Z+z1RraonhIlXcWFXBKxjDrhLuH0xGWrDLZyaMwo3EnM+Kyhq90HokPZoWM4BN49dYt6NOfNoMwJf92iOD7ySEHHqLt+aA/0jHL/nh48/Kg23IkXgduU3/PWIvqUgxBZYdM3KZlGDgoL4NfL2KFBELmP+V+H+3YgCCtwKhvSj91FaIQCYD9OIHdF8a16kQBW5Ck9O/207AX8mxke/4czSrxF52RamkPVBnUreEDMh7sPj27Hjotp00fHgFH46fAts0t4zsDqqSdnGd0D1Ly79MBqnjjzmG/KbjAn222LQuOmYMa4fmr1fCq4ym+yJXujpr6/ByUVTEfXYSs4KZ3/Cqfts4OuFMk1K0zcVhNgIi/oEswFwYGCgzU47bLvTJgchfPgKNCmWgnPbWyI8p+6xQh980mwyelQpDU+FAwRpBqiSHiLyn8WY+ffpTBkd833yq6nnsGzuCjh3mIxO73lDLkyDNuEGjh2chNmXXyd4zarRt1vwdUMvqC+vxaAR65FTGCOoOBVVutRAli8j02LxcFMvPLzNr5uJPobf56Ph7XQDt9ecgOyTTiju48R8CBmhT76PmIhwPLqalHVbV9PqqxmReuY7RO49wa+/riqo+8NWfFSOvVjJoL75M9YMHo9Yft0iHp0xfuqHKMmvZkcfcxzLpm7GdX4970IwaltLlBfH4p8p87HubKYAo1gzhC9vAn9RDI6NWYTNt17IdIlKosecRehb1QF8x0UAAC0nSURBVBlJZ1djWNgvb/ZYeWWnnUO3uu5Zv/JO+BdbOndFVH4l22S+qNGsOZrUCoKvm9T0twxKxN2/gTOHfsau82+QdRaXQpkh89CgYSCKezhBwkRHaXoNUp7ewIXNoTi691qWizuh7xB8PGEwKvkXgdxBwGyrRuLD8/h30WD8dyFzRvpDtNiyBjW8niNybmXs3Mc3oxxqLtuF5oFyJJ+ahIXh6/h2fnu3B/jf/I2QdfscwaWcIRakQff8ESLXD8T+7fy++E5A9+UDUVbB/WI2tHiwuw/WLDzJr2cQFO2IWcuHorpbCi5uGIYv1+fHRUsrtNi8GDWKZQ0vk5n36vKwlTkmBBT1h+Gb7pUhjznGvC+25Pq+8Ow8HlM+LMmcq7Zi9LK/+Nbc1Zm0BVNDvKC/tgntP1sNFd9OCLFeFl2wOjjkpWeV9Sr0k2UI/dHz0x8wsk55FFWIoVelIlVthMzNDzWbTceCj+tAwm/KfNpDo2ZuT1VCwwYVDkVQ+ZNx+LSSF0RMu0oHSNzLo0mrr9E9xw/FnHm4KLjqDslPz+ceHBnU0KWmQsstShjyEuwIPeHerB18ikugZ35PbxBC7OIP3/bz4V2C34b5qDQwzwV3vyqtKctp1PJ/J2N5s+oneub5VnLPJ7so1fp868KBNC3UzP6l5rIo1czj5H/ltdQqCnfujKBCcpQBkrLBaDGQCQ5rOkLw5AkSUthHIoez/yuyo+71UaOMO0QCMdwr1EADvvlNGdTMc8g/l6lKbb52w2C7PLQdNA7TZ4xDv2bvo5SbGKq4Gzi9bz1mhI/FxDk/vGEAXBW15v+Obh1roFRR5vjXso9DBZ1QCmefSqj/5c9o07EUvzFzCJedhK5Lx6FmOQ/IRXqomMesSZPC3b82mk3fjUYf5EMKXuIOvy6D8IGvDDqlEmrmUHdwLolqQzegeRP+/g0qaJjbuONXZTp+2cA9/XXgFw37y6+gqFcH5TyYY0TkivIfNOFb35QGOvY8xv9tJXeysi4noxO450ri6Aa5FXSdJ4TkzqJMcNWqVbl+tbaaCa5WrRo3OG737t18ixXzGovv+zWCKVErgNhRDqkwjflAUEKb/jmgw6N/v8Hnf13k1hzLTMPK3g3glZaEiwdGYfw/t6AVFkXjFoswulYJSDS38dvKflj+lNucx2eEiyoRHx+Nc3tHYtatFIg8h2PxoC4oJ0vGmW2t8VUkv/lr6jh/D4YHKxD9x1D0nB7Ft+aBOXvrkksm2JWJZ+NO4tqayUhmUzCylvAbMoJpNyLl1Le4tP8/0/Y8c7ZZ9ux/uLxsWoH1dfQY+gf6dykLQX5kggtarU6YEl4TRZMvYM2QU6i4tD/qFGWiYnUUdvQ/Bu9F7LoBUVunYMHPGv6XzOSo9eV8hDVyZl7jZQhb+jcTtuSzD3/GiAl14Z6YH5ng2hgyuzeqOrFJ3zjcvvIfTh46jP8eKPMt0HbrdwADe1WE3JCIa7+OwG8/HucylkK3D1Fr4lzULX4HR6f0wOlr7DPlinLfHcandTyQlnAe+0Z3xdl7GgiL9UGL+RPwgbcD1Dc2YvWQCXyfVgszwV7M4312BvtCu+Mcc/9w7Y6W30/FB8WESPp3AhZ9tYnf3sT8GER3d2Bd/9E5foOTThKM4Qu+xsdFYvHXD6Ox4K/8L93gP/EUejQqyn1r81Im2LMzxk/JyzcmpszwQz5T7MK3ZyfXzPCgFTjUrQJEiacw59Nw7Lel/mqE2CmLMsG2jp0owyYCYJZQBkeFgqtJqVCwATDbKICDo7nN1C5zEHObM1EhygeWg5cA0MacwAY2AGabjbE4fGQ7LrM9A6Q+qFQxgG19GfP3BA93YQETALMMcUdwn/0WViBkB+VbMR3iz80yBcAs9SEk3EvkfhQIbfubi3dDCgcxn85iXnhRemZLBAfpq9JcSvy7cCg6teuBLwoiAC4wBqiYi77o+/dwMyb/AmA2GC1fvRRzaZCGpLOLsZ0PgFnGxCM4OfoDzOveiQ+AGeK6KF/Wg3lna/Ho+CwuAGYZn6zD0d3XwOajZSVqopwv1/wGtIg+MdcUALOSfsb5a/HMDwLmfWI+h7wh7XksG94Zbbt9ViABcK5e/MZEpTN9G2Ngs9mZ27VgvxNM02mgytyuMX2PkqZTZbQxi1L7Jt8QEUKskV0GwTbl8RT0mRiCj7llGP58wjayfYLNbezSFAMPmWfAK4ogV9PEDNrEm8jSbVh5FfHcZ5IQEqkb1/QyDWKi/86UWbmCWcvYv5FLH+Q8EohkBTPpRVoi1E/eSbHQwsfFFd4OkdiwcC/+ZS4Y9y/ZgohUMYRc7Pscifct6mxhZc5j364juPpEA8cSVRDSYRgmz5uJr4Z2xUeVPfHm4WBJeHiwxfd0SI65mnv3FO8P4MrV6tMgMSprP9uUG8/AHdkiKaQ59mfPi5fvv9B5tgvzw8IQxi/f7jRdROif/ouVmdq/mrsDt5h25b8/YXKm9ll/x3B3o4nak97GLhNW5nGcQNJT/EfxMiE2waIgODExEXFxcfya7fHw8OAmzCCvwk7Akf+v7bPkVC4QcPEKtsp6ozaBHRi3fDmW57Is/qYbKvC/8lr+jUUCmwoVSiEvJoT2wjGsnbIFu48nI01aHB5u7OlCCw23ka1T48GJX7FkcijCZm7CkatPoBI6w7dKCDoMm4x5M7/BiJ4fo7JnPmVHSaFXx8c0gNOoV0P12p0MCSHvgkVBMDtRhk3OtsarVKkSgoOD+bXCJhZXkkxdGSRuZVGV+4knD0QRrmiBEVqNqavA23Lp3jMuu6zweQ/Vcut89zZJHG1nOuaCHhiHG4jmSk4VQ0BzrywnB0lLP/iwT1TKU9y+UhgywRnUD07g1yWTERo2E5uOXMUTpRFiF28E1m2H9h+nj6p8TQ/x7JmS+V8Cj7IhyHXS7JgzSGI3hxRu5etwTWZO5TzAvW0NGmj4QifZU0Amzf8jWiRxYvaMZM8Htfw8ufdM3KNTmb5JI4RYM4uCYFsnFhfm7I4BUVdv4Gka8/HrXQ+9apcxVYJgB8Z92BHvsV+naqJx6dqLI8wKVtzRK4hmuyG6l2P2w93U+A6lxSVxdW8FThVRtH4F23gjxGf9mje7Zdyc7bjJ/8rricbpq4+hZ56Nkg06om1F/llxqYxeLSpwI94Tr53HP4W114n6AU78ugSTQ8MwcxPbVUIJg8UZvRu4cuwW9zW8PLAvukwciqI5VVfR/42om8+QxrxbSzQIRzU/U8jJDowLaVMRzszP6kf/4Ub6tNsGGI3szing23gkH2Q7wPmT0Qj0zb9wVfkwievfLS5WHR90q2g7F4xvW0BXVCnJhcC48cdZrq8xIcT6WVQdgi2Rxi5KJZe6sDmFvk4wVyJtCXpVdIGA+VjlKkkwH65yR7ZesAb3TkzC8IMnTdmK9OoTL1ee0D2OwOR1i3CZu9M35YlP56/EwGBXGKOPYNqQqTiWyt+UmagRSg4YAS/2U58jgIjZL5HQCL1SBe5zH0YoI+fg2sH/mO2zqx4hgUu79Qiq4pJN3V93eHZfg7JlTfV8jWq2rBrzg9AB4pR/cHnFdLxq93JTpO8edO9YJj1rJhBJ4ChjLrr0Gqg0BtMAHfVt/C+8Ff59u9checNNm9wTtYsx+2zUciWy2OefHZBpjL+AjaN+xsmkV50yfDD4+1X4tLwMygsr0GrUr3z7G6i3GgPD6yB9pmaBGI5yCYRGHVQqHT+ILQlX5tXH/r+sMDstrooas9bgo/eLmKbrzbTfAiFzXGjPY1v7TjDPW8mVSJvXF+WcmQfMbyuQOELG1gtW3cXxic3w1xl+QBtzjz5hR9CnRUnmpzQY1Cqojczz4/AM1244ICjIE2m6FMRG7cXeEeF4kG01CaDEpFMYEFL0hWoSPHFDNFm1GvVKsY+APTeouHMDu//CmB1YO3AsshSZYbn1xtKNfREk1+LK2ub4fD3f/gZ8xx5FpwZF0y9WBWIZ5MxBadSqoNLxx2PyOewd1APX3vrHUgAGr1iErhUUSHtwAEP7zcbNwtBjiBA7YFECrFy5cmjRogW/RqyO8S42bhmCRSejEJuqZ4JbBRQyIdSJ9/BfxHiMMgfArPTqEy9XnpDLZPkwQMgsDlvm/o7ryjSIfRph3Kr5GFbP8xWZJQkTdCkgYf6+aWEDYLZdCLE8o/3Na1UnIG77RNw4e5sbJS6Q8fftKIRBKDUFLRYQyByZ51POPZ/sImcCYDaGE4ilkJvb5Y6w2i8jNFewLmwNDlyIQZJOzO2zlLlwehZ1DKvHZhcAs+TwULAXFDrEP86n6J4JADM/lwo2AGbbmQuVjHZHSKy1+If+Ak6NqYeVK/7EjegkqA1MkMrvt1yaxqw7oUhFfluG8eZk/PL5TPx34xmU/LZSgQYJd/9BxPg2mQJglg7RC/rj96P3kKRNg4g57mRpz3Bp4wj8F2t6jQQOTvAqWSb3rhg50R/DkfBxOHzmIRJVBu5C2bz/BpEL86q/gqQonNgbDPF4YtlXEi8RyZi/yT93pr9v+ugSMseIuY19X2VUMXk7HIs3wcjlc9GZCYAFxnic2rKQAmBCbIhd1gm23Uyw7XMKGYclY5vCz9H0aWXQKBF3cQ1GhG9nwmRiszw/xcLVg1HFKQVnl7VB6A6+ndgdp3ZzseGLanBVR2L1JyORtfJwIdF7AX7rEsgE+/yFGRMAX1z3DcZsyEMlEEKI1TBdTtuZQj9jnBVLOToT/bqGY/PJW3jyXANI2Gyp1D4PxMJEUQzObCJYH4/HbN0pYrekxZ25DLEh4SleY1oc2yKVQSEXQ69MwuPLf2L5mL4YRQEwITbHLjPBhJD8JXpvAtYvaYziKWexrE0oKBFsrwQoFb4Wa5v5Qh25Gp+MLJR5YEJIIUEJOELIG3Ov7Mn1PdXHP+YmICD2SoFqRdkaiAYkPC20eWBCSCFhURCs09F0OISQDFIXEQypqUiKuZF1lkJiZxzgJjYiNTUZ0bdO8W2EEGKd7LJEWu3ateHj44MdO+hLW0IIIYQQe2RxJthWA2AWW/5LIHjLtXQIIYQQQojVoD7BhBBCCCHE7lgUBPv5+SEkJIRfI4QQQgghxLZYFASzE014enrya4QQQgghhNgWu+wOQZNlEEIIIYTYN7ucLKNkyZLw8vLC2bNn+RZC3rE+S3GgTxAk/Gq6pLNY1CsUu1L4dStT9qsN+LFpCX4tg+5hBMb3noUz/DopKMEYs3YmWpZ66chBzOER6DHtMr/2+nos3ocBldhpALNKPr8MfUZvRxK/TgghtsouM8EPHz6kAJjkwYdosu4GJh6+m2m5hK7dS/K3FwCDBqmpqRmLUg1t+mWqJ6rMj+T2I3xxKN/2bhnUqiz7q9TY8MSxTtXQZfggtAx4OaC0fmnQqTIdN8yiUuf0WshRtO1U1OtQFw58y4u0amXW+9O9dr6EEEKsmkVBME2WQeyDlgks2EDAtGgMeQ8CxEWD4R3cEMVLFcFrFeN7+Af6t26N1ualxwTsT+Vvs0J3FgzO2Fdm+fLYY/4WW1MH47+fgaEdu2H0nO/Q3oNvfmMSeJatguDgSvBzFfFtBSEVUVuyvhYD517jb3tZ0RF70X9kLzQZvhKd+gfyrVn9OrZTlvv7+bqGv4UQQgoHi4Lgp0+f4urVq/ya7SlTpgxVtyB5cALHhlbFvNZBzDIcp6Pz3pe8WL9l6Dt/PbqP6QcF3/auiZ2Lwz8gAH7FnJCXcEzq4YsAZvuS7tnlCgsngVCUj1+RBaHPhNmYP386Qtt48W1WRCCE0C6/DySEEAuD4Li4OFy5coVfsz1sn2CqbkHsTfFGPfFFaChGdK+PvBz9gW2HIpTZfnDrMnxLYXYSc7+Ziw07N2PemHHY/oxvLqRiV/TH1tW/4M+lA7B1le0mNAgh5E3YZQ5ALBbzPxFCiIn2ziGsWbISe29r+ZZCTH8HdzaF48SOv0Gd2wgh9sqi6hCurq5creB79+7xLbalSZMm3P7banULm1JtGQbOaAkf/hv1lMglWL3YiJDJg1HZ2xEi5iM4+c5fiJgwFFcfZwzkkVafjBaft0FZbzfIHQRI06mRGH0Rp5cPxMlTyfxWZo7waDYV9Ts1RICPO5wcHTL64abp8GBfB6yZF2laN++P+hJ+H9QKZ5+amoHh6LQnDEGKFFxf1Ry//PyQbzdjB8n9iHq+mmxuZ7zwWF8tm/s3V4e4txdd+81DLN+cFTsw7gjaBTtDc2kpZn0xl29nyDujzdo5CPbU4s7WJtjw/QP+hgwlW4didIsAGG/sxpwFB/CEb89OcP/vMLi6O+L+WYyJ67PvX5qZuVpEflSHaDl6GVqWza1HdQLOrPwGq88Z+fXX8erKCimX12DIiA2I4dfNgsesxcyWpZBwdAY2ajqiX0g5FJGyx2YKHl/cgSlfr8V1Pn42b5vjELuUy1gzZAQ2ZPpDTtV6YVSfj1CltBfcFFKI0h++AQlnV2JY6FakH7Ic82PQ4vKaIRiR+c5eUGTQQQzoVp55t2SivoMjoz/E8Ty8vOZqEblWh/Dtg4WLeqCKczJOLR+A8J1UR4IQYp0sygSXKFEC1atX59cIyYFeBTU3sEwDdlyZwr0aaoUNQdViImiUaiYEdoBLQFO0mvg1XPhfEddZgZ5Te6NKKXfmA1sDJTsoDVK4+9VE06n78FHNrL1sXfpuR9+xnVC1jBecZcznOj+QjVuUGuh0b6liQfpjVXJVEtirSzZ4Z/c/fX9SVdAUQAUFQfFGKFqE+UEfj6fnXg6AbZFWk7XawasX5vm0uOy3DprMFRX41yw3TmW6omejcnA2Mq+nSgc4OMH7g16Y/l17mMfT6TQZVTNMAypfrt6QqmT2PdOhIAn5Gium98WHlX3h4SRmDqfM26uh0SnxJjlqI7NPGceiGvrXTn/kUcMPUN5NDIiKoFzdkPT3NSGEWBu7rBNMmeB3ID0Dm4jY+PP4I2wAbsQZ4DIgAkO6V4Dj84vYNbANLsR9gJDVmxFS2gHJl1Zj45hpiGO/r5VWRo2ZG9GsqiuUkUvw48h5MJXOrYT6K7ejcRkpUq6sxvpRU03bZ6cgM8GZlBh7Ar2bl4Amy77m4I0ywXL4TfoLvUO8YIw9hl+69sZNtjm4P74bXB3u3DbZU/KZYQc+U/xyZdiscsoM52cm+G0zZ2+1uWSCJWnJuLI5HKNXXWeCUglqjv0RU5oz7c8jsXLQSGzOkqrNe6a26bRfEV7XA8aY45j35RRExOblYinv959F6W/RY0lflBEWQCZY1hChi0agrks0/pwTjmVn1fwNhBBiXeyyT3BCQgKVeXtXnAV4+ttYLgBmJZ+7iQQ2kycQQsQejQGd4ecjAVRRODmTD4BZmkicWnMU0VrAqfj7KPqKSE3iHohSVStAVpCVqKyN0Aulhm5HuwZeEECD+0emmQJgll4LVebMo1pvyk7r1RltzKJU68B2JjDo2Kx7RrtKa+piYNSymcPM7W8ps26l0h6fxqo1bADM0uK/g5F4zK4wx7A4H449kaIYgmoEopgtlitmqY9h7pDO6NBtJAXAhBCrZpdBMDtRxu7du/k18lapYxFzJlOq7OxwrGrmjylt+axsBX+4sX1qHSug2cbMk1Qwy8I2KMkGBjI3uKd/x3oJ5/acwhNNGiTeddFqdgTGHojCqC3H0WXqdAT622okkTNJhYEYs+cKwiP+Q98ugXAVGpB0cR32fB/Fb8G4tBHTwsIQxi+LjtxnwmTm+uLOQczN1D5xxZ9c5jnmwBJMyNS+4aIp1xd/dlV6G7vM2HKDa7dXqfH38KQArgMObTuCqETmqs+lPFqHLsbm/RHYu30DVsweh551iuaprB0hhJC8s8sgmLxDOjXUOXVsVGlMfRXVz3A/6gZuXX/VEoknmcbGpe7uiR/a1cf6H/fjYlQ0EjQCOHn5omK97ui88hQ69yz/ehNW2ACBgwwKhRxSkRFGLmGrR/y1bUjkbi0c2IFxy5cvz2X5DgPeLySnsfPL8VmHjvh83lYcPX8bj58bIXErgQrVP0b/aevw09chcOY3JYQQ8uYs+vRgvxJVKpX8mu2Ry+Xw8Mi3KaFIfrofgxS2e4RYiXsLm2PTsKYvL2O/wqMXv2XVPMLdLcPw29C6WNKqHGZ07Y1Dl57DKHJFxY+/TB+wlC1Pd0jy9G5QwNk378eOWOpWIBk8tk/wlMb+zPI+fv0vHmmQwv+TRajly29QCBT8wLi3SQyps5T/OScpuLr3e0wePRDd27VA07a9MevwA2gFMvjW7IBWVjjfBiGE2CqLguCbN29i//79/JrtqVGjBho1asSvEatyezGu3lQiTeyLWpN3oEHjMhYFkfrYi0h8ruX6wAqE4oxMsN4AI9vo7I/yzc0ZYjcEDG4O3xxHhP2DeFPnZbgHdINXehk0R8jcXV/KNCfGpoD9xlzm3xh1GvsUYCY6CVHLduBWKrNnThVQe8RQJtwqHA4tG5ulG8arl2nYGGlJebS35QFin7PHjQyl6vRG06KveTSnPEVUrJI7lvKrzzEhhBATi6pD2DqqDvH2eH/xB7o09WECMxFkcilXF1ilNA3EijvSFevm8/V7M/MZg05LhiPI3XSNZtCooOb6SAghkatxbV5j7NwXz92WXrWhJNLvlyWWOULKFVnV4lHEcKyfdYj5y6wP0GDlJjQqI2MCUyO0SjX0Iilkiddx3Vgegd7MHqY8w71jM7Fj7jZkTjgrPt2FQQOrwoXZLfM+iSSO0F9b+nIFCGlftNk4EcEe7GMw/R0d8xAEYimz/UKsHLUETNya4Y2qQwjhNvwPDO0YAInhGc7NbYA9Ee/mmxpbqg7x3ucrMKVZyYxavmIZ5FImytSpoOQHBSL1KjZ8MRZbn2ZUh3ipekTwGKyd2RKltC/X/WVJmjGBemhdeLIBrEEDJT9AUSwzIOqnwRjJl5NoO3c3RlZz5EoHmsuXCSVyODqwx3EakiPXYNjIjS9UrchjdYhS49B5bm+USi8SLIRULmPelwbm72lgSqZr8Gh3X2xZeYFbe1Geq0MUG4of1nVBOUkyzi/rg9HbqU4wIcQ6WZQJJiSvhEwwKlfIoTAX/hc4wJFbl0MqyyZnGT0P2/oMwv6/ruPJcw0TRThy27P3AbURIo/MPSM94SDQQmMUp98vu4j1aiQ/jcLpNSOwZa45AGadwfFJs/DvjQSoDQImqGaC4fhIHJ6/DPFc5CGAg5Mnivv6vZRRTd0yChGHbyJBbYBQyu6TI0R6FXPf8pffSJq12DduFv6+8gQpmjQ4yE37JRcbAAcv5DifxmszInH1bFx4zOy/yAOVey9CKf4Wkj0H7jVUZCxMAGw6RDO1y9mLKdP2ltJGTEH4kv24HJPMhJkS5v1gum8xc7yJ3cw1r0vATayBSscGp/zfZhYZcxmWGn8f5/YuxuiwFwPg1yCSMcd6xvtDoWACYO7BiiBNb2Pek9J8ODJLe8CJe0MkIeYfCoAJIdbLokxwUFAQAgMDqU4wIfnFnAk2aLhSZumSL2D54AnYnyVtbD1Kj/oRixt782vMCYXPptpinWDbZM4EO0CnUsKcwGY9ORqGgXPzNtPfq3SevQ29AzP6MZuz0rlmgnssxr4BlSBLPIOFfcOw+8UJHgkhxEpYlAl2cMjfPBYhhCeSIj0LyS5yGSRsxs5KiWRZs6lcdwLyDgjg4JjpuGEWxzcsmC2RsdnhTPfHdcvIXXkvJ64fvzEpBqcpACaEWDG7nDEuJCQEnp6elAkmhJB8Vn/iZkxqVAzPzyxE37DdoDiYEGKt7LJP8KlTp/DXX3/xa4QQQvKLn6crRDAiKeY0BcCEEKtml0EwW+P42bNn/BohhJD84Q9nETst91NER2Wpl0IIIVbHLgfGEUIIIYQQ+2ZRJvju3bs4evQov2Z7qlWrhjZt2vBrhBBCCCHE3tjlZBmEEEIIIcS+2WWfYEIIIYQQYt8sCoJ9fHxQvXp1fo0QQgghhBDbYlEQzM625ufnx6/ZiMBR+PG3PdizZw92/vw9pvarBmcrnoSAEEIIIYQUHIuCYJucMS7RABE/85Fr8fKo12saFn5ZBWL+ZkIIIYQQYj/sp09wzGIMaNoYjRu3x+yTsTBChtK1OqGGhL+dEEIIIYTYDTscGJeEA7eeMUEwIYQQQgixVxYFwTqdjv/JNrWqUBwi5v+UmMu4oDW1EUIIIYQQ+2FREJyYmIh79+7xa7amFRqUc4UAStw9/TvzLyGEEEIIsTcWBcHR0dE4ffo0v2ZjGlSHnwtbFuIp7uxNNbURQgghhBC7Yn99guNSoDKwP7ghoCOVSSOEEEIIsUciV1fXb/mf80wul4P5PSiVNtiZIO4sol2CUaW0D/yrNUeXT1uhaYMgiI8cxRXb7upMCCGEEELyyKJMsL+/P0JCQvg1W6PGqU1bsPfkBVy/EwudxAMly/uhpA2WPiaEEEIIIZaxKAi2yckyzGRdMX/DFPRvHIyiyhP4YVQvtG7SHwsS+dsJIYQQQkihZ399gmsEwkfOdgR+gL+/WYxdFx8hNc10EyGEEEIIsQ/2FwSfeoB4PfuDG7zrO3JNhBBCCCHEvthfEKzehBPXlUhjgmD/OrUg5ZsJIYQQQoj9sCgITk1Ntc3KEBw1tl95CLZKmqdfPQSwU8cRQgghhBC7YlEQfPPmTezfv59fsz3FFVJw5YHlrigj4ZoIIYQQQogdEZQqVco+hoXJ+mD68jpwN7qghF9xOImAlAs/4NNRv9DUyYQQQgghdsZ++gTXKI2AUuVRIYANgA1IurEP87/dSgEwIYQQQogdsigTHBQUhMDAQGzfvp1vsQ2u/lVQ2k2P2BtX8YjqohFCCCGE2C2LMsG2OllG0t2LOH/+CgXAhBBCCCF2zv5KpBFCCCGEELtHQTAhhBBCCLE7FAQTQgghhBC7Y1EQrNPp+J8IIYQQQgixPRZVh5DL5dwSFxfHtxBCCCGEEGI7LMoEs1MmUwBMCCGEEEJsFfUJJoQQQgghdseiINjHxwfVq1fn1wghhBBCCLEtFgXBbm5u8PPz49dsk2u9nvii30coRrlwO1IGNZZewcTDdzMtUeg3qh5/OyGEEELshUUhoK3OGJeu2XT8NLk/2vUah0XfhkDKN78xWXFUrBqM4KASUAj4NmJFDNCrlUhNNS1qXd7HhApdA1E8uCG8y/pAxLcRQgghxHbZeR5UCKEoH6PVGkPx7bz5mD9tJD6U8W3EitzFudDqmNc6iFla48gNFd+eO+d289Fj/nr0GT8WXnwbIYQQQmyXfQbBEVPw9aLN2LVhOkZ88xc0fDMhhBBCCLEPFgXBtj9ZhhrX9qzEojV/4ImRbyKEEEIIIXbDosky2OoQ7HL69Gm+xQY0+BZbJjWEV5awPxGn5/fA2N9f/Fq8Ab7dMgkNvR5iX/jvcB7aE7X9XeAgMEL7PBqnN4Rj4rYYmOJn87Y5X08knp6PHmN/R8ZfckW9QaHoHhKEUh6uUEgz/b4hFv+b0wcTD6r5htdRC4Nn9UGwM7+anZSr2D5zCf6M59fzqsR4dPt+MMopTKvau79h/VcnETRtAmoGOEMMA5QxZ/HXd71w+mrG/ovKfo6mYX0R5FcEThIh0gwapDy5ifMbPsORiHv8VmZiONUNR8NurVC2tAdc5JKMq7U0A+JPTsTSCZtM6+b9Ed/HsbEN8VekqZl9XZpv3oCaxbR4sKcf1iw4wbebsYPk9qBFkDib2xkvPNZXy+7+AYf3hmLR9E6oIH2C/y38DJMOJPG3EEIIIeRdsygTHB3NBIK2FACztGqoUlORyi1KaPKUAXZD0JCuqOcng06ZCrVeAIlzSdQdugDfhpiH02mhVvH3q9SYAmOjFsr0v2ValGotMq42ZGg9fRW+7VYPgT7uUIh1WbZN1WhgeG5piloPrXl/clqYfdVZ8ieMKmi4gWVq6JkH5ODmj0pjvkKdAPY5UkGbJoLcpwaajl+IUvyvCMt8g87zxqBmOU8oRDrmuVFCZXCAs897aBC6E+3aFee3NJF9vB69pwxC9fe84eYogo4fyMYtSjW0Oi2/ZQFLf6xKKFV67vVjg3d2/9P3h1k0mlfvj1+D9+HnLIRAUhyBdavyrYQQQgixBhZlgm2fOXubnEsmWAhjwln88PlY/BrDRIyyxpiydjzqM+0J/81Cj3ERyJKrNWebk09jfo+xeOlu03XF/N8HI1iux72ICfji/+3dCXAV9QHH8d878w6SmBAIhBAYEhBUCGrFWkVslFKqglCrjGgZ0alFx2pFEFFTZEZqQayozYhOBa2OHEXwKKDMiEVFRC2XB4jGgAklHA8Sc7yEHN19bzlsQMxThqz7/TA7u/t//928I8z83j//Y/r7+tpun8KhFtj9iuwu0buFo/RhSVSBIfN048SfKr2+RG/ecZFWfdpF+X9druH57RQtWaoFt96ikmrjek9X9b5voUZc2EnNJUv0zNjb9d/YjTN1xswVGnlmiuq3L9O8W8bF6x/LiWwJPkLqmGW6cUwf+b7xXI8jfbDumTFOZ/s+16sz7tHTm+zejQgAgB+PhFqCQ6GQMjIyrLMfsyZtf3uG/mkGYFP0Da3YvCfW2uty+/T955XwKCXrTJ2T196+IxSTAqpcUxgLwKboRxu1t8Y8csvtNXbplymvW7J0YKfWPWEFYFPjV9o8e5GKqyR/h57KSrfKj+BJzlH2Of0U9lsFdhNZoQduGKmRv51IAAYAoI1JKHt1795dgwYNss5+zCq1Z2vlEd0Yfijztfjf21TV6FZa31G6d/ZCvb78VS149jH9efyV6p9so0mGGypUvn6jdWIom6YXLu+uqUOtVtnMM3RKO2Pv66zzHjxykQpje/4WnWo+5k1WchfzYlO5Plu4UiVVTfKkna6Cwpc1ftlW3blwtUY/+Ljy+6dY9QAAABKXUAi2/WIZbcBbM8Zq2JV36PElq7Vp2y7VNgeUkX26zr30Zj0070nd3s9sRk2EOTCuSEVFx9mm36qLj9L62mqNdar72jo+mvoaNTQa+4ZK7di6VV9sOdr2scrL4tVN9Wtu07MjBmj2rPla99FX2lPVrED7LOUOuEzDZ76nMX+8mAUrAADA92Lbv8K3af6AUr/LO1uxXi8+eq9uu36ULh96iUaMfVxrdjfJHczVwGsuVmLrbZzggXGtta9YVWbfaHeDyhdfrufHDW653T5On/7/LBWNe1T+0l165Q8DVTS8l6aNuEKLV+9SgyuonIE3qadV7ZjCneX/Tt8jfErJzLWOj8+d1O6HW2EQAACcNITgH9LnEVWbfSdCeSoYd45a26uhYucn2lcT73yReJ/jDzV3ygRNmHCcbcqTWrXfuuREirygDZ/sVbM7Xf1u+pd+MfJsJdLFt6lisyKRqMxGZZfbc/gXt+mAmsy3LKmTegw52EIcUOboscr71pbubSrfa3ZQdinU9efKOzQNmldJaektWpprSytii6p4O56ts67pQ0s0AAA2l9DsEPn5+crLy9OiRYuskrbuXE2aM1nnZxyMTi55gyEluZtUX1OrA9Y7ULHuMd1Y+Lqi3zJ7xMAp8/SnCzuqssW8v6aArn54gX7Xv10swDbWmdOqGQcur4J1GzRj9CS9Fhs/NlZFr1+r3q46VccqmDxKCgXkNS9s2qe1j1yrSceeXuKkSR71oq4b3VtBI4bGnq8RS+tq6mS+iur1D+iJ+6z5e4+U8hv9smiaBmTFu9E0H4iqpj42vFC+oEul84fruae2xB47NGtDn6RD9zV5/EEFfLF3VZG10/X0pNmKjb9TF+XPXKphZ6Yad2vWgVrj8zRidqChRFt2dVGf3IAaa/er7MM5eqnwUe2LXRPnv/BpXX9vgTK9h5+Ty2e8ph0vt5wBwnO+Cv4+VxfkmK8h/nPMl+By++XeuUTP3HCnyuM1D+s3XnOnX6ocf0TvTr1S97xplQMAgJMuoZZg+60YZ4SiYFjh8MHNDMBmuVv+0OHyUMAfC6+Ji2r+5Il6auVn2lVdJ1eSde+QNxbMOh7883xuWO6aqBrcSYd+djjsV1NttfZ8uVaL/3KzJrfBAGxyJwUVNN6/cNgK7C4jvMfOQwomHaOjQOVCLR/7ay1eukFl+6Jq9AZi9c17eOrr5U7Osiqa2ingaTC+PBgh27pv7PNSnar2btfGRZP1fOHBAGwq04b779bKjeWqNn4tfcGgPDXFWlM0VSV15rcblzzBNHXK7tGie0n9qju1/KVNxmdlRG0j/IbDQSU1RRVt9qlFr/fGd/TmXRP1xgel2l/bGPsSZT6vUKBZjZ4Uhaxq35B6Snxmi9qIynbEiwAAQNvg0HmCgRMv7/ezNeuqngrseVv3X1WoVVY5AAA4+egTDJwgae3bxfo/10ZKVRovAgAAbQQhGDghfEoJJ8mjZtXs2qxiqxQAALQNCYVgc1Dc0KFDrTMALXVTz/ZBY1+rSCntwAAAtDUJheDYILLQUYcCAYgx/o+461VdHVHZx7QDAwDQ1jhkijQAAADgMPoEAwAAwHGYIg0AAACOQ0swAAAAHIcQDAAAAMdpRXeITF01Y5au6x2Wmmq1e+tqzX/kb3qt1G5LKAMAAMDpWtESXGv888emRwsnZ6j7WcM0/qEpGpZhPQwAAADYRCtCcKVemTBSBQUF+tUdS/RFjeTt2FeDh2ZZjwMAAAD2kFCf4Oj6/2inEYIBAAAAO0psYFzfAcpOMfb1e/Xlhh3xMgAAAMAmEgrBfQf3VWe/kYHLP9HKjVYhAAAAYBMJhOBc/axXBxkZWFWlH2hdvBAAAACwjQRCcJX21x6QOa9aMOs8Dcn2xYsBAAAAm/CkpqZOsY6/o2pt2dqk3Pxeyu56mgZdcbVGDLlIZ3Us0YoPyq06AAAAQNuVQAiWmvYVa6crQx3CXnnC6cpo316Byve14I0SqwYAAADQdrVixbiDvDp38hxNvaSLPFVf6q0Fc/SPpe+pOMLKcQAAALCHBPoEd1P/nDSZPYH3b3pO9z/3NgEYAAAAtpJACN6mzbtr4gPjOvRRr3ghAAAAYBsJhOAGvbNsk3Y2GiG48xm6IMcqBgAAAGwigRBsxOC172hbhXEQztLpP0mNFwIAAAA2kVAIVkqaAh7zwKfkTpmxIgAAAMAuWjE7hFcD756lMTk++TrmKDvNL1f9Nr068Xo9zNLJAAAAsJFWtAR302nduqnHqXnqagTg5poyvTv3AT1GAAYAAIDNtG6e4EBn9emdKW/ldm0ujoiJ0QAAAGBHCSyWAQAAANhbYgPjAAAAABsjBAMAAMBxCMEAAABwHEIwAAAAHIcQDAAAAMchBAMAAMBxCMEAAABwHEIwAAAAHIcQDAAAAMchBAMAAMBxCMEAAABwHEIwAAAAHIcQDAAAAMchBAMAAMBxCMEAAABwHEIwAAAAHIcQDAAAAMchBAMAAMBxCMEAAABwHEIwAAAAHIcQDAAAAMchBAMAAMBxCMEAAABwGOl/jLg8hoiloD4AAAAASUVORK5CYII=;" vertex="1" parent="1">
          <mxGeometry x="530" y="190" width="355" height="352.48" as="geometry" />
        </mxCell>
        <mxCell id="oPY1Iat3rdZq_LcWUMkm-2" value="Начало" style="strokeWidth=2;html=1;shape=mxgraph.flowchart.terminator;whiteSpace=wrap;" vertex="1" parent="1">
          <mxGeometry x="190" y="70" width="100" height="60" as="geometry" />
        </mxCell>
        <mxCell id="oPY1Iat3rdZq_LcWUMkm-3" value="Конец" style="strokeWidth=2;html=1;shape=mxgraph.flowchart.terminator;whiteSpace=wrap;" vertex="1" parent="1">
          <mxGeometry x="350" y="605" width="100" height="60" as="geometry" />
        </mxCell>
        <mxCell id="oPY1Iat3rdZq_LcWUMkm-4" value="appset = count % ints.Lenght" style="shape=parallelogram;html=1;strokeWidth=2;perimeter=parallelogramPerimeter;whiteSpace=wrap;rounded=1;arcSize=0;size=0.23;" vertex="1" parent="1">
          <mxGeometry x="191" y="140" width="100" height="60" as="geometry" />
        </mxCell>
        <mxCell id="oPY1Iat3rdZq_LcWUMkm-7" value="Массив result&amp;nbsp;" style="shape=parallelogram;html=1;strokeWidth=2;perimeter=parallelogramPerimeter;whiteSpace=wrap;rounded=1;arcSize=0;size=0.23;" vertex="1" parent="1">
          <mxGeometry x="188" y="210" width="100" height="60" as="geometry" />
        </mxCell>
        <mxCell id="oPY1Iat3rdZq_LcWUMkm-8" value="int i = ints.Length - appset; i &amp;lt; ints.Length;i++&amp;nbsp;" style="strokeWidth=2;html=1;shape=mxgraph.flowchart.loop_limit;whiteSpace=wrap;" vertex="1" parent="1">
          <mxGeometry x="348.5" y="140" width="100" height="60" as="geometry" />
        </mxCell>
        <mxCell id="oPY1Iat3rdZq_LcWUMkm-9" value="" style="strokeWidth=2;html=1;shape=mxgraph.flowchart.loop_limit;whiteSpace=wrap;rotation=-180;" vertex="1" parent="1">
          <mxGeometry x="351.5" y="280" width="100" height="60" as="geometry" />
        </mxCell>
        <mxCell id="oPY1Iat3rdZq_LcWUMkm-10" value="result[k++] = ints[i]" style="rounded=0;whiteSpace=wrap;html=1;" vertex="1" parent="1">
          <mxGeometry x="341" y="210" width="120" height="60" as="geometry" />
        </mxCell>
        <mxCell id="oPY1Iat3rdZq_LcWUMkm-11" value="int i = 0;i &amp;lt;ints.Length - appset ; i++" style="strokeWidth=2;html=1;shape=mxgraph.flowchart.loop_limit;whiteSpace=wrap;" vertex="1" parent="1">
          <mxGeometry x="350" y="360" width="100" height="60" as="geometry" />
        </mxCell>
        <mxCell id="oPY1Iat3rdZq_LcWUMkm-12" value="" style="strokeWidth=2;html=1;shape=mxgraph.flowchart.loop_limit;whiteSpace=wrap;rotation=-180;" vertex="1" parent="1">
          <mxGeometry x="351" y="525" width="100" height="60" as="geometry" />
        </mxCell>
        <mxCell id="oPY1Iat3rdZq_LcWUMkm-13" value="result[k++] = ints[i]" style="rounded=0;whiteSpace=wrap;html=1;" vertex="1" parent="1">
          <mxGeometry x="340" y="440" width="120" height="60" as="geometry" />
        </mxCell>
        <mxCell id="oPY1Iat3rdZq_LcWUMkm-14" value="k = 0" style="shape=parallelogram;html=1;strokeWidth=2;perimeter=parallelogramPerimeter;whiteSpace=wrap;rounded=1;arcSize=0;size=0.23;" vertex="1" parent="1">
          <mxGeometry x="185.5" y="290" width="100" height="60" as="geometry" />
        </mxCell>
      </root>
    </mxGraphModel>
  </diagram>
</mxfile>
